<svg xmlns="http://www.w3.org/2000/svg" xmlns:xlink="http://www.w3.org/1999/xlink" width="380" height="475" viewBox="0 0 380 475">
  <defs>
    <clipPath id="clip-path">
      <rect id="Rectangle_642" data-name="Rectangle 642" width="380" height="475" rx="6" transform="translate(24 172)" fill="#379258"/>
    </clipPath>
    <clipPath id="clip-path-2">
      <rect id="Rectangle_190" data-name="Rectangle 190" width="475" height="380" transform="translate(1550.527 55.017)" fill="#fff"/>
    </clipPath>
  </defs>
  <g id="Groupe_1405" data-name="Groupe 1405" transform="translate(-15592 -777)">
    <path id="Tracé_823" data-name="Tracé 823" d="M6,0H374a6,6,0,0,1,6,6V469a6,6,0,0,1-6,6H6a6,6,0,0,1-6-6V6A6,6,0,0,1,6,0Z" transform="translate(15592 777)" fill="#379258"/>
    <g id="Groupe_de_masques_115" data-name="Groupe de masques 115" transform="translate(15568 605)" opacity="0.1" clip-path="url(#clip-path)">
      <g id="Groupe_de_masques_38" data-name="Groupe de masques 38" transform="translate(459.018 -1377.907) rotate(90)" clip-path="url(#clip-path-2)">
        <g id="Groupe_3467" data-name="Groupe 3467" transform="matrix(0.978, 0.208, -0.208, 0.978, 1596.086, -348.057)" opacity="0.3">
          <path id="Tracé_240" data-name="Tracé 240" d="M2.559,1505.4V1357.265c1.965-.052,3.932-.067,5.9-.162,11.246-.557,22.493-1.7,33.739-1.581,21.7.235,43.405,1.094,65.1,1.9a31.037,31.037,0,0,0,15.628-3.231c5.123-2.609,10.253-5.206,15.312-7.983a98.111,98.111,0,0,1,40.387-11.536c7.277-.56,14.533-1.84,21.774-3s14.422-2.933,21.679-3.8a35.235,35.235,0,0,1,23.941,5.417,29.642,29.642,0,0,1,13.227,19.426c3.283,15.11-3.891,28.268-16.766,30.381a50.75,50.75,0,0,1-10.75.317c-5.329-.27-10.643-1.233-15.97-1.306-12.061-.166-19.927,6.592-23.974,20.205a62.651,62.651,0,0,0-1.455,28.71c3.979,23.275,15.037,40.408,32.68,50.934,23.792,14.19,48.408,15.4,73.158,3.778,22.979-10.792,39.649-30.307,51.716-55.7,8.359-17.594,12.776-36.745,15.585-56.552,1.1-7.769,2.572-15.474,4.121-23.136a29.075,29.075,0,0,1,4.962-11.331c3.674-5.073,8.29-6.878,13.76-5.612q1.708.447,3.363,1.059a155.289,155.289,0,0,1,43.874,23.863c4.8,3.636,9.586,7.32,14.477,10.78q23.386,16.536,50.576,17.61a141.916,141.916,0,0,0,33.944-3.269c14.412-2.922,28.761-6.367,43.37-7.659a18.617,18.617,0,0,0,13.1-6.87,71.912,71.912,0,0,0,7.855-11.062c3.526-6.339,6.688-12.983,9.78-19.646,4.05-8.729,7.751-17.687,11.832-26.394,11.432-24.379,26.135-45.431,44.985-62.164,20.508-18.212,43.506-29.46,68.668-34.356a39.661,39.661,0,0,1,11.754-.287c3.253.353,4.067,2.806,2.5,6.277a26.15,26.15,0,0,1-3.244,5.374c-2.542,3.229-5.16,6.4-7.92,9.353-5.368,5.727-10.849,11.3-16.3,16.909-10.47,10.783-20.792,21.751-29.718,34.432a132.371,132.371,0,0,0-18.842,37.167,84.118,84.118,0,0,0-3.457,36.37c2.416,18.18,10.224,32.656,22.416,43.517,20.825,18.552,44.032,22.432,68.7,13.959,18.8-6.456,33.694-20.041,45.958-37.981,8.429-12.331,14.774-26.175,20.607-40.4,3.216-7.842,6.26-15.807,9.845-23.4a155.8,155.8,0,0,1,9.353-16.481A24.388,24.388,0,0,1,853,1291.4c14.025-7.374,28-14.873,42.143-21.893a93.109,93.109,0,0,1,36.828-9.991c17.242-.884,33.219,3.671,47.375,15.78a178.9,178.9,0,0,1,13.87,13.227c12.237,12.985,24.25,26.272,36.486,39.258,5.8,6.157,11.908,11.9,17.879,17.832v68.243a29.422,29.422,0,0,1-3.756-.455,45.34,45.34,0,0,1-22.3-12.985c-5.382-5.668-10.406-11.861-15.307-18.136-5.938-7.6-11.511-15.609-17.372-23.3a124.362,124.362,0,0,0-17.729-19.307c-12.886-11.031-27.3-15.569-43.029-14.471a95.633,95.633,0,0,0-26.273,5.985c-13.583,4.981-26.36,12.275-39.275,19.215a66.049,66.049,0,0,0-19.853,16.557c-2.686,3.264-5.339,6.566-7.989,9.871-4.737,5.91-9.394,11.913-14.2,17.74a139.223,139.223,0,0,1-38.627,32.964c-15.426,8.765-31.633,13.736-48.756,13.413-25.07-.473-47.234-10.648-66.44-29.82-5.515-5.5-10.575-11.657-15.866-17.486-2.3-2.537-4.558-5.159-7.012-7.477-6.142-5.807-10.123-5.544-15.463,1.187-2.628,3.311-4.885,7.037-7.333,10.558-3.559,5.118-6.994,10.364-10.742,15.281-5.126,6.716-11.578,9.942-19.276,9.567-8.816-.429-17.634-.876-26.455-.984-12.184-.15-24.374-.182-36.556.091-12.527.28-25.028,1.663-37.576.425a83.02,83.02,0,0,1-50.715-22.788c-5.7-5.429-10.943-11.573-16.254-17.567-4.217-4.758-8.117-9.92-12.346-14.664a57.73,57.73,0,0,0-19.416-14.37c-4.927-2.231-8.69-.926-11.351,4.458a48.062,48.062,0,0,0-3.6,10.3c-1.828,7.871-3.231,15.882-4.956,23.79-6.424,29.443-17.785,55.729-36.229,76.963-28.408,32.7-61.978,45.58-100.962,35.282-19.086-5.041-35.579-15.789-48.518-33.677A147.263,147.263,0,0,1,167.7,1434.35c-2.572-6.977-4.91-14.086-7.674-20.95a59.218,59.218,0,0,0-5.709-10.861c-3.129-4.65-7.532-6.47-12.458-5.607a41.223,41.223,0,0,0-8.732,2.657c-3.608,1.512-7.1,3.429-10.623,5.219a35.086,35.086,0,0,1-16.607,3.88q-15.324-.184-30.651.151c-13.122.274-26.236.9-39.133,4.2A40.2,40.2,0,0,0,20,1420.592c-6.646,5.462-9.129,13.013-7.376,22.426a51.728,51.728,0,0,0,5.028,14.1,103.9,103.9,0,0,0,14.238,20.941c6.013,6.931,12.286,13.54,18.37,20.386a86.5,86.5,0,0,1,7.233,8.974c3.33,4.938,2.1,8.067-3.2,8.855a7.421,7.421,0,0,1-1.388.128c-4.285-.182-8.6-.061-12.847-.64a142.24,142.24,0,0,1-33.8-9.505,23.344,23.344,0,0,0-3.69-.855Z" transform="translate(-2.559 -820.48)" fill="#eef"/>
          <path id="Tracé_241" data-name="Tracé 241" d="M2.559,1221.3v-29.128c1.852.064,3.7.206,5.557.178,23.1-.349,46.2-.953,69.3-1,11.946-.023,23.916.548,35.831,1.578a82.375,82.375,0,0,0,27.3-2.072,128.309,128.309,0,0,1,33.176-3.924c14.625.241,29.259.054,43.879.5a127.057,127.057,0,0,1,20.05,2.405,49.529,49.529,0,0,1,12.639,4.458c18.551,9.293,28.859,26.078,31.213,49.931,1.937,19.626-5.676,37.988-20.141,47.468a63.176,63.176,0,0,1-12.531,6.089c-4.747,1.78-9.731,2.645-14.509,4.33a43.655,43.655,0,0,0-10.614,4.99c-5.243,3.656-7.053,9.666-6.178,16.775a33.084,33.084,0,0,0,7.3,16.692,42.7,42.7,0,0,0,15.25,12.128c21.842,10.55,43.192,8.583,63.773-4.566,19.07-12.184,31.983-31.207,40.751-54.513,5.515-14.665,8.335-30.211,10.479-45.976,1.191-8.75,2.382-17.508,4.914-25.9a41.371,41.371,0,0,1,7.409-14.892c4.43-5.289,9.7-7.363,15.893-5.828,1.135.281,2.276.532,3.41.823,14.451,3.7,28.247,9.88,42.142,15.709,12.8,5.374,25.545,11,38.54,15.6a94.712,94.712,0,0,0,43.752,4.647,128.573,128.573,0,0,0,31.831-8.6c9.021-3.6,17.911-7.7,27-11.032a39.091,39.091,0,0,0,16.539-11.813c1.985-2.334,3.939-4.714,5.787-7.2,8.865-11.918,17.515-24.077,26.576-35.78,15.507-20.03,32.527-37.976,52.058-52.341a235.339,235.339,0,0,1,46.217-25.96c22.032-9.573,43.845-19.7,64.846-32.262a135.855,135.855,0,0,1,30.331-13.314c6.2-1.883,12.462-3.518,18.912-2.6,7.915,1.13,10.12,5.682,6.814,14.33-1.682,4.4-3.932,8.479-5.856,12.747-2.694,5.974-5.581,11.853-7.884,18.04a42.336,42.336,0,0,0-2.411,11.611c-.6,8.622,2.674,13.2,9.823,14.7,5.167,1.089,10.233.083,15.136-1.611q10.691-3.7,21.183-8.2c15-6.431,30.129-12.141,46.066-14.2a90.363,90.363,0,0,1,31.562.834c13.067,2.917,24.6,9.891,35.094,19.352,16.5,14.869,32.8,30.031,47.8,47.084q6.814,7.742,13.707,15.383c1.683,1.855,3.53,3.5,5.3,5.234v34.121c-4.3-4.409-8.784-8.6-12.883-13.267q-22.444-25.56-46.206-49.345a150.12,150.12,0,0,0-11.418-10.215,62.334,62.334,0,0,0-25.924-12.66,85.562,85.562,0,0,0-32.929-.6c-12.286,2.034-23.941,6.641-35.276,12.472-10.871,5.593-21.61,11.557-32.548,16.959a35.923,35.923,0,0,0-15.083,14.2,91.207,91.207,0,0,0-8.566,19.459c-2.681,8.418-5.185,16.916-7.731,25.393-4.358,14.518-9.321,28.687-16.574,41.556-10.034,17.8-22.844,31.769-39.715,39.663-21.3,9.967-42.286,9.111-62.344-4.618-13.39-9.165-22.408-22.682-25.9-40.908-2.678-13.995-.939-27.562,3.449-40.73a127.625,127.625,0,0,1,20.687-37.707c11.528-14.97,24.656-27.776,38.37-39.7,11.729-10.192,23.794-19.832,35.627-29.859,4.346-3.682,8.567-7.61,12.613-11.751a24.579,24.579,0,0,0,4.464-6.822c1.952-4.245.466-7.211-3.535-7.128a28.372,28.372,0,0,0-7.89,1.3c-6.84,2.159-13.628,4.56-20.414,6.95-15.016,5.286-30.123,10.236-45,16.019-28.775,11.179-53.837,29.637-74.7,55.987a275.9,275.9,0,0,0-26.376,40.739c-4.958,9.212-9.76,18.552-14.964,27.565a126.672,126.672,0,0,1-9.934,14.416,22.052,22.052,0,0,1-14.054,8.387c-4.471.784-8.908,1.882-13.331,3.008-13.15,3.35-26.122,7.658-39.485,9.861a98.691,98.691,0,0,1-48.25-3.507c-11.144-3.739-21.4-9.876-31.539-16.353-12.6-8.049-25.472-15.409-39.058-20.773a157.307,157.307,0,0,0-17.769-5.7c-4.067-1.071-7.785.678-10.982,3.845a23.613,23.613,0,0,0-6.179,10.4c-1.623,5.758-3.08,11.614-4.141,17.548-1.84,10.287-2.968,20.768-5.028,30.986-5.482,27.214-16.152,51.071-33.9,69.718-22.539,23.678-48.61,32.668-78.195,24.86a60.945,60.945,0,0,1-33.82-21.751,58.906,58.906,0,0,1-13.006-40.332c.72-14.366,8-23.728,19.979-25.323,4.022-.536,8.107-.39,12.159-.626a127.462,127.462,0,0,0,14.223-1.024c12.674-2.175,21.619-11.809,23.916-25.8,2.117-12.855-.454-24.511-7.474-34.6a39.3,39.3,0,0,0-21.152-15.14c-10.4-3.334-20.917-2.6-31.467-1.36-9.116,1.073-18.237,2.175-27.379,2.846-14.808,1.086-29.224,4.122-43.061,10.722a133.647,133.647,0,0,1-14.75,6.237,33.111,33.111,0,0,1-10.941,1.9c-9.861-.165-19.714-.954-29.574-1.354a685.31,685.31,0,0,0-80.059.912Zm733.786,62.522a48.221,48.221,0,0,0,22.1-5.489c17.72-9.022,29.5-24.928,36.824-45.873,4.561-13.051,6.483-26.825,7.674-40.793,1.334-15.572,2.755-31.134,4.06-46.71.45-5.374.949-10.767.91-16.147-.044-6.205-2.412-9.133-7.513-9.955a27.474,27.474,0,0,0-6.926-.2c-9.368.9-18.173,4.34-26.668,8.937-16.744,9.057-31.5,21.724-45.346,36a142.223,142.223,0,0,0-21.808,28.43,90.206,90.206,0,0,0-10.5,27.433c-4.921,24.865,4.3,47.66,23.675,58.431a46.654,46.654,0,0,0,23.514,5.937Z" transform="translate(-2.559 -700.325)" fill="#eef"/>
          <path id="Tracé_242" data-name="Tracé 242" d="M1047.573,2218.586v29.128c-2.891.965-5.753,2.079-8.677,2.87-20.729,5.608-41.572,6.848-62.549,2.128-12.368-2.783-24.2-7.69-35.988-12.814q-8.99-3.911-18.162-7.238c-10.746-3.9-21.066-2.638-30.96,3.909-4.565,3.018-9.281,5.735-14.034,8.316a81.3,81.3,0,0,1-57.228,8.008c-22.269-4.724-44.444-10.133-66.577-15.717a146.541,146.541,0,0,0-50.508-4.243,407.282,407.282,0,0,1-68.9.334c-27.584-1.978-55.182-3.219-82.826-3.211a232.884,232.884,0,0,0-68.847,10.875c-10.894,3.359-21.6,7.564-32.438,11.217-16.33,5.5-32.852,7.052-49.6,3.007-4.55-1.1-9.121-2.065-13.666-3.2-7.04-1.749-14.2-3.045-21.072-5.484-21.3-7.562-43.133-10.605-65.212-12.1-10.888-.736-21.773-1.739-32.621-3.071-15.249-1.871-30.487-3.609-45.838-3.5-8.468.063-16.961.256-25.421-.192-20.518-1.1-41.046-2.192-61.524-3.943-16.775-1.433-33.491-3.838-50.238-5.758-10.4-1.191-20.791-2.443-31.2-3.365-17.167-1.52-34.014,2.156-50.914,4.862v-37.45c.685.138,1.38.233,2.056.422,13.777,3.856,27.561,7.677,41.324,11.6a418.6,418.6,0,0,0,85.248,15.205c21.688,1.543,43.4.914,65.109.768,14.62-.1,29.255.075,43.864.736a245.024,245.024,0,0,0,54.511-3.378c12.966-2.325,25.878-5.087,38.841-7.453,12.827-2.341,25.694-2.7,38.444.614,7.593,1.973,15.083,4.5,22.616,6.809,11.928,3.663,24.014,5.118,36.243,3.058,9.3-1.569,18.595-3.327,27.8-5.556a267.706,267.706,0,0,1,52.434-7.949c20.206-.795,40.393-.277,60.582.734,20.653,1.034,41.225,3.2,61.788,5.677,13.62,1.64,27.287,3.012,40.962,3.63,13.214.6,26.468-.2,39.693.142a178.085,178.085,0,0,1,27.4,2.262c14.554,2.657,28.976,6.362,43.441,9.724,10.362,2.406,20.648,5.364,31.062,7.373,13.693,2.644,32.032-2.542,41.845-23.219,1.946-4.1,3.775-8.284,5.8-12.328,2.8-5.586,5.581-11.2,8.653-16.572a37.332,37.332,0,0,1,10.54-11.945c6.508-4.676,13.374-5.559,20.335-1.909a53.794,53.794,0,0,1,9.882,6.9c4.517,3.883,8.777,8.2,13.121,12.365a206.518,206.518,0,0,0,23.933,20.036c24.943,17.562,51.684,25.813,80.682,22.109C1036.4,2221.094,1041.979,2219.673,1047.573,2218.586Z" transform="translate(-2.559 -1457.103)" fill="#eef"/>
          <path id="Tracé_243" data-name="Tracé 243" d="M1047.573,2007.679v33.289c-1.261.165-2.535.241-3.781.512-13.2,2.828-26.472,4.13-39.845,2.121-22.85-3.432-42.794-14.33-59.151-33.842-4.91-5.86-9.091-12.582-13.727-18.781-3.858-5.159-7.7-10.38-11.908-15.112a29.1,29.1,0,0,0-14.36-8.931c-8.7-2.332-16.818-.15-24.543,4.725-8.611,5.434-15.454,13.288-20.794,22.878-3.525,6.331-6.491,13.11-9.645,19.731-2.524,5.3-4.693,10.865-7.481,15.952-8.084,14.75-19.7,20.626-34.154,17.874-12.943-2.464-25.82-5.431-38.7-8.317s-25.765-5.918-38.909-6.541c-11.479-.544-22.964-1.117-34.449-1.2a462.617,462.617,0,0,1-52.455-3.787c-14.89-1.814-29.762-3.951-44.681-5.316q-38.37-3.51-76.865-4.015a212.689,212.689,0,0,0-40.277,2.845c-10.213,1.812-20.4,3.851-30.626,5.532a79.008,79.008,0,0,1-43.319-4.4q-9.887-4.006-19.768-8.036c-13.989-5.708-28.221-6.713-42.519-2.28-11.114,3.444-22.167,7.216-33.057,11.529-26.955,10.676-54.535,16.875-82.941,17.6q-40.379,1.024-80.76,1.871a318.682,318.682,0,0,1-44.162-1.986,331.393,331.393,0,0,1-72.578-17.1c-9.887-3.518-19.7-7.322-29.553-11v-9.155c1.211.445,2.452.8,3.627,1.351C45.426,2024.1,86,2033.584,128.263,2031.7c10.668-.476,21.351-.78,31.995-1.7q16.3-1.407,32.528-3.922c10.126-1.58,20.206-3.29,30.44-3.791,12.164-.6,24.345-1.407,36.446-2.957,18.953-2.419,37-8.932,54.2-18.825,12.915-7.431,24.853-16.72,36.467-26.679,3.956-3.393,8.038-6.583,12.12-9.758a13.565,13.565,0,0,1,10.626-3.039,45.59,45.59,0,0,1,10.571,2.343c6.351,2.623,12.563,5.728,18.715,8.956,6.905,3.618,13.619,7.756,20.524,11.372,9.988,5.229,20.468,8.365,31.4,8.316a249.081,249.081,0,0,0,27.806-1.387,312.11,312.11,0,0,1,58.084-.887q27.287,1.911,54.572,3.886c9.385.672,18.78,1.182,28.15,2.082,13.535,1.3,27.029,3.341,40.579,4.246,19.349,1.292,38.728,2.075,58.1,2.643,18.809.551,37.576,1.51,56.3,3.878a114.04,114.04,0,0,0,27.465.362c7.973-.92,14.464-4.692,19.229-12.485,1.506-2.463,3.095-4.853,4.611-7.307,2.481-4.016,4.88-8.107,7.409-12.079a140.557,140.557,0,0,1,32.033-36.047,80.267,80.267,0,0,1,23.55-13.2c17.129-5.742,32.151-1.365,44.853,13.58a100.826,100.826,0,0,1,8.5,11.538c3.624,5.758,6.835,11.879,10.32,17.76,3.619,6.106,7.08,12.387,11.091,18.108,9.684,13.807,22.142,22.06,36.988,25.283C1018.824,2015.216,1033.279,2012.746,1047.573,2007.679Z" transform="translate(-2.559 -1298.62)" fill="#eef"/>
          <path id="Tracé_244" data-name="Tracé 244" d="M2.559,577.711v-28.3c1.156,0,2.314-.038,3.47-.013,8.7.187,17.4.458,26.107.56,9.4.111,18.805.026,28.208.1a54.431,54.431,0,0,1,18.218,3.109c13.654,4.953,27.32,9.89,40.823,15.4a96.4,96.4,0,0,1,36.546,25.973,269.521,269.521,0,0,1,16.728,21.7c5.1,7.185,9.722,14.855,14.579,22.287,7.409,11.344,16.416,20.343,27.478,26.211a53.6,53.6,0,0,1,19.617,18.168,56.4,56.4,0,0,0,23.022,20.233,150.565,150.565,0,0,0,17.4,7.224,64.253,64.253,0,0,0,12.7,2.135,11,11,0,0,0,4.444-.768c2.9-.925,4.612-3.327,4.716-6.878a53.286,53.286,0,0,0-.553-8.246c-.454-3.557-1.365-7.045-1.66-10.612-.554-6.733,1.708-10.512,7.224-12.145a34.807,34.807,0,0,1,7.571-1.179c8.783-.587,17.355,1.166,25.82,3.73,17,5.15,34.077,9.568,51.693,10.648,16.3,1,32.481.512,48.557-3.016,15.86-3.481,30.034-10.63,40.157-26.51a10.37,10.37,0,0,1,.713-.912,48.315,48.315,0,0,1,11.418-10.8c6.457-4.094,12.792-8.49,19.4-12.189a511.665,511.665,0,0,0,56.221-36.577c5.411-4.038,10.885-8,16.539-11.515a98.8,98.8,0,0,1,14.342-7.413c7.03-2.911,13.984-2.123,20.477,2.418,3.308,2.311,6.5,4.841,9.742,7.27,3.043,2.281,6.033,4.694,9.161,6.808,6.449,4.358,13.39,5.618,20.517,3.249A86.335,86.335,0,0,0,669,591.48c21.347-11.963,42.174-25.1,61.811-40.778,6.658-5.317,13.3-10.667,20.006-15.9,19.2-14.981,39.281-27.982,60.926-37.232a222.53,222.53,0,0,0,34.043-17.919,128.6,128.6,0,0,1,34.649-15.993c14.21-4.075,28.446-8.049,42.762-11.551a113.921,113.921,0,0,0,44.809-21.939c6.457-5.172,12.71-10.705,19.019-16.135,5.651-4.862,11.158-9.98,16.916-14.645a42.935,42.935,0,0,1,9.517-5.961c6.351-2.808,10.614.317,12.04,8.276a33.862,33.862,0,0,1-2.431,19.386,89.861,89.861,0,0,1-7.674,14.794c-4.615,6.935-9.825,13.3-14.7,19.989A78.725,78.725,0,0,0,994.662,465c-3.686,6.887-3.034,12.962,1.813,18.808a31.366,31.366,0,0,0,4.831,4.734,66.308,66.308,0,0,0,7.563,5.118,84.646,84.646,0,0,0,38.715,10.822v35.785c-1.369-.28-2.74-.551-4.1-.843a318.957,318.957,0,0,1-36.709-9.57c-19.488-6.642-38.08-15.968-56.3-26.454q-12.7-7.31-25.558-14.234c-15.505-8.328-31.393-8.847-47.606-3.174-10.982,3.838-21.2,9.739-31.476,15.57q-11.758,6.944-24.19,12.726a309.317,309.317,0,0,0-47.168,25.625c-11.643,7.8-23.118,15.948-34.48,24.31-26.319,19.365-54.014,35.7-81.255,53.04a73.608,73.608,0,0,1-11.888,5.864c-6.219,2.532-12.69,3.9-19.185,1.978a80.26,80.26,0,0,1-12.752-5.381c-5.136-2.559-10.055-5.737-15.208-8.253a30.5,30.5,0,0,0-27.186-.3,106.329,106.329,0,0,0-9.923,5.048,312.146,312.146,0,0,0-33.513,22.947,79.125,79.125,0,0,0-21.7,25.461,58.681,58.681,0,0,1-28.244,26.5c-13.911,6.413-28.438,9.044-43.159,10.492a198.283,198.283,0,0,1-34.1.375,282.869,282.869,0,0,1-39.077-5.073c-9.923-2.15-19.766-4.854-29.662-7.206-3.4-.809-6.838-1.626-10.347-.651-3.863,1.073-5.878,3.639-6.027,8.36a74.389,74.389,0,0,0,.425,8.7c.4,4.547,1.184,9.07,1.289,13.62a43.621,43.621,0,0,1-1.069,10.627c-.885,3.849-3.425,5.969-6.867,5.644a23.974,23.974,0,0,1-6.781-1.586c-4.606-1.883-9.113-4.111-13.665-6.188-14.412-6.575-28.843-13.091-43.232-19.738a76.35,76.35,0,0,1-27.139-21.336,73.8,73.8,0,0,0-18.706-16.441,63.254,63.254,0,0,1-15.564-13.205c-6.426-7.613-12.748-15.365-18.87-23.326-14.6-18.99-31.931-32.882-52.515-40.844-7.948-3.071-15.894-6.154-23.874-9.106a75.09,75.09,0,0,0-24.629-5.041c-12.3-.237-24.609-.194-36.914-.452C19.95,578.544,11.254,578.061,2.559,577.711Z" transform="translate(-2.559 -265.629)" fill="#eef"/>
          <path id="Tracé_245" data-name="Tracé 245" d="M2.559,147.366c2.605-1.159,5.279-2.134,7.806-3.511,9.746-5.32,19.333-4.953,28.825.837,2.686,1.638,5.425,3.186,8.01,5.019a99.237,99.237,0,0,0,32.283,15.063c4.866,1.288,9.672,2.916,14.479,4.5,15.665,5.16,29.568,14.44,42.507,25.988,11.742,10.481,22.469,22.35,33.049,34.418q7.683,8.758,15.216,17.7a220.241,220.241,0,0,1,25.632,37.7c3.338,6.171,6.58,12.425,10.1,18.441a126.3,126.3,0,0,0,8.218,12.349c5.709,7.549,12.966,10.265,21.385,9.233a89.134,89.134,0,0,0,19.34-5.046,113.722,113.722,0,0,1,15.5-4.606c9-1.853,17.852.063,26.478,2.982,11.265,3.813,22.442,8.012,33.584,12.319a158.664,158.664,0,0,0,43.282,9.886,219.524,219.524,0,0,0,37.564.482c40.7-3.311,78.306-17.339,111.35-46.689,14.995-13.318,27.71-29.47,39.611-46.572,8.01-11.515,15.929-23.122,24.08-34.5a110.539,110.539,0,0,1,17.917-20.255,65.77,65.77,0,0,1,11.36-7.986c9.364-4.98,18.571-3.956,27.256,2.515,2.749,2.047,5.239,4.584,7.909,6.793,3.62,2.994,7.164,6.168,10.982,8.766,7.5,5.106,15.516,5.837,23.47,1.931a83.819,83.819,0,0,0,14.432-9.053,134.442,134.442,0,0,0,24.144-25.015c9.934-13.07,12.629-28.625,10.055-45.688A92.749,92.749,0,0,0,740.1,99.021c-4.383-9.134-9.181-17.983-13.649-27.061-3.7-7.519-7.317-15.109-10.717-22.827a66.117,66.117,0,0,1-5.028-18.07c-1.024-7.779.22-14.83,4.555-21.02a82.5,82.5,0,0,0,4.181-7.485h41.8a43.492,43.492,0,0,0,3.244,3.347c3.983,3.333,8.24,6.251,11.994,9.912a41.973,41.973,0,0,1,13.018,26.148c.376,3.424.41,6.909.529,10.364.325,9.133.4,18.272,1.86,27.311,3.511,21.672,12.409,38.926,28.6,50.242,11.359,7.94,23.827,10.611,36.79,10.352,16.29-.326,31.925-4.588,47.134-11.492,24.1-10.941,45.135-26.948,61.414-51.3a165.288,165.288,0,0,1,12.99-16.2A85.341,85.341,0,0,1,996.67,45.478a30.435,30.435,0,0,1,22.839-4.9,113.082,113.082,0,0,1,28.049,9.41V63.312c-2.567-1.279-5.079-2.756-7.712-3.788-4.291-1.684-8.617-3.293-13.007-4.545-7.681-2.19-14.962-.493-21.887,3.865a81.826,81.826,0,0,0-17.786,15.908c-5.689,6.537-11.177,13.32-16.745,20A141.3,141.3,0,0,1,944.3,119.5a189,189,0,0,1-58.785,28.513c-16.926,4.793-34.084,6.935-51.45,3.522-15.622-3.071-29.415-10.756-41.272-23.35A52.867,52.867,0,0,1,778.576,99.33c-1.414-9.258-2.452-18.61-3.369-27.96-.905-9.22-1.031-18.569-2.241-27.721-2.417-18.262-11.5-29.837-26.339-34.837A21.785,21.785,0,0,0,726.712,11.2c-6.269,4.166-9.291,10.543-8.9,19.192a51.946,51.946,0,0,0,4.145,17.05A134.276,134.276,0,0,0,734.228,70.6c5.254,8.117,10.824,15.945,16.009,24.12,3.5,5.512,6.748,11.277,9.782,17.169a42.377,42.377,0,0,1,4.782,17.646c.885,20.688-4.017,39.068-16.512,53.708a344.3,344.3,0,0,1-24.156,25.112,226.416,226.416,0,0,1-19.158,15.835,47.421,47.421,0,0,1-15.028,7.549,18.329,18.329,0,0,1-16.524-2.228,102.024,102.024,0,0,1-10.333-8.414c-3.058-2.747-5.855-5.9-8.851-8.752a24.194,24.194,0,0,0-9.87-5.943c-5.557-1.62-10.835-.368-15.974,2.185A56.832,56.832,0,0,0,611.605,221.8c-7.213,8.032-14.221,16.339-21.15,24.722-7.748,9.375-15.168,19.141-22.989,28.425C552.74,292.425,536.712,307.9,518.1,319.228c-31.2,18.976-64.487,28.559-99.266,30.963a307.974,307.974,0,0,1-34.453.214,223.844,223.844,0,0,1-27.688-3.177c-12.053-2.047-23.989-5.065-36.042-7.115a88.934,88.934,0,0,0-41.81,2.592c-8.529,2.646-17.081,5.273-25.726,7.269-11.978,2.765-22.319-1.166-30.366-12.441a81.507,81.507,0,0,1-6.323-9.909c-4.5-8.731-8.66-17.713-13.118-26.476-4.7-9.235-9.185-18.68-14.468-27.423-12.33-20.413-27.819-37.15-44.371-52.55a115.747,115.747,0,0,0-41.63-25.313c-4.573-1.563-9.143-3.174-13.775-4.445a106.085,106.085,0,0,1-36.192-17.824c-2.842-2.144-5.853-3.966-8.791-5.928-9.73-6.5-19.714-7.367-30.151-2.416-3.632,1.722-7.569,2.524-11.368,3.746Z" transform="translate(-2.559 -2.559)" fill="#eef"/>
          <path id="Tracé_246" data-name="Tracé 246" d="M1047.572,1726.927c-3.986.9-7.947,2.047-11.963,2.619-9.694,1.379-18.362-1.895-26.12-8.864a89,89,0,0,1-14.628-17.732c-5.861-8.956-11.426-18.2-17.41-27.038-5.179-7.646-10.523-15.176-16.228-22.263-8.613-10.689-19.1-17.536-31.537-19.605-9.69-1.612-19.215-.256-28.628,2.665a135.236,135.236,0,0,0-27.973,12.59c-8.236,4.807-16.426,9.745-24.477,14.97a106.649,106.649,0,0,0-11.319,8.918c-4.14,3.57-8.164,7.34-12.142,11.166-18.288,17.589-39.358,27.982-62,34.336A112.658,112.658,0,0,1,722,1722.52a144.465,144.465,0,0,1-41.7-10.924c-4.607-1.9-9.185-3.9-13.8-5.758q-3.6-1.466-7.344-2.571a17.37,17.37,0,0,0-15.774,2.73,85.784,85.784,0,0,0-8.6,7.052,33.834,33.834,0,0,1-23.2,9.674,394.754,394.754,0,0,1-50.435-2.123,448.975,448.975,0,0,0-52.184-2.106c-9.274.182-18.579.063-27.831-.64-17.827-1.351-33.915-8.625-48.231-21.485a204.265,204.265,0,0,1-23.083-25.262c-4.551-5.736-9.074-11.515-13.777-17.069-4.415-5.215-6.847-4.827-10,1.639a132.238,132.238,0,0,0-5.2,12.685c-6.115,16.824-13,33.128-21.979,48.086-15.434,25.717-34.867,45.523-59.558,57.54a100.242,100.242,0,0,1-50.4,10.146,110.2,110.2,0,0,1-37.708-9.156c-14.539-6.308-27.139-16.224-38.208-29.007-4.841-5.59-9.473-11.441-14.367-16.962a103.619,103.619,0,0,0-9.607-9.572c-4.177-3.62-9.064-5.329-14.172-4.487q-19.819,3.268-39.56,7.22a40.734,40.734,0,0,0-10.2,4.094,24.807,24.807,0,0,0-6.126,4.663,14.163,14.163,0,0,0-3.44,14.283,37.929,37.929,0,0,0,3.98,9.619,138.1,138.1,0,0,0,8.775,12.345c3.294,4.289,6.854,8.288,10.141,12.583a27.052,27.052,0,0,1,3.51,6.153c1.485,3.644.662,6.762-2.5,8.189a38.524,38.524,0,0,1-9.754,2.743c-8.683,1.383-17.4.54-26.074-.256a160.792,160.792,0,0,1-42.975-9.744c-6.072-2.324-12.051-4.99-18.073-7.5v-4.161c.89.3,1.8.532,2.667.912a163.223,163.223,0,0,0,35.951,11.221,107.381,107.381,0,0,0,26,2.088,23.115,23.115,0,0,0,5.16-.823c5.23-1.542,6.181-4.692,2.854-9.86a59.708,59.708,0,0,0-5.689-7.281c-4.563-5.132-9.426-9.9-13.809-15.241-4.62-5.63-8.973-11.593-13.159-17.688a37.861,37.861,0,0,1-5.515-13.342c-1.862-8.466.217-15.448,6.371-20.216A30.108,30.108,0,0,1,51.5,1700.3a100.51,100.51,0,0,1,14.887-4.148,223.715,223.715,0,0,1,38.168-3.355,56.024,56.024,0,0,0,22.859-4.636,46,46,0,0,1,7.027-2.374c6.533-1.791,12.274.092,16.8,6.025a103.836,103.836,0,0,1,7.269,11.122c3.552,6.165,6.8,12.577,10.309,18.78,6.334,11.2,13.469,21.645,22.446,29.948,24.817,22.952,53.134,30.106,83.718,24.694,24.811-4.385,45.735-18.506,63.453-39.461,16.131-19.079,27.388-41.846,34.7-67.41,2.55-8.908,4.524-18.048,6.977-27a53.624,53.624,0,0,1,3.969-10.554c2.249-4.309,5.311-5.182,8.986-2.559a62.055,62.055,0,0,1,9.813,8.522c3.846,4.2,7.235,8.99,10.849,13.493,5.139,6.4,10.111,13.022,15.493,19.12,12.923,14.637,28.008,24.53,45.632,28.532a133.232,133.232,0,0,0,37.1,2.485,438.837,438.837,0,0,1,51.511.7c12.511.777,25.045,1.084,37.576,1.5,5.941.2,11.171-2.3,15.693-6.8,2.491-2.484,4.8-5.224,7.187-7.86,2.469-2.73,4.87-5.553,7.409-8.189,5.86-6.109,12.4-7.293,19.382-3.149,3.939,2.339,7.688,5.132,11.511,7.742,7.048,4.809,13.866,10.188,21.169,14.35,22.871,13.033,46.878,17.259,71.867,11.339q36.456-8.636,64.552-37.872c7-7.279,13.76-14.9,20.6-22.408a73.925,73.925,0,0,1,19.813-15.993c4.348-2.3,8.572-4.932,12.889-7.32,12.348-6.827,24.95-12.8,38.37-15.947,10.245-2.4,20.5-2.917,30.758-.1,12.143,3.334,22.174,11.039,30.952,21.345,7.31,8.583,13.518,18.277,19.846,27.86,3.952,5.987,7.939,11.954,12.079,17.749a70.665,70.665,0,0,0,14.512,15.444,35.867,35.867,0,0,0,27.952,7.221Z" transform="translate(-2.559 -1086.952)" fill="#eef"/>
          <path id="Tracé_247" data-name="Tracé 247" d="M433.728,2.559c2.032,1.96,4.075,3.9,6.093,5.886a38.9,38.9,0,0,1,3.071,3.238c1.9,2.354,1.791,3.881-.64,5.5a41.242,41.242,0,0,1-6.781,3.634c-10.717,4.536-21.422,9.117-32.21,13.382-17.843,7.051-35.771,13.781-53.609,20.855a142.8,142.8,0,0,0-13.422,6.653,7.2,7.2,0,0,0-3.943,4.234,8.767,8.767,0,0,0,2.353,1.45,31.824,31.824,0,0,0,6.344.861c23.912-.006,47.828.178,71.734-.256,14.586-.267,29.086-2.654,43.54-5.109,12.667-2.152,25.3-4.67,37.987-6.57a37.816,37.816,0,0,1,12.709.461c6.277,1.226,8.849,6.385,7.058,13.915a81.315,81.315,0,0,1-4.548,12.9c-1.928,4.533-4.357,8.735-6.369,13.218-4.377,9.753-3.517,14.556,3.678,21.382,2.943,2.787,6,5.38,8.9,8.214,8.725,8.508,13.051,19.87,13.807,33.394,1.107,19.638-3.385,37.579-11.308,54.323a123.13,123.13,0,0,1-43.4,50.334,111.864,111.864,0,0,1-49.171,18.8c-31.568,3.966-61.743-2.175-90.127-19.91-14.05-8.78-26.2-20.762-36.608-35.467-10.875-15.354-17.536-33.017-20.065-53.13-.413-3.284-.96-6.544-1.507-9.8-1.572-9.34-6.118-15.322-13.6-17.558-4.678-1.4-9.482-2.133-14.194-3.378a48.83,48.83,0,0,1-9.38-3.159c-5.614-2.787-8.03-8-7.591-15.457.128-2.206.481-4.392.752-6.584.187-1.507.491-3,.606-4.511.3-3.925-.907-5.578-4.094-4.95a34.572,34.572,0,0,0-8.091,2.724c-9.1,4.321-18.117,8.949-27.222,13.285-4.391,2.091-8.869,3.938-13.377,5.618-11.2,4.175-21.458,1.611-30.212-7.865a255.063,255.063,0,0,1-16.476-20.182C126.1,91.837,118.206,80.281,109.9,69.179a178.766,178.766,0,0,0-25.9-28.4,78.267,78.267,0,0,0-45.24-19.261A114.406,114.406,0,0,0,5.232,23.244a16.523,16.523,0,0,1-2.673.12V17.539c.768-.154,1.551-.276,2.318-.466a97.9,97.9,0,0,1,59.828,3.8C77.526,25.8,88.868,34.237,99.25,44.543c11.459,11.373,22.59,23.248,33.881,34.878,6.556,6.753,13.24,13.3,20.689,18.532a47.3,47.3,0,0,0,16.583,7.824c10.437,2.379,20.343-.024,29.832-5.374,5.5-3.1,10.9-6.532,16.229-10.092A233.778,233.778,0,0,1,265,64.821c15.354-5.685,30.707-11.461,46.231-16.405,25.515-8.127,51.168-15.585,76.751-23.387,6.1-1.859,12.161-3.874,18.2-6,2.083-.736,4.392-1.273,5.953-4.291a27.83,27.83,0,0,0-2.8-3.327c-2.663-2.3-5.44-4.414-8.13-6.676a16.655,16.655,0,0,1-1.839-2.171ZM476.95,74.271c-5.4.727-10.087,1.34-14.77,1.988-14.492,2.009-28.959,4.377-43.483,5.958-16.431,1.791-32.913,2.844-49.369,4.279a267.318,267.318,0,0,0-45.316,7.677c-12.088,3.2-24.01,7.156-35.241,13.677a50.963,50.963,0,0,0-9.766,7.27c-5.793,5.581-5.686,10.437-.074,16.207,1.983,2.039,4.056,3.954,5.989,6.062a19.72,19.72,0,0,1,4.9,16.029c-.352,3.434-.8,6.858-1.305,10.263a89.35,89.35,0,0,0-.582,24.4,81.308,81.308,0,0,0,10.433,30.339,112.269,112.269,0,0,0,43.352,43.614c27.737,15.508,56.831,20.7,87.042,15.319,22.234-3.966,42.3-14.352,59.986-31.528a115.663,115.663,0,0,0,29.526-46.18c4.339-12.676,6.8-25.811,5.088-39.709-1.114-9.075-3.992-17.145-9.842-22.98a57.765,57.765,0,0,0-10.255-7.843c-3.582-2.253-7.475-3.763-11.167-5.775a51.2,51.2,0,0,1-7.787-4.862c-4.334-3.488-5.143-7.58-2.72-13.2,1.366-3.169,3.187-6.034,4.67-9.132a73.233,73.233,0,0,0,4.293-9.852c1.877-6.061-.064-10.092-5.253-11.177a69.619,69.619,0,0,0-8.35-.842Z" transform="translate(-2.559 -2.559)" fill="#eef"/>
          <path id="Tracé_248" data-name="Tracé 248" d="M1047.573,1889.227c-4.151,1.24-8.277,2.618-12.458,3.689a53.548,53.548,0,0,1-21.09,1.609c-10.65-1.535-19.743-6.817-27.491-15.577a115.494,115.494,0,0,1-13.24-19.246c-4-6.976-7.729-14.2-12.011-20.917a194.447,194.447,0,0,0-13.74-19.285c-7.919-9.6-17.448-16.035-28.777-18.081a49.909,49.909,0,0,0-25.473,2.519,99.007,99.007,0,0,0-26.675,14.074c-9.856,7.293-19.422,15.155-29.023,22.93-4.416,3.583-8.6,7.565-12.924,11.3-2.727,2.354-5.521,4.606-8.3,6.871a34.926,34.926,0,0,1-21.527,8.411c-24.431.693-48.537,5.049-72.656,9.27-8.265,1.446-16.5,3.4-24.815,4.1a180.774,180.774,0,0,1-28.514.481c-26.539-1.968-53.109-2.706-79.666-3.966-14.722-.7-29.416-2.265-44.116-3.542a357.8,357.8,0,0,0-55.322-.816,141.431,141.431,0,0,1-29.9-.64,75.522,75.522,0,0,1-32.467-12.961c-8.13-5.63-16.009-11.771-24.108-17.465-4.9-3.442-10-6.433-14.984-9.7-4.014-2.634-7.634-1.782-10.884,1.722-3.271,3.527-6.446,7.184-9.6,10.856-6.983,8.123-13.668,16.643-20.939,24.378-20.135,21.414-43.237,36.181-69.745,42.9a138.042,138.042,0,0,1-48.478,3.163c-11.208-1.159-22.381-2.8-33.577-4.142-2.768-.333-5.557-.371-8.345-.5a21.2,21.2,0,0,0-15.1,5.083c-7.806,6.451-16.793,9.325-26.071,10.808-17.769,2.838-35.651,3.118-53.519,2.349-29.738-1.28-58.273-9.408-85.841-22.625a30.636,30.636,0,0,0-3.632-1.235v-3.327a218.539,218.539,0,0,0,53.63,18.735,206.608,206.608,0,0,0,72.8,1.115,31.852,31.852,0,0,0,9.883-3.782c4.967-2.678,7.3-7.513,6.65-14.12-.3-3.026-.783-6.026-1.106-9.051-1.089-10.186,2.667-14.64,11.062-12.361a73.2,73.2,0,0,1,14.1,5.818,231.61,231.61,0,0,0,31.27,13.973,149.674,149.674,0,0,0,47,8.542c35.4.3,66.328-14,93.116-41.439,10.982-11.249,20.336-24.294,29.189-37.891,3.349-5.143,6.712-10.275,10.188-15.3a38.671,38.671,0,0,1,4.491-5.19c2.106-2.117,4.419-2.3,6.729-.384,4.1,3.4,8.224,6.752,12.265,10.246,7.145,6.179,14.127,12.633,21.373,18.633,9.509,7.872,19.768,13.946,31.122,17.137a102.121,102.121,0,0,0,26.942,3.494c6.265.051,12.534-.246,18.8-.5,19.766-.812,39.428,1.139,59.112,2.835,14.119,1.218,28.264,2.194,42.412,2.638,14.5.455,29.019.2,43.53.128,10.372-.05,20.585-1.981,30.734-4.328a126.588,126.588,0,0,1,27.348-3.015c10.212-.107,20.431-.128,30.631-.64,16.754-.839,33.169-4.606,49.494-8.963,1.7-.453,3.387-.975,5.1-1.347a83.408,83.408,0,0,0,30.407-13.9c9.491-6.7,18.92-13.539,28.353-20.343,10.44-7.533,21.037-14.723,32.339-20.274,9.938-4.879,20.143-8.468,31-8.641,10.881-.173,20.837,3.454,29.956,10.483a79.98,79.98,0,0,1,17.313,18.533c5.478,8.068,10.558,16.522,15.787,24.828,4.6,7.31,9.121,14.693,13.781,21.948a49.912,49.912,0,0,0,4.569,5.7c11.72,13.447,25.64,17.059,41.216,12.962,3.394-.9,6.72-2.159,10.083-3.219.766-.242,1.561-.347,2.343-.512Z" transform="translate(-2.559 -1204.304)" fill="#eef"/>
          <path id="Tracé_249" data-name="Tracé 249" d="M2.559,311.21c7.3.407,14.226-2.293,21.3-3.675A37.638,37.638,0,0,1,51,311.9c2.814,1.643,5.671,3.2,8.4,5.03a123.036,123.036,0,0,0,34.276,15.932c5.18,1.511,10.287,3.391,15.393,5.246,19.5,7.075,36.04,20.072,51.071,36.2,15.835,16.98,28.108,37.15,38.314,59.311,4.416,9.588,9.129,19,13.951,28.3a61.483,61.483,0,0,0,11.76,16.343c9.416,8.987,20.1,12.539,31.961,9.641,7.036-1.716,13.947-4.166,20.9-6.309,14.353-4.421,28.872-4.784,43.53-2.787,22.493,3.071,45.018,5.63,67.712,4.012,12.621-.9,25.295-1.162,37.854-2.743,34.427-4.335,67.542-14.468,98.306-34,15.165-9.627,28.641-22.135,41.218-35.986,11.691-12.875,22.993-26.255,34.665-39.152a174.436,174.436,0,0,1,16.169-15.762,51.919,51.919,0,0,1,12.293-7.612c7.363-3.327,14.422-1.932,20.675,3.924,3.1,2.906,5.954,6.184,9.031,9.134,3.162,3.034,6.34,6.077,9.715,8.75,6.1,4.833,12.765,5.818,19.615,2.677a78.12,78.12,0,0,0,13.286-7.177,223.857,223.857,0,0,0,20.537-16.366c10.692-9.767,21.015-20.109,31.471-30.243a81.67,81.67,0,0,0,16.208-22.646c1.72-3.455,3.4-6.948,5.235-10.312a61.92,61.92,0,0,1,4.373-6.978c3.062-4.165,7-5.955,11.581-4.9a106.406,106.406,0,0,1,11.135,3.277c7.905,2.756,15.763,5.639,23.932,7.212a111.407,111.407,0,0,0,31.943,1.171c29.693-2.865,57.393-13.9,83.717-30.172,13.71-8.475,25.807-19.629,36.888-32.432,5.672-6.553,11.326-13.162,17.343-19.243a96.852,96.852,0,0,1,13.4-11.12,23.7,23.7,0,0,1,23.5-2.815c5.15,2.065,10.144,4.683,15.209,7.054v10.819c-3.959-2.293-7.842-4.8-11.893-6.831-7.751-3.879-15.407-3.153-22.864,1.361a81.233,81.233,0,0,0-16.274,13.464c-6.739,7.013-13.3,14.275-20.073,21.239-17.927,18.414-38.5,31.169-60.658,40.687-23.08,9.911-46.778,16.3-71.246,17.965-10.982.747-22.039.037-33.061-.038-2.088-.014-4.174-.224-6.261-.221a28.032,28.032,0,0,0-22.637,10.886c-10.43,12.782-22.455,23.186-34.383,33.778-9.873,8.767-19.545,17.86-29.349,26.741a158.476,158.476,0,0,1-26.744,20.185,66.128,66.128,0,0,1-10.332,4.872,17.953,17.953,0,0,1-18.333-3.138c-4.116-3.327-7.9-7.26-11.765-11.01-2.7-2.619-5.213-5.527-7.969-8.061a16.879,16.879,0,0,0-17.8-3.81,39.986,39.986,0,0,0-14.543,8.727c-7.992,7.358-15.811,14.99-23.551,22.716-10.156,10.128-20.047,20.638-30.275,30.661-22.515,22.064-48.281,36.543-76.14,46.123a382.808,382.808,0,0,1-59.854,15.116c-15.5,2.664-31.005,5.288-46.441,8.374a94.672,94.672,0,0,1-37.738-.543c-8.684-1.752-17.408-3.364-26.167-4.4-13.2-1.56-26.15.55-38.854,5.094-5.1,1.824-10.278,3.4-15.48,4.786-4.837,1.287-9.7.627-14.493-.672-12.094-3.273-22.246-10.408-29.777-22.24-4.135-6.5-7.884-13.368-11.5-20.3-5.028-9.65-9.629-19.61-14.644-29.269a181.627,181.627,0,0,0-28.432-40.769,126.8,126.8,0,0,0-54.865-34.732A200.325,200.325,0,0,1,63.289,336.74a47.027,47.027,0,0,0-28.446-6.214c-4.4.4-8.785.962-13.187,1.267-6.364.44-12.736.711-19.105,1.056Z" transform="translate(-2.559 -127.288)" fill="#eef"/>
          <path id="Tracé_250" data-name="Tracé 250" d="M2.559,1023.662c25.4,2.062,50.823.434,76.234.572,20.882.113,40.673,5.732,59.944,14.842,11,5.2,22.078,10.161,33.133,15.2a301.422,301.422,0,0,0,59.309,19.358,119.078,119.078,0,0,1,29.918,10.726c15.059,7.974,27.089,20.144,35.951,36.773a277.129,277.129,0,0,1,16.195,38.145,101.374,101.374,0,0,0,4.009,10.136c2.5,5.2,5.557,5.7,8.836,1.235a41.917,41.917,0,0,0,5.3-9.68c2.79-7.3,5.3-14.766,7.661-22.284,3.91-12.463,7.7-24.987,13.4-36.488a75.858,75.858,0,0,1,6.88-11.438,14.018,14.018,0,0,1,14.173-5.85c15.687,2.211,31.093,6.222,46.553,9.938,13.538,3.254,27.134,6.171,40.952,6.963,23.4,1.344,46.406-1.3,68.389-11.633a204.013,204.013,0,0,0,22.008-12.4,296.63,296.63,0,0,1,32.68-18.478,138.678,138.678,0,0,0,19.86-11.972c12.437-8.626,24.846-17.36,36.946-26.643a463.978,463.978,0,0,1,72.988-46.515c15.832-8,30.9-17.833,46.053-27.489,20.6-13.136,41.906-24.484,64.4-32.186,10.677-3.655,21.646-6.13,32.523-8.908,7.706-1.967,15.45-3.792,23.235-5.246a67.029,67.029,0,0,1,42.046,5.592,205.719,205.719,0,0,1,23.989,13.223c17.4,11.387,34.607,23.2,51.759,35.111a348.717,348.717,0,0,1,40.236,33.522c3.078,2.912,6.294,5.615,9.447,8.415v19.974c-1.3-1.111-2.646-2.142-3.886-3.346-7.638-7.462-15.04-15.3-22.93-22.356-8.165-7.3-16.641-14.153-25.263-20.666-12.653-9.556-25.578-18.594-38.349-27.932-11.99-8.767-24.156-17.109-37.2-23.488-12.641-6.181-25.746-9.515-39.407-8.444-8.785.692-17.53,2.19-26.281,3.446-29.817,4.279-57.365,17.049-83.733,33.381q-34.8,21.551-70.748,40c-19.053,9.737-36.847,22.251-53.928,36.228q-24.276,19.862-48.557,39.722a131.549,131.549,0,0,1-24.345,16,249.6,249.6,0,0,0-21.48,12.788c-13.621,8.64-27.8,15.3-43.088,18.309a143.393,143.393,0,0,1-39.544,2.193c-14.172-1.152-28.05-4.327-41.873-8.013q-20.538-5.476-41.111-10.778a86.783,86.783,0,0,0-9.963-1.873c-6.257-.846-11.523,1.825-15.433,7.54a89.413,89.413,0,0,0-7.35,13.075c-5.184,11.272-7.834,23.67-10.505,36.013-2.583,11.943-5.058,23.926-9.172,35.293a93.534,93.534,0,0,1-12.278,24.044,40.11,40.11,0,0,1-10.634,10.611,19.847,19.847,0,0,1-6.528,2.643c-2.736.534-4.485-1.363-4.641-4.682a28.8,28.8,0,0,1,.445-6.181c1.2-6.919,2.669-13.775,3.767-20.716a101.955,101.955,0,0,0-3.5-45.412c-7.292-24.621-19.955-43.6-40.149-54.7a85.354,85.354,0,0,0-22.492-8.573c-10.141-2.272-20.4-3.824-30.487-6.4q-23.98-6.12-47.774-13.259c-11.353-3.419-22.5-7.8-33.8-11.5a124.248,124.248,0,0,0-38.542-6.176c-16.6-.036-33.2.475-49.8.49-10.79.01-21.58-.443-32.371-.683-.693-.015-1.389.019-2.084.031Z" transform="translate(-2.559 -607.551)" fill="#eef"/>
          <path id="Tracé_251" data-name="Tracé 251" d="M2.559,810.3c9.743.345,19.484.81,29.23,1.007,11.721.238,23.446.162,35.169.384a86.921,86.921,0,0,1,29.373,6.235c6.408,2.448,12.781,5.035,19.133,7.677,17.7,7.376,33.21,18.981,46.786,34.4,5.382,6.115,10.753,12.283,16.486,17.9a147.044,147.044,0,0,0,15.324,12.934,129.941,129.941,0,0,1,17.332,14.595A101.455,101.455,0,0,0,244.88,928.72c10.669,4.669,21.254,9.624,31.815,14.633a160.933,160.933,0,0,1,26.32,16.042,66.027,66.027,0,0,0,9.491,6.084c6.541,3.258,11.422.614,13.752-7.4a42.946,42.946,0,0,0,1.588-9.739c.246-4.972.016-9.98.015-14.97,0-2.911-.118-5.839.11-8.727.484-6.141,3.25-9.259,8.432-9.375a27.018,27.018,0,0,1,7.248.88A357.663,357.663,0,0,0,408.1,926.389c23.948,1.639,47.815.829,71.252-6.28a97.388,97.388,0,0,0,20.6-8.845A70.43,70.43,0,0,0,523.674,888.6c2.658-4.03,5.225-8.149,7.962-12.1A74.135,74.135,0,0,1,562.973,850.4c11.572-5.146,23.253-4.331,34.93-.568,4.591,1.479,9.129,3.177,13.685,4.836a38.375,38.375,0,0,0,31.684-1.654,242.994,242.994,0,0,0,21.644-12.364c33.607-21.639,67.247-43.182,100.236-66.163a347.09,347.09,0,0,1,61.788-34.3c6.955-2.982,13.568-7.165,20.211-11.108,7.806-4.627,15.612-9.14,23.948-12.306a61.669,61.669,0,0,1,45.193-.087c11.531,4.363,22.553,10.22,33.6,16.018,16.142,8.473,32.134,17.439,48.971,23.825,12.157,4.606,24.485,8.572,36.732,12.848,4,1.4,7.985,2.867,11.977,4.3v14.153c-13.87-7.523-28.677-11.813-43-17.749C986,762.389,968.358,752.153,950.5,742.5c-12.585-6.8-25.328-13.1-38.747-17.283-16.586-5.17-32.68-3.525-48.293,4.714-5.193,2.741-10.249,5.885-15.249,9.106a144.206,144.206,0,0,1-22.269,11.711c-22.717,9.565-44.366,22.007-65.354,36q-50.156,33.444-101,65.35c-6.061,3.787-12.266,7.251-18.473,10.69a49.559,49.559,0,0,1-35.327,5.422,65.7,65.7,0,0,0-28.743.225,59.522,59.522,0,0,0-27.948,15.13c-4.176,3.966-8.273,8.082-12.158,12.447-17.719,19.907-39.081,30.353-62.761,34.956-20.165,3.92-40.439,4.166-60.752,2.51a529.654,529.654,0,0,1-60.079-8.749,45.718,45.718,0,0,0-7.236-1.093c-6.258-.216-9.543,2.975-10.489,10.431-.677,5.334-.759,10.773-1.392,16.121a85.43,85.43,0,0,1-2.351,13.367,32.567,32.567,0,0,1-4.5,9.248c-3.054,4.45-7.159,5.391-11.643,3.277a26.307,26.307,0,0,1-4.33-2.629,43.067,43.067,0,0,1-4.85-4.041c-14.783-14.637-31.844-24.182-49.748-31.859-7.093-3.044-14.223-5.966-21.3-9.084a111.344,111.344,0,0,1-26.61-17.034c-8.062-6.773-16.392-13.088-24.516-19.755-4.97-4.079-9.827-8.363-14.637-12.709-3.238-2.925-6.376-6.021-9.436-9.212-21.49-22.391-47.053-34.554-74.372-42.247-9.211-2.593-18.656-2.62-28.05-2.747-14.741-.2-29.482-.134-44.223-.306-3.7-.043-7.409-.559-11.114-.857Z" transform="translate(-2.559 -481.57)" fill="#eef"/>
          <path id="Tracé_252" data-name="Tracé 252" d="M1047.573,320.2a74.774,74.774,0,0,0-9.923-14.842c-6.483-7.35-13.78-9.032-21.722-4.247a118.921,118.921,0,0,0-13.936,10.146c-4.39,3.612-8.548,7.647-12.68,11.683-24.2,23.634-51.377,40.059-81.8,48.875-14.309,4.149-28.519,8.791-42.785,13.159a191.588,191.588,0,0,0-31.213,12.879q-11.192,5.733-22.551,11a300.016,300.016,0,0,0-66.927,43.137c-5.976,5.032-11.908,10.147-17.848,15.237a289.373,289.373,0,0,1-44.648,31.39c-6.39,3.657-12.93,6.832-19.991,8.283a20.442,20.442,0,0,1-16.756-3.594c-3.464-2.505-6.705-5.461-9.991-8.3-2.911-2.522-5.71-5.23-8.628-7.745-5.995-5.168-12.6-6.309-19.505-3.373a70.328,70.328,0,0,0-12.367,6.567c-6.43,4.417-12.637,9.313-18.841,14.184-7.371,5.787-14.607,11.817-21.963,17.64a263.056,263.056,0,0,1-61.763,36.035c-9.075,3.829-18.048,8.009-27.008,12.211a76.829,76.829,0,0,0-21.369,14.637c-11.7,11.453-25.4,16.2-40.111,18.028-21.421,2.66-42.352-.242-63.048-7.019a182.715,182.715,0,0,0-21.434-5.388c-11.3-2.236-22.448-.583-33.42,2.958a44.907,44.907,0,0,0-8.181,3.424c-4.6,2.574-7.49,6.883-8.083,13.1-.026.275-.074.548-.115.82-.89,5.97-2.887,7.448-7.446,4.829a31.249,31.249,0,0,1-7.458-6.013,80.891,80.891,0,0,0-24.98-18.584c-2.685-1.3-5.284-2.851-7.908-4.326a69.4,69.4,0,0,1-25.34-24.758c-3.636-5.925-7.173-11.939-10.738-17.925-3.632-6.1-7.2-12.258-10.876-18.319q-23.263-38.329-61.092-52.505c-12.389-4.67-24.754-9.435-37.131-14.152a65.012,65.012,0,0,0-21.928-4.167c-4.293-.093-8.591-.082-12.886-.018-12.879.192-25.758,1.162-38.634-.128V440.037a42.115,42.115,0,0,0,5.861.728c10.328-.119,20.655-.371,30.981-.573,8.009-.157,16.037-.537,23.948,1.421a85.469,85.469,0,0,1,10.065,3.247c12.254,4.711,24.457,9.613,36.718,14.3,15.382,5.874,29.822,13.872,42.454,26.115a140.217,140.217,0,0,1,22.774,29.072c5.315,8.917,10.22,18.181,15.447,27.174,4.234,7.281,8.548,14.505,13.067,21.536a50.284,50.284,0,0,0,12.1,13.039c11.218,8.444,23.265,14.309,36.474,16.565,5.061.865,9.952-.1,14.8-1.58,6.629-2.018,13.2-4.309,19.846-6.269a69.618,69.618,0,0,1,37.273-.384c10.32,2.595,20.548,5.773,30.885,8.291a89.653,89.653,0,0,0,49.312-1.279,51.5,51.5,0,0,0,13.87-6.525c15.778-11.012,32.863-17.938,50.194-24.31,11.524-4.232,23.009-8.663,34.361-13.507,20.243-8.638,38.8-21.161,56.271-36.031,9.357-7.965,18.535-16.231,27.966-24.064a193.687,193.687,0,0,1,17.4-12.958,48.935,48.935,0,0,1,11.348-5.055c4.956-1.674,9.714-.37,13.967,2.976,2.7,2.129,5.2,4.643,7.756,7.037,3.47,3.247,6.824,6.681,10.38,9.789,6.582,5.751,13.874,7.257,21.806,4.9a74.8,74.8,0,0,0,16.873-7.677,248.677,248.677,0,0,0,38.7-28.673c11.695-10.492,23.523-20.735,35.836-30.2a270.666,270.666,0,0,1,100.364-48.673c16.689-4.174,33.188-9.229,49.589-14.842,28.2-9.656,53.572-25.5,76.152-47.824,5.005-4.95,10.013-9.926,15.274-14.469a100.461,100.461,0,0,1,13.275-9.84c8.03-4.888,15.953-4.162,23.286,2.3,2.882,2.544,5.572,5.4,8.349,8.108Z" transform="translate(-2.559 -195.364)" fill="#eef"/>
          <path id="Tracé_253" data-name="Tracé 253" d="M1578.855,2477.4c3.227-.413,6.455-.81,9.68-1.241,10.892-1.455,21.342-5.256,31.731-9.314,18-7.037,36.16-13.307,54.778-17.266,21.706-4.622,43.518-7.86,65.622-7.717,19.646.128,39.306.05,58.94-.73,15.923-.632,31.833-2.175,47.715-3.815,12.113-1.251,23.985.239,35.825,3.036q38.512,9.1,77.024,18.253a91.4,91.4,0,0,0,24.456,2.572c12.9-.481,25.807-1.151,38.667-2.431a188.993,188.993,0,0,1,48.723,1.577,281.7,281.7,0,0,0,36.563,3.773,181,181,0,0,0,64.852-10.563c.322-.113.655-.179.984-.266v15.812c-5.578,1.849-11.17,3.637-16.728,5.578-2.1.733-4.121,1.819-6.179,2.744H1966.9c-1.38-.535-2.743-1.167-4.146-1.589-26.806-8.068-53.91-14.263-81.118-19.892a126.411,126.411,0,0,0-45.887-1.25c-11.229,1.784-22.519,3.051-33.792,4.33-18.981,2.153-37.986,3.838-56.841,7.586-17.6,3.493-35.3,6.226-52.949,9.332-2.083.366-4.138.983-6.207,1.483Z" transform="translate(-1129.395 -1645.168)" fill="#eef"/>
          <path id="Tracé_254" data-name="Tracé 254" d="M2.559,1114.514c1.963-.009,3.926-.011,5.888-.028,13.118-.113,26.237-.206,39.355-.347,14.4-.154,28.792-.512,43.186-.485,14.32.027,28.446,2.284,42.516,5.494,7.391,1.686,14.936,2.405,22.414,3.547,11.967,1.825,23.929,3.69,35.9,5.437q14.157,2.066,28.346,3.881c11.09,1.437,22.057,3.393,32.585,8.162,32.314,14.634,44.166,52.074,41.7,80.231a70.223,70.223,0,0,1-12.494,35.066c-4.109,5.787-8.948,10.838-13.5,16.179-2.314,2.72-4.9,5.145-7.022,8.061-4.094,5.618-3.265,10.666,2.138,14.339a22.331,22.331,0,0,0,10.284,3.59c10.142,1.151,19.6-1.675,28.548-7.207,10.529-6.507,18.92-15.922,25.794-27.368,8.732-14.56,13.878-30.95,17.138-48.282,2.109-11.214,3.944-22.511,6.3-33.65a100.7,100.7,0,0,1,4.9-15.512,55.353,55.353,0,0,1,5.246-9.762c5.028-7.811,11.687-10.315,19.762-8.572a348.674,348.674,0,0,1,37.851,10.947c14.289,4.825,28.6,9.541,43.272,12.466,21.887,4.365,43.718,4.926,65.134-3.08,8.051-3.009,15.811-7.2,23.58-11.191,7.99-4.107,15.942-8.366,23.691-13.075a79.892,79.892,0,0,0,13.478-10.206c11.728-11.121,23.038-22.874,34.8-33.934,11.4-10.713,22.942-21.239,34.807-31.192,18.05-15.144,38.03-25.987,58.438-35.728a498.815,498.815,0,0,0,52.183-28.544,251.131,251.131,0,0,1,55.71-26.908c20.026-6.584,40.284-7.961,60.637-2.872a123.63,123.63,0,0,1,20.552,7.716,348.67,348.67,0,0,1,75.3,46.526c3.465,2.791,6.932,5.582,10.47,8.239a320.727,320.727,0,0,1,44.571,41.176c3.74,4.116,7.692,7.956,11.548,11.922v14.98c-8-8.639-15.913-17.408-24.031-25.89-17.084-17.845-35.644-33.338-54.752-47.859-12.826-9.75-26.718-16.839-41.837-19.711-6.971-1.324-14.076-1.663-21.123-2.417-5.315-.568-10.654-.9-15.945-1.682-4.541-.673-8.158-3.455-9.967-8.631-5.014-14.376-14.972-19.266-26.947-20.2-11.5-.9-22.661,1.644-33.653,5.358a210.532,210.532,0,0,0-44.228,21.033A537.038,537.038,0,0,1,715.02,1036.4c-22.172,10.227-43.29,22.831-62.5,39.736a450.468,450.468,0,0,0-34.077,33.65c-9.008,9.811-17.819,19.878-26.794,29.729a130.841,130.841,0,0,1-9.618,9.588,37.873,37.873,0,0,1-7.477,5.256q-14.338,7.527-28.821,14.664c-11.405,5.654-23.141,9.865-35.477,11.541a114.279,114.279,0,0,1-34.366-.72c-18-3-35.268-9.531-52.576-15.84-12.756-4.65-25.473-9.468-38.617-12.39-1.6-.354-3.185-.8-4.794-1.015-6.262-.852-11.357,1.954-15.553,7.345a51.181,51.181,0,0,0-8.014,16.419,177.3,177.3,0,0,0-5.425,26.613c-2.117,14.064-4.505,28.032-9.075,41.327-6.667,19.394-16.442,35.984-30.873,48.251-12.8,10.875-26.991,16.494-42.819,15.3a38.356,38.356,0,0,1-18.7-5.906,34.031,34.031,0,0,1-8-7.184c-4.409-5.607-3.919-11.834,1.143-16.547a60.973,60.973,0,0,1,8.318-6.014c4.774-3.145,9.749-5.885,14.39-9.276a57.247,57.247,0,0,0,19.546-25.356c6.053-15.021,6.274-30.537,2.28-46.2-6.412-25.136-20.759-40.7-41.57-48.213a98.65,98.65,0,0,0-24.316-4.862c-16.77-1.621-33.536-3.287-50.314-4.784-5.089-.454-10.209-.591-15.313-.563-11.959.067-23.858-.17-35.772-2.1-17.287-2.8-34.73-2.71-52.158-2.339-21.242.452-42.487.76-63.731,1.139a11.571,11.571,0,0,0-1.386.171Z" transform="translate(-2.559 -655.961)" fill="#eef"/>
          <path id="Tracé_255" data-name="Tracé 255" d="M1047.573,922.091c-7.212-6.057-14.289-12.372-21.664-18.121-22.387-17.438-45.878-32.579-69.756-46.849-9.639-5.758-19.449-11.161-29.414-16.069a65.841,65.841,0,0,0-30.542-7.165,52.445,52.445,0,0,0-17.176,2.975c-18.628,6.82-37.576,12.306-56.21,19.034-24.951,9.009-48.6,21.951-71.378,37.02q-27.272,18.04-55.588,33.536c-16.355,8.986-32.019,19.535-47.577,30.323-14.951,10.378-30.062,20.416-46.136,28.169a109.783,109.783,0,0,1-12.449,5.283,132.29,132.29,0,0,0-30.176,14.865c-5.393,3.53-10.762,7.114-16.185,10.576a144.806,144.806,0,0,1-58.179,21.435,171.3,171.3,0,0,1-53.11-.83c-14.579-2.466-29.1-5.424-43.662-8.038-6.764-1.214-13.559-2.175-20.35-3.161-6.152-.9-10.943,1.978-14.211,8.142-2.043,3.852-3.8,7.933-5.519,12.014-3.592,8.544-6.985,17.207-10.632,25.717a99.331,99.331,0,0,1-5.875,11.771c-5.708,9.558-10.693,9.949-17.519,1.378-2.792-3.5-5.225-7.421-7.756-11.213-3.545-5.311-6.88-10.827-10.562-15.993a89.483,89.483,0,0,0-39.9-31.488c-10.29-4.212-20.864-7.492-31.408-10.74a207.9,207.9,0,0,1-44.248-19.7c-15.4-9.056-30.857-18-46.417-26.673-12.118-6.752-24.652-12.283-37.921-14.852a111.869,111.869,0,0,0-17.642-2.121c-11.6-.369-23.214-.113-34.82-.281-12.879-.188-25.757-.569-38.634-.847a21.576,21.576,0,0,0-2.4.2V936.239c10.55.459,21.1,1.123,31.654,1.324,12.419.238,24.844.118,37.265.076,17.71-.06,34.572,4.766,50.66,13.222,10.075,5.3,19.9,11.326,29.637,17.474,13.337,8.42,26.5,17.23,39.711,25.941,14.025,9.247,29.063,15.25,44.456,20.2a172.372,172.372,0,0,1,31.84,13.189,101.288,101.288,0,0,1,33.235,29.622c3.406,4.734,6.929,9.34,10.513,13.878a32.217,32.217,0,0,0,4.763,4.834c4.689,3.873,8.754,3.582,12.88-1.191a36.3,36.3,0,0,0,5.437-8.061c3.308-6.985,6.351-14.159,9.3-21.367,1.577-3.85,2.722-7.951,4.128-11.9.725-2.038,1.523-4.05,2.417-5.988,3.175-6.889,8.137-9.6,14.571-8.526,16.889,2.815,33.765,5.746,50.662,8.479,16.936,2.738,33.929,4.5,51.032,3.455,25.836-1.588,50.46-8.727,73.327-23.554,5.3-3.439,10.565-6.978,15.8-10.568a122.74,122.74,0,0,1,40.062-18.589c11.9-2.943,23.06-8.467,33.871-14.953,8.5-5.1,16.8-10.676,25.231-15.941,14.189-8.859,28.229-18.1,42.668-26.339,19.076-10.889,37.5-23.2,56.108-35.124,23.362-14.97,47.524-27.743,72.845-37.264,2.433-.915,4.881-1.8,7.356-2.526a208.033,208.033,0,0,0,31.292-12.634,135.654,135.654,0,0,1,19.1-7.677c11.2-3.412,22.351-1.819,33.342,1.919a134.7,134.7,0,0,1,26.528,12.471c25.349,15.382,50.718,30.731,75.837,46.64,9.5,6.013,18.341,13.526,27.482,20.356Z" transform="translate(-2.559 -556.746)" fill="#eef"/>
          <path id="Tracé_256" data-name="Tracé 256" d="M2.559,2397.365a15.7,15.7,0,0,0,2.652.346c13.8-.492,27.6-.7,41.38-1.622a427.011,427.011,0,0,1,56.193-.721c23.643,1.535,47.268,3.5,70.915,4.965,12.885.8,25.8,1.1,38.7,1.351,16.053.319,32.1.748,48.036,3.341,25.709,4.183,51.2,9.793,76.229,18.372a92.856,92.856,0,0,1,23.432,11.239c10.925,7.574,23.03,10.735,35.349,12.617,4.442.678,8.906,1.152,13.359,1.709h-67.37c-3.375-2.175-6.686-4.522-10.144-6.474a93.025,93.025,0,0,0-12.424-6.295,282.744,282.744,0,0,0-99.117-18.907c-14.817-.1-29.64-.372-44.447-1.039-32.988-1.486-65.964-2.66-98.988-1.535-24.572.841-49.167.676-73.752.957Z" transform="translate(-2.559 -1616.743)" fill="#eef"/>
          <path id="Tracé_257" data-name="Tracé 257" d="M309.768,2521.741H2.559V2502.6c10.438,0,20.877-.029,31.315.009q95.96.357,191.928.745c24.4.1,48.28,4.769,71.753,12.751C301.728,2517.532,305.7,2519.848,309.768,2521.741Z" transform="translate(-2.559 -1689.525)" fill="#eef"/>
          <path id="Tracé_258" data-name="Tracé 258" d="M2213.647,2.559c-.471,2.984-1.024,5.953-1.4,8.956-1.235,9.826.431,19.331,2.473,28.7,2.271,10.424,5.04,20.681,7.293,31.11a86.154,86.154,0,0,1,1.8,14.313c.292,6.662-1.564,9.666-6.594,11.862-7.873,3.437-15.947,5.832-24.339,5.691-12.335-.207-24.668-.64-37-1.121-5.937-.23-11.886-.537-17.791-1.279a31.25,31.25,0,0,1-9.427-2.815c-5.037-2.4-7.569-7.359-7.278-14A87.571,87.571,0,0,1,2123,72.136c.938-5.127,2.252-10.15,3.15-15.286a43.94,43.94,0,0,0-4.532-28.967c-1.356-2.544-2.983-4.879-4.239-7.491a71.057,71.057,0,0,1-4.29-10.251c-.957-3.186-3.02-5.068-4.542-7.573h40.422c3.071.549,6.142,1.232,9.225,1.617,5.351.668,10.748.9,16.065,1.819a24,24,0,0,1,7.565,3.223,5.179,5.179,0,0,1,1.881,3.508,3.17,3.17,0,0,1-2.587,3.292,12.8,12.8,0,0,1-4.312.64c-3.915-.29-7.817-.856-11.728-1.265-5.033-.527-10.08-1.1-15.078.3-6.8,1.906-9.245,5.692-9.076,14.357.1,5.118.557,10.236.757,15.354.233,5.953.283,11.918.553,17.868.375,8.26,3.7,14.057,9.872,17.316a25.964,25.964,0,0,0,2.83,1.325,47.93,47.93,0,0,0,27.274,2.167c12.939-2.652,23.585-21.4,21.38-35.322-.452-2.852-.724-5.747-1.127-8.611-.48-3.412-1.043-6.807-1.516-10.22-1.327-9.558-.75-18.777,3.266-27.366Z" transform="translate(-1532.754 -2.559)" fill="#eef"/>
          <path id="Tracé_259" data-name="Tracé 259" d="M1933.752,2.559a57.994,57.994,0,0,1,8.75,10.225c1.643,2.472,4.23,4.03,6.478,5.836,3.384,2.718,6.99,5.041,10.236,7.972,10.631,9.583,13.2,20.684,8.146,35.639-1.764,5.22-4.148,10.123-6.3,15.141-1.782,4.163-3.75,8.21-5.427,12.434a28.258,28.258,0,0,0-.455,19.737,81.166,81.166,0,0,0,8.036,17.721c3.857,6.2,7.362,7.463,13.269,4.783,2.839-1.288,5.586-2.889,8.345-4.433a78.109,78.109,0,0,1,47.27-9.684,149.709,149.709,0,0,1,25.228,4.934c8.229,2.3,16.423,2.91,24.59-.361.427-.171.861-.312,1.28-.5,6.639-2.908,9.481-7.471,9.323-16.2a60.914,60.914,0,0,0-1.644-13.5c-2.348-9.381-5.246-18.552-7.82-27.849-2.787-10.082-5.672-20.135-8.108-30.349a58.032,58.032,0,0,1-.39-27.072c.343-1.447.444-2.982.657-4.478h4.716c-.646,3.365-1.322,6.722-1.933,10.1-1.337,7.376-.426,14.624,1,21.8,2.33,11.771,6.351,22.762,10.165,33.861,3.241,9.432,6.375,18.936,9.261,28.532a66.248,66.248,0,0,1,2.628,20c-.119,8.865-3.177,15.354-9.536,19.55-8.62,5.692-17.589,7.284-27,3.7-3.105-1.182-6.154-2.606-9.188-4.051a67.471,67.471,0,0,0-31.229-7.165A49.96,49.96,0,0,0,1998.238,137a81.463,81.463,0,0,0-19.388,17.791c-2.857,3.531-5.619,7.179-8.489,10.7a33.758,33.758,0,0,1-4.075,4.334c-2.889,2.471-4.788,1.8-6.053-2.175a64.68,64.68,0,0,1-1.619-7.2c-1.544-7.944-2.669-16.051-4.679-23.808a138.349,138.349,0,0,0-7.165-21.028c-4.967-11.259-4.437-21.623,1.465-31.963,2.906-5.095,5.537-10.437,8.162-15.766a47.005,47.005,0,0,0,4.51-13.805,22.163,22.163,0,0,0-4.222-17.593,27.221,27.221,0,0,0-10.053-8.172c-5.132-2.4-10.392-4.387-15.59-6.57-2.652-1.114-5.328-2.165-7.933-3.439a6.947,6.947,0,0,1-4.021-5.218,10.778,10.778,0,0,0-3.474-5.919c-1.438-1.438-2.751-3.071-4.119-4.606Z" transform="translate(-1387.839 -2.559)" fill="#eef"/>
          <path id="Tracé_260" data-name="Tracé 260" d="M2883.1,2.559a32.382,32.382,0,0,0,3.142,2.838c10.274,7.1,20.643,14,30.835,21.275a92.276,92.276,0,0,1,10.944,9.638,34.263,34.263,0,0,1,5.215,6.991,11.206,11.206,0,0,1-.109,11.976c-1.535,2.551-3.348,4.844-4.971,7.319a78.741,78.741,0,0,0-5.125,8.213c-5.34,10.82-3.5,22.519,4.656,30.27a27.431,27.431,0,0,0,18.477,7.9c23.555.687,42.823-10.008,56.031-34.545a91.7,91.7,0,0,1,24.822-29.886q13.41-10.351,26.422-21.481a36.045,36.045,0,0,1,26.333-9.206,156.551,156.551,0,0,1,46.346,9.377c.749.274,1.476.64,2.214.961v7.49a127.441,127.441,0,0,0-45.427-10.6,26.389,26.389,0,0,0-17.381,5.477c-12.2,9.169-23.916,19.214-34.2,31.508a108.689,108.689,0,0,0-10.394,15.238c-14.046,24.259-33.426,38.1-56.586,44.468-10.732,2.95-21.582,3.439-32.31-.412a37.153,37.153,0,0,1-16.982-12.191c-8.562-10.846-11.364-23.6-8.022-38.232.943-4.126,2.134-8.189,3.44-12.161,3.079-9.368,1.528-17.486-4.386-24.182a119.071,119.071,0,0,0-12.008-12.018c-5.447-4.623-11.243-8.615-16.867-12.923-1.226-.939-2.359-2.064-3.536-3.1Z" transform="translate(-2083.317 -2.559)" fill="#eef"/>
          <path id="Tracé_261" data-name="Tracé 261" d="M45,2.559a1.546,1.546,0,0,0,.722,2.521,62.509,62.509,0,0,0,6.057,2.469C63.507,11.362,75.22,15.334,85.889,22.63c8.135,5.562,16.03,11.674,23.894,17.813,9.764,7.622,19.294,15.7,29.1,23.244a110.716,110.716,0,0,0,22.076,13.172c11.47,5.174,22.84,5.161,34.139-.595,7.774-3.966,15.511-8.035,23.24-12.127,19.228-10.177,39.279-17.273,59.4-24.062,24.558-8.287,49.435-14.921,74.284-21.692a64.617,64.617,0,0,0,7.132-2.4,20.02,20.02,0,0,0,3.334-2.283c-3.208-5.415-8.093-7.226-11.624-11.145h25.6c.866.844,1.7,1.755,2.608,2.521,2.6,2.175,5.276,4.222,7.829,6.484a25.084,25.084,0,0,1,2.714,3.71,43.545,43.545,0,0,1-5.758,2.927c-5.742,1.846-11.529,3.549-17.32,5.184-29.3,8.3-58.624,16.442-87.552,26.588C259,56.983,239.206,64.633,220.451,75.89c-7.568,4.542-15.16,9.032-22.849,13.249-12.862,7.058-25.808,6.55-38.475-.64a117.749,117.749,0,0,1-16.46-11.259c-7.849-6.433-15.329-13.549-22.992-20.332-9.575-8.485-18.854-17.561-28.834-25.24C66.354,12.82,39.685,6.4,11.152,12.421c-2.863.6-5.729,1.192-8.593,1.791V10.875a13.152,13.152,0,0,0,2.625-.242Q11.669,8.74,18.124,6.693c1.716-.546,3.407-1.232,5.082-1.955a1.535,1.535,0,0,0,.912-2.179Z" transform="translate(-2.559 -2.559)" fill="#eef"/>
          <path id="Tracé_262" data-name="Tracé 262" d="M2.559,179.022a13.459,13.459,0,0,0,2.625-.489,52.883,52.883,0,0,1,32.242-2.146c10.355,2.431,20.793,4.327,31.15,6.745A76.946,76.946,0,0,1,97,196.7c4.519,3.356,9.047,6.7,13.653,9.867a34.5,34.5,0,0,0,6.752,3.7c4.82,1.908,6.945-.426,6.141-6.525a39.594,39.594,0,0,0-1.08-5.658c-7.844-27.41-18.22-53.1-34.3-74.69C78.118,109.906,66.013,100.513,51.221,97a69.2,69.2,0,0,0-27.471-.747c-7.1,1.172-14.129,3-21.19,4.537V94.968c4.1-.695,8.2-1.445,12.31-2.075,11.064-1.7,22.144-2.21,33.208-.1C63.831,95.8,77,105.008,88.283,118.656c10.439,12.626,18.621,27.334,25.773,42.953,8.46,18.473,15.689,37.7,22.606,57.11a45.2,45.2,0,0,1,2.069,7.879c.512,3.176-.585,4.543-3.185,3.918a21.7,21.7,0,0,1-6.354-2.61c-4.5-2.8-8.9-5.868-13.294-8.938-2.536-1.773-5.023-3.672-7.448-5.673a105.123,105.123,0,0,0-41.867-20.817q-14.482-3.684-28.769-8.52c-10.747-3.622-21.257-3.536-31.711,1.323a35.506,35.506,0,0,1-3.545,1.232Z" transform="translate(-2.559 -62.511)" fill="#eef"/>
          <path id="Tracé_263" data-name="Tracé 263" d="M493.872,2.559c.97.658,1.965,1.262,2.9,1.986.911.7,1.759,1.528,2.577,2.248a5.324,5.324,0,0,1-3.966,3.992c-4.908,1.929-9.866,3.664-14.814,5.435q-20.983,7.51-41.966,15a95.113,95.113,0,0,1-20.684,5.4,50.667,50.667,0,0,1-31.186-6.336c-11.943-6.635-23.624-14.015-35.359-21.208-2.047-1.253-4.381-2.687-3.7-6.51H362.5a3.388,3.388,0,0,0,.87,4.321,19.5,19.5,0,0,0,3.693,2.856c7.406,3.914,14.751,8.048,22.307,11.459a47.515,47.515,0,0,0,25.845,3.644c13.488-1.69,26.229-6.909,38.76-13.051a10.529,10.529,0,0,0,2.317-1.663,2.559,2.559,0,0,0,.264-3.852c-1.007-1.272-2.065-2.482-3.1-3.719Z" transform="translate(-256.726 -2.559)" fill="#eef"/>
          <path id="Tracé_264" data-name="Tracé 264" d="M3125.314,2.559c-6.321,4.721-12.625,9.477-18.966,14.156a76.178,76.178,0,0,1-36.895,14.33c-15.254,1.85-29.906-1.835-44.378-7.165a338.347,338.347,0,0,1-41.5-19.3,15.745,15.745,0,0,1-2.431-2.024h17.516a17.449,17.449,0,0,0,3.071,2.11c12.808,5.179,25.83,9.283,39.28,10.869,13.29,1.566,26.441.59,39.2-4.746a42.068,42.068,0,0,0,13.44-8.233Z" transform="translate(-2162.496 -2.559)" fill="#eef"/>
          <path id="Tracé_265" data-name="Tracé 265" d="M283.59,2.559a4.743,4.743,0,0,0,1.867,4.884c1.235.951,2.5,1.855,3.785,2.687,11.515,7.458,23,14.97,34.56,22.3,4.779,3.032,9.66,5.843,14.586,8.479,15.183,8.114,30.756,9.38,46.645,3.559,9.989-3.658,19.87-7.8,29.939-11.061,22.22-7.183,44.524-13.95,66.789-20.891,1.955-.609,3.936-1.128,5.85-1.895a26.8,26.8,0,0,0,3.529-2.066c-.693-3.534-3.507-3.8-4.765-6h18.19c1.338,1.232,2.711,2.409,4,3.71.985.994,1.865,2.146,2.865,3.309a7.194,7.194,0,0,1-4.69,3.08c-9.819,2.866-19.665,5.589-29.46,8.572-27.871,8.5-55.617,17.529-82.781,29.141-9.485,4.053-19.225,6.653-29.4,5.415A62.742,62.742,0,0,1,341.2,47.7c-8.116-4.684-16.1-9.783-23.914-15.186-11.357-7.848-22.685-15.737-34.575-22.311a47.221,47.221,0,0,1-4.734-3.144,4.408,4.408,0,0,1-1.8-4.5Z" transform="translate(-204.093 -2.559)" fill="#eef"/>
          <path id="Tracé_266" data-name="Tracé 266" d="M2356.768,2536.621c4.138-1.075,8.241-2.431,12.417-3.173,15.965-2.815,31.934-5.617,47.939-8.048a87.712,87.712,0,0,1,25.827.459,367.178,367.178,0,0,1,48.027,9.922,14.218,14.218,0,0,1,1.877.839Z" transform="translate(-1712.537 -1704.401)" fill="#eef"/>
          <path id="Tracé_267" data-name="Tracé 267" d="M505.56,2.559c.768.992,1.579,1.946,2.312,2.981,1.407,1.993,1.328,3.264-.488,4.753a17.112,17.112,0,0,1-3.608,2.206c-20.14,9.445-39.79,7.6-59.013-3.927a18.635,18.635,0,0,1-2.3-1.726,3.327,3.327,0,0,1-.911-4.287h10.779a3.865,3.865,0,0,0,1.919,4.6c.614.33,1.208.723,1.833,1.01a47.032,47.032,0,0,0,28.308,3.85,25.853,25.853,0,0,0,6.768-2.185c2.761-1.343,2.885-2.854.848-5.439-.454-.576-.852-1.218-1.279-1.83Z" transform="translate(-325.68 -2.559)" fill="#eef"/>
          <path id="Tracé_268" data-name="Tracé 268" d="M3780.616,8.384c-6.59-1.606-13.178-3.2-19.766-4.841a8.165,8.165,0,0,1-1.793-.984h21.559Z" transform="translate(-2735.603 -2.559)" fill="#eef"/>
          <path id="Tracé_269" data-name="Tracé 269" d="M918.95,666.526a22.526,22.526,0,0,1-3.245,1.711,56.52,56.52,0,0,1-17.682,2.443A128.911,128.911,0,0,1,832,653.706c-10.911-6.182-21.787-12.459-32.7-18.626-11.17-6.309-22.684-11.305-34.937-13.21a112.828,112.828,0,0,0-12.076-1.18,38.383,38.383,0,0,1-20.471-7.386C722,606.434,713.181,597.858,704.74,588.7a129.976,129.976,0,0,1-9.954-12.372,37.009,37.009,0,0,1-4.293-8.391c-2.147-5.682-1.57-11.247,1.938-15.817a57.9,57.9,0,0,1,8.137-8.638,53.441,53.441,0,0,1,25.3-11.771c7.549-1.461,15.117-2.37,22.787-1.194a22.593,22.593,0,0,1,16.318,11.159,143.106,143.106,0,0,1,6.942,12.752c4.693,9.623,9.226,19.381,15.113,28,25.4,37.186,56.818,62.453,95.546,73,10.512,2.863,21.111,5.23,31.66,7.9a39.3,39.3,0,0,1,4.661,1.818Q918.926,665.832,918.95,666.526ZM815.158,630.508l.48-1.12a29.427,29.427,0,0,0-2.018-3.62c-2.45-3.237-4.919-6.464-7.518-9.515a256.242,256.242,0,0,1-36.99-56.3,111.144,111.144,0,0,0-6.532-11.58c-4.094-6.48-9.446-10.652-16.1-11.748-12.961-2.137-25.263.729-36.691,8.5a37.544,37.544,0,0,0-8.378,8.2c-4.308,5.63-4.7,11.6-1.461,18.272a44.541,44.541,0,0,0,5.353,8.489,110.6,110.6,0,0,0,28.082,24.762,40.356,40.356,0,0,0,19.091,5.946,106.924,106.924,0,0,1,14.7,1.931c11.565,2.349,22.549,7.171,33.4,12.509,3.64,1.791,7.368,3.32,11.1,4.811A13.581,13.581,0,0,0,815.158,630.508Z" transform="translate(-500.476 -358.447)" fill="#eef"/>
          <path id="Tracé_270" data-name="Tracé 270" d="M2690.553,86.222c-.256,2.747-.64,7.293-1.134,11.816a19.434,19.434,0,0,1-.943,3.98c-1.627,4.884-4.421,6.465-8.379,4.478a23.492,23.492,0,0,1-5.537-3.881,85.757,85.757,0,0,1-20.64-30.8,36.907,36.907,0,0,1-2.985-14.362c.093-6.954,3.046-12.14,8.352-14.6,4.779-2.217,9.5-1.663,14.114.656,6.834,3.434,11.335,9.694,14.074,18.053C2689.875,68.893,2690.285,76.623,2690.553,86.222Zm-15.609-15.354c-.4-5.246-1.791-9.783-5.814-12.283-3.692-2.289-7,.339-6.676,5.384a15.427,15.427,0,0,0,6.822,12.471c2.534,1.676,4.587.329,5.344-3.148.171-.792.223-1.627.325-2.427Z" transform="translate(-1928.935 -28.793)" fill="#eef"/>
          <path id="Tracé_271" data-name="Tracé 271" d="M32.564,173.608c-4.818,0-9.638.046-14.458-.028a15.624,15.624,0,0,1-4.322-.617c-2.972-.91-3.611-2.9-1.841-6.088a22.089,22.089,0,0,1,3.643-4.838,48.586,48.586,0,0,1,25.333-13.491c10.62-2.152,20.79-.681,30.214,6.124a46.655,46.655,0,0,1,15.15,18.475,25.944,25.944,0,0,1,2.075,6.927c.424,2.79-.564,4-2.815,3.653a27.833,27.833,0,0,1-5.514-1.743c-5.775-2.2-11.463-4.827-17.321-6.6-8.218-2.486-16.668-2.473-25.089-2.336-1.682.027-3.365,0-5.047,0Q32.564,173.33,32.564,173.608Z" transform="translate(-8.752 -100.449)" fill="#eef"/>
          <path id="Tracé_272" data-name="Tracé 272" d="M2652.477,1476.345c-.195,20.694-6.029,38.248-19.647,50.912-10.988,10.218-23.4,13.963-36.863,9.367-11.566-3.948-19.529-12.809-22.007-27.841a47.807,47.807,0,0,1,2.033-22.42,70.98,70.98,0,0,1,11.515-21.8,104.127,104.127,0,0,1,29.7-26.869,43.92,43.92,0,0,1,10.115-4.415c7.944-2.289,13.8.793,18.168,9.293,4.565,8.887,6.37,18.84,6.974,29.2C2652.553,1473.287,2652.477,1474.822,2652.477,1476.345ZM2606.2,1525.4c14.273.045,26.089-10.865,29.394-26.04a41.968,41.968,0,0,0,.869-11.893c-1.007-12.974-8.616-20.031-19.037-17.691-10.521,2.363-18.982,9.1-25.091,19.949a35,35,0,0,0-3.529,9.794c-1.939,9.256,1.3,17.882,8.061,22.549a17.938,17.938,0,0,0,9.333,3.325Z" transform="translate(-1871.517 -967.485)" fill="#eef"/>
          <path id="Tracé_273" data-name="Tracé 273" d="M1255.974,269.966c4.515.394,8.763.75,13.008,1.151a8.687,8.687,0,0,1,1.974.494c4.36,1.5,5.605,4.133,4.458,9.614-.449,2.143-1.118,4.215-1.617,6.344-1.645,7.01-.384,11.184,4.948,14.384a68.864,68.864,0,0,0,11.015,5.035c5.462,2.086,11.033,3.732,16.494,5.824a49.342,49.342,0,0,1,8.4,4.2c9.668,6.028,14.573,16.018,15.4,29.191a85.3,85.3,0,0,1-5.788,35.47,113.4,113.4,0,0,1-30.182,44.469c-17.656,16.276-37.523,25.8-59.349,29.145-27.329,4.194-53.72-.473-79.026-13.668a106.235,106.235,0,0,1-41.929-39.244,84.714,84.714,0,0,1-8.426-17.932,59.789,59.789,0,0,1,.219-39.978c1.543-4.305,3.243-8.533,5.009-12.706a31.577,31.577,0,0,0,1.992-20.855c-1.663-6.436.141-11.619,4.685-14.988a69.737,69.737,0,0,1,11.712-7.188c11.062-5.193,22.636-7.942,34.316-10a461.612,461.612,0,0,1,45.887-5.316C1224.851,272.255,1240.529,271.109,1255.974,269.966Zm-37.14,183.551c4.25-.536,11.765-1.085,19.172-2.49,21.059-3.993,40.047-14.1,56.7-30.6a106.13,106.13,0,0,0,27.38-44.013,73.739,73.739,0,0,0,3.782-26.807c-.768-13.024-5.787-22.508-15.533-27.892a32.853,32.853,0,0,0-6.941-3.118c-7.549-2.078-15.149-3.847-22.717-5.809-7.128-1.848-14.286-3.566-21.345-5.758-5.61-1.745-10.193-5.63-13.4-11.783a13.676,13.676,0,0,0-8.956-7.527A72.745,72.745,0,0,0,1224,285.558a200.154,200.154,0,0,0-52.6,4.9,74.582,74.582,0,0,0-19.095,6.561c-4.511,2.386-8.707,5.461-11.351,10.69-4.523,8.943-10.467,16.22-16.734,23.216a79.329,79.329,0,0,0-11.619,16.113,46.509,46.509,0,0,0-4.412,31.795,74.3,74.3,0,0,0,11.859,27.223,99.122,99.122,0,0,0,30.473,28.993C1170.986,447.644,1192.842,452.92,1218.834,453.518Z" transform="translate(-799.812 -183.003)" fill="#eef"/>
          <path id="Tracé_274" data-name="Tracé 274" d="M812.23,626.129c-16.062,2.142-28.121-5.19-38.952-16.377a37.856,37.856,0,0,1-6.228-9.155,13.235,13.235,0,0,1,1.113-14.215,24.212,24.212,0,0,1,5.347-5.608c7.706-5.515,16.024-7.795,24.9-6.051,6.387,1.255,11.522,5.333,15.508,11.5a120.969,120.969,0,0,1,13.042,28.478c.128.384.246.775.339,1.173,1.462,6.2.182,8.68-5.055,9.8a12.426,12.426,0,0,1-2.327.427C816.89,626.158,813.865,626.129,812.23,626.129Zm-16.07-18.3c2.889-.292,5.706-.935,7.12-4.515,1.386-3.507.416-6.767-1.3-9.724-3.567-6.141-10.525-8.2-15.957-4.754-4.35,2.764-5.161,7.832-1.831,12.29a16.263,16.263,0,0,0,11.971,6.7Z" transform="translate(-557.328 -388.254)" fill="#eef"/>
          <path id="Tracé_275" data-name="Tracé 275" d="M1270.7,426.444c15.012.975,30.033,1.782,45.037,2.993,8.048.65,16.112,1.67,23.854,4.749a41.893,41.893,0,0,1,8.044,4.149c7.293,4.939,10.989,12.783,11.408,22.975.429,10.443-2.175,19.967-6.135,28.985a98.518,98.518,0,0,1-22.716,31.958c-15.691,14.97-33.431,24.069-52.993,27.808-26.981,5.156-52.979.787-77.936-12.731a84.8,84.8,0,0,1-30.211-27.2,57.009,57.009,0,0,1-9.509-22.646,35.4,35.4,0,0,1,5.415-26.8,47.125,47.125,0,0,1,12.539-12.422c10.159-7.057,21.141-11.4,32.379-14.875,18.424-5.7,37.188-7.207,56.1-6.733,1.57.04,3.142,0,4.714,0C1270.693,426.6,1270.7,426.525,1270.7,426.444Zm10.177,5.085-25.259.879a191.907,191.907,0,0,0-45.015,6.84,103.308,103.308,0,0,0-29.172,12.476,46.366,46.366,0,0,0-11.9,10.767c-6.62,8.682-8.274,18.771-5.421,30.028a56.023,56.023,0,0,0,10.7,20.906,81.54,81.54,0,0,0,25.088,21.339c24.182,13.384,49.436,17.425,75.616,12.787a99.908,99.908,0,0,0,48.42-23.455,97.466,97.466,0,0,0,24.6-31.494,65.108,65.108,0,0,0,6.841-24.113c.793-11.305-2.208-20.53-10.353-26.429a39.491,39.491,0,0,0-8.643-4.52,64.2,64.2,0,0,0-19.533-3.984c-12.766-.882-25.548-1.45-35.963-2.02Z" transform="translate(-841.529 -288.591)" fill="#eef"/>
          <path id="Tracé_276" data-name="Tracé 276" d="M1317.564,462.525c8.7.558,19.128,1.093,29.533,1.947a50.3,50.3,0,0,1,16.437,4.115c12.837,5.709,17.8,17.621,14.118,33.866a70.909,70.909,0,0,1-14.318,28.724,98.18,98.18,0,0,1-47.164,32.959,95.423,95.423,0,0,1-32.96,4.911c-19.293-.571-37.838-5.33-55.1-16.4a69.711,69.711,0,0,1-21.093-20.31,45.789,45.789,0,0,1-6.207-13.237c-2.728-9.935-1.351-18.839,4.4-26.624a43.026,43.026,0,0,1,13.448-11.568,104.5,104.5,0,0,1,27.892-10.652,219.145,219.145,0,0,1,40.034-6.021C1296.325,463.645,1306.074,463.151,1317.564,462.525Zm-3.649,8.168c-4.753.248-12.376.608-20,1.056a233.749,233.749,0,0,0-41.727,6.072,97.334,97.334,0,0,0-26.312,9.948,40.521,40.521,0,0,0-10.922,8.876c-6.513,7.72-7.811,17.392-3.676,27.295a43.284,43.284,0,0,0,7.408,11.758,68.133,68.133,0,0,0,22.631,16.874,97.13,97.13,0,0,0,51.143,9.408,92.09,92.09,0,0,0,44.885-15.963,82.339,82.339,0,0,0,24.725-25.882,51.819,51.819,0,0,0,6.983-18.274c1.652-9.931-1.2-18.424-8.444-23.184a41,41,0,0,0-11.33-5.027c-10.685-3.023-21.611-2.807-35.365-2.958Z" transform="translate(-871.275 -312.932)" fill="#eef"/>
          <path id="Tracé_277" data-name="Tracé 277" d="M1354.323,500.163c9.51.7,19.036,1.163,28.521,2.2,3.977.436,7.891,1.979,11.784,3.243a18.574,18.574,0,0,1,4.606,2.5c7.1,4.893,9.751,12.781,7.668,22.53a45.181,45.181,0,0,1-5.325,13.35,72.4,72.4,0,0,1-20.292,22.154,86.035,86.035,0,0,1-39.962,16.21,91.41,91.41,0,0,1-50.058-6.8,67.027,67.027,0,0,1-19.279-12.539,41.692,41.692,0,0,1-9.157-12.078c-4.586-9.364-3.6-18.424,2.815-25.948a40.362,40.362,0,0,1,12.569-9.483c9.581-4.975,19.661-7.669,29.854-9.724C1323.372,502.7,1338.816,501.421,1354.323,500.163Zm-26.152,79.231c4.468-.429,8.956-.673,13.4-1.322A80.876,80.876,0,0,0,1378.3,562.9a65.987,65.987,0,0,0,16.618-17.356,40.14,40.14,0,0,0,5.943-13.849c1.645-7.988-.362-14.766-6.071-18.962a34.57,34.57,0,0,0-8.635-4.478,61.61,61.61,0,0,0-20.292-3.252c-7.844-.134-15.7.128-23.542.5a196.692,196.692,0,0,0-40.018,6,82.245,82.245,0,0,0-22.356,8.869,31.55,31.55,0,0,0-10.266,9.222c-3.95,5.807-4.508,12.178-1.873,18.98a26.306,26.306,0,0,0,6.739,10.236,84.154,84.154,0,0,0,11.871,9.35c13.132,7.98,27.193,10.95,41.754,11.232Z" transform="translate(-915.719 -338.331)" fill="#eef"/>
          <path id="Tracé_278" data-name="Tracé 278" d="M1434.468,559.668c5.774-.088,11.853.073,17.751,2.007a27.208,27.208,0,0,1,7.742,3.873c4.3,3.2,5.214,8.1,2.971,13.639a25.727,25.727,0,0,1-6.387,8.993,51.614,51.614,0,0,1-20.918,11.976,59.93,59.93,0,0,1-38.576-.345,32.186,32.186,0,0,1-11.8-6.909c-6.995-6.624-6.865-14.458.416-20.547,5.971-4.99,12.814-7.265,19.752-9.065A111.386,111.386,0,0,1,1434.468,559.668Zm-6.725,8.731a59.607,59.607,0,0,0-19.246,4.012,28.407,28.407,0,0,0-7.755,4.765c-3.461,3.071-3.408,7.343.16,10.16a22.679,22.679,0,0,0,7.992,4.053,36.8,36.8,0,0,0,25.134-2.2,33.24,33.24,0,0,0,7.155-4.487c2.362-1.895,4.715-4.314,4.108-8.337-.576-3.818-3.336-5.118-5.979-5.8-3.808-.98-7.71-1.462-11.574-2.167Z" transform="translate(-1003.944 -378.471)" fill="#eef"/>
        </g>
      </g>
    </g>
  </g>
</svg>
