<svg width="48" height="48" viewBox="0 0 48 48" fill="none" xmlns="http://www.w3.org/2000/svg">
<g id="Groupe 1887">
<circle id="Ellipse 92" cx="24" cy="24" r="24" fill="#D6C5FF"/>
<g id="user-svgrepo-com">
<path id="transaction-svgrepo-com" d="M29.3697 25.4204C30.0092 25.4204 30.5275 25.9388 30.5275 26.5783C30.5275 27.172 30.0806 27.6614 29.5047 27.7283L29.3697 27.7361H15.9563L19.768 31.5487C20.1854 31.9661 20.2175 32.6228 19.8643 33.077L19.768 33.1861C19.3506 33.6035 18.6939 33.6355 18.2396 33.2824L18.1306 33.1861L12.3414 27.397C11.6438 26.6992 12.0861 25.5279 13.0286 25.4274L13.1601 25.4204H29.3697ZM28.9192 15.2428L29.0283 15.3391L34.8174 21.1282C35.5151 21.8259 35.0728 22.9973 34.1302 23.0978L33.9987 23.1048H17.7891C17.1497 23.1048 16.6313 22.5864 16.6313 21.947C16.6313 21.3532 17.0783 20.8638 17.6541 20.7969L17.7891 20.7891H31.2025L27.3909 16.9765C26.9735 16.5592 26.9414 15.9024 27.2945 15.4482L27.3909 15.3391C27.8083 14.9217 28.465 14.8896 28.9192 15.2428Z" fill="#523792"/>
</g>
</g>
</svg>
