<svg width="36" height="36" viewBox="0 0 36 36" fill="none" xmlns="http://www.w3.org/2000/svg">
<g id="Composant 325 &#226;&#128;&#147; 5">
<path id="analytics-svgrepo-com" d="M15.0588 5.88184C14.3529 5.88184 13.8824 6.35242 13.8824 7.05831V28.2348C13.8824 28.9407 14.3529 29.4112 15.0588 29.4112C15.7647 29.4112 16.2353 28.9407 16.2353 28.2348V7.05831C16.2353 6.35242 15.7647 5.88184 15.0588 5.88184ZM9.17647 17.6465C8.47059 17.6465 8 18.1171 8 18.823V28.2348C8 28.9407 8.47059 29.4112 9.17647 29.4112C9.88235 29.4112 10.3529 28.9407 10.3529 28.2348V18.823C10.3529 18.1171 9.88235 17.6465 9.17647 17.6465ZM20.9412 12.9407C20.2353 12.9407 19.7647 13.4112 19.7647 14.1171V28.2348C19.7647 28.9407 20.2353 29.4112 20.9412 29.4112C21.6471 29.4112 22.1176 28.9407 22.1176 28.2348V14.1171C22.1176 13.4112 21.6471 12.9407 20.9412 12.9407ZM26.8235 22.3524C26.1176 22.3524 25.6471 22.823 25.6471 23.5289V28.2348C25.6471 28.9407 26.1176 29.4112 26.8235 29.4112C27.5294 29.4112 28 28.9407 28 28.2348V23.5289C28 22.823 27.5294 22.3524 26.8235 22.3524Z" fill="black"/>
</g>
</svg>
