<svg width="27" height="31" viewBox="0 0 27 31" fill="none" xmlns="http://www.w3.org/2000/svg">
<circle cx="13.5" cy="17.1259" r="13.5" fill="#F7F1E9"/>
<path d="M18.5315 17.0514L14.7627 17.5142C13.9537 17.6177 13.1986 17.0892 13.0188 16.2937L10.22 3.88513C10.1211 3.44765 10.2125 2.98874 10.4715 2.62257C10.7305 2.25639 11.1328 2.01736 11.5782 1.96493L17.8596 1.19367C18.3045 1.13678 18.7527 1.27139 19.0926 1.56403C19.4325 1.85667 19.6322 2.27983 19.6421 2.72824L19.9283 15.4453C19.9463 16.2607 19.3415 16.9561 18.5315 17.0514ZM20.9447 26.3193C20.7317 24.5847 19.1529 23.3513 17.4184 23.5642C15.6838 23.7772 14.4503 25.356 14.6633 27.0906C14.8763 28.8251 16.455 30.0586 18.1896 29.8457C19.9242 29.6327 21.1577 28.0539 20.9447 26.3193Z" stroke="#EFA83D" stroke-width="1.5" stroke-linecap="round" stroke-linejoin="round"/>
</svg>
