<svg xmlns="http://www.w3.org/2000/svg" width="216.941" height="226.703" viewBox="0 0 216.941 226.703">
  <g id="_10198641_4404593" data-name="10198641_4404593" transform="translate(-35.954 -16.149)">
    <g id="Background_Complete" transform="translate(47.81 26.38)">
      <g id="Groupe_349" data-name="Groupe 349" transform="translate(33.103 103.53)">
        <path id="Tracé_408" data-name="Tracé 408" d="M124.675,247.1a54.228,54.228,0,0,1,3.924-6.461,54.231,54.231,0,0,1-3.924,6.461Z" transform="translate(-124.671 -240.635)" fill="#e0e0e0"/>
      </g>
      <g id="Groupe_350" data-name="Groupe 350" transform="translate(31.463 70.435)">
        <path id="Tracé_409" data-name="Tracé 409" d="M121.439,181.791a54.229,54.229,0,0,1,3.924-6.461,54.232,54.232,0,0,1-3.924,6.461Z" transform="translate(-121.435 -175.329)" fill="#e0e0e0"/>
      </g>
      <g id="Groupe_351" data-name="Groupe 351" transform="translate(34.837 149.583)">
        <path id="Tracé_410" data-name="Tracé 410" d="M128.1,337.973a54.228,54.228,0,0,1,3.924-6.461,54.233,54.233,0,0,1-3.924,6.461Z" transform="translate(-128.094 -331.512)" fill="#e0e0e0"/>
      </g>
      <g id="Groupe_352" data-name="Groupe 352" transform="translate(95.195 199.782)">
        <path id="Tracé_411" data-name="Tracé 411" d="M247.2,437.032a54.273,54.273,0,0,1,3.924-6.461,54.158,54.158,0,0,1-3.924,6.461Z" transform="translate(-247.199 -430.571)" fill="#e0e0e0"/>
      </g>
      <g id="Groupe_353" data-name="Groupe 353" transform="translate(1.12 158.085)">
        <path id="Tracé_412" data-name="Tracé 412" d="M61.564,354.75a27.161,27.161,0,0,1,1.849-3.3,27.269,27.269,0,0,1,2.075-3.162,27.184,27.184,0,0,1-1.849,3.3A27.155,27.155,0,0,1,61.564,354.75Z" transform="translate(-61.56 -348.289)" fill="#e0e0e0"/>
      </g>
      <g id="Groupe_354" data-name="Groupe 354" transform="translate(142.512 135.154)">
        <path id="Tracé_413" data-name="Tracé 413" d="M340.573,309.5a54.228,54.228,0,0,1,3.924-6.461,54.217,54.217,0,0,1-3.924,6.461Z" transform="translate(-340.569 -303.039)" fill="#e0e0e0"/>
      </g>
      <g id="Groupe_355" data-name="Groupe 355" transform="translate(103.215 183.863)">
        <path id="Tracé_414" data-name="Tracé 414" d="M263.028,405.619a54.26,54.26,0,0,1,3.924-6.461,54.178,54.178,0,0,1-3.924,6.461Z" transform="translate(-263.025 -399.158)" fill="#e0e0e0"/>
      </g>
      <g id="Groupe_356" data-name="Groupe 356" transform="translate(121.683 202.426)">
        <path id="Tracé_415" data-name="Tracé 415" d="M299.471,442.249a54.27,54.27,0,0,1,3.924-6.461,54.166,54.166,0,0,1-3.924,6.461Z" transform="translate(-299.467 -435.788)" fill="#e0e0e0"/>
      </g>
      <g id="Groupe_357" data-name="Groupe 357" transform="translate(165.568 126.914)">
        <path id="Tracé_416" data-name="Tracé 416" d="M386.071,293.241a54.273,54.273,0,0,1,3.924-6.461,54.169,54.169,0,0,1-3.924,6.461Z" transform="translate(-386.067 -286.78)" fill="#e0e0e0"/>
      </g>
      <g id="Groupe_358" data-name="Groupe 358" transform="translate(171.245 96.057)">
        <path id="Tracé_417" data-name="Tracé 417" d="M397.272,232.35a54.278,54.278,0,0,1,3.924-6.461,54.157,54.157,0,0,1-3.924,6.461Z" transform="translate(-397.268 -225.889)" fill="#e0e0e0"/>
      </g>
      <g id="Groupe_359" data-name="Groupe 359" transform="translate(155.894 52.29)">
        <path id="Tracé_418" data-name="Tracé 418" d="M366.98,145.985a54.236,54.236,0,0,1,3.924-6.461,27.184,27.184,0,0,1-1.849,3.3A27.217,27.217,0,0,1,366.98,145.985Z" transform="translate(-366.977 -139.523)" fill="#e0e0e0"/>
      </g>
      <g id="Groupe_360" data-name="Groupe 360" transform="translate(132.13 109.224)">
        <path id="Tracé_419" data-name="Tracé 419" d="M320.086,258.333a54.232,54.232,0,0,1,3.924-6.461,54.229,54.229,0,0,1-3.924,6.461Z" transform="translate(-320.082 -251.872)" fill="#e0e0e0"/>
      </g>
      <g id="Groupe_361" data-name="Groupe 361" transform="translate(154.387 89.904)">
        <path id="Tracé_420" data-name="Tracé 420" d="M364.007,220.208a54.231,54.231,0,0,1,3.924-6.461,54.22,54.22,0,0,1-3.924,6.461Z" transform="translate(-364.003 -213.746)" fill="#e0e0e0"/>
      </g>
      <g id="Groupe_362" data-name="Groupe 362" transform="translate(59.187 109.224)">
        <path id="Tracé_421" data-name="Tracé 421" d="M176.148,258.333a54.227,54.227,0,0,1,3.924-6.461,54.229,54.229,0,0,1-3.924,6.461Z" transform="translate(-176.145 -251.872)" fill="#e0e0e0"/>
      </g>
      <g id="Groupe_363" data-name="Groupe 363" transform="translate(15.294 198.66)">
        <path id="Tracé_422" data-name="Tracé 422" d="M89.532,434.817a54.277,54.277,0,0,1,3.924-6.461,27.185,27.185,0,0,1-1.849,3.3A27.21,27.21,0,0,1,89.532,434.817Z" transform="translate(-89.528 -428.356)" fill="#e0e0e0"/>
      </g>
      <g id="Groupe_364" data-name="Groupe 364" transform="translate(60.488 62.121)">
        <path id="Tracé_423" data-name="Tracé 423" d="M178.714,165.383a54.232,54.232,0,0,1,3.924-6.461,27.185,27.185,0,0,1-1.849,3.3A27.2,27.2,0,0,1,178.714,165.383Z" transform="translate(-178.71 -158.922)" fill="#e0e0e0"/>
      </g>
      <g id="Groupe_365" data-name="Groupe 365" transform="translate(5.044 125.037)">
        <path id="Tracé_424" data-name="Tracé 424" d="M69.307,289.536a27.116,27.116,0,0,1,1.849-3.3,27.274,27.274,0,0,1,2.075-3.162,27.187,27.187,0,0,1-1.849,3.3A27.214,27.214,0,0,1,69.307,289.536Z" transform="translate(-69.303 -283.075)" fill="#e0e0e0"/>
      </g>
      <g id="Groupe_366" data-name="Groupe 366" transform="translate(33.103 127.798)">
        <path id="Tracé_425" data-name="Tracé 425" d="M124.675,294.985a54.275,54.275,0,0,1,3.924-6.461,54.165,54.165,0,0,1-3.924,6.461Z" transform="translate(-124.671 -288.524)" fill="#e0e0e0"/>
      </g>
      <path id="Tracé_426" data-name="Tracé 426" d="M374.136,64.059a4.958,4.958,0,0,0-4.443-3.218,5.65,5.65,0,0,0-8.149-6.137,8.645,8.645,0,0,0-15.851-.6h0c-.685-.18-.978.1-1.676.224a5.151,5.151,0,0,0-4.065,4.167,6.427,6.427,0,0,0-4.914.4,4.641,4.641,0,0,0-2.439,4.139,3.653,3.653,0,0,0,3.135,3.422,6.2,6.2,0,0,0,10.389,6.754,6.667,6.667,0,0,0,6.418,3.981,6.748,6.748,0,0,0,5.887-4.752,4.638,4.638,0,0,0,8.821-2.54,4.831,4.831,0,0,0,6.887-5.843Z" transform="translate(-194.124 -42.68)" fill="#ebebeb"/>
      <path id="Tracé_427" data-name="Tracé 427" d="M428.039,122.658a3.633,3.633,0,0,0-3.256-2.358,4.14,4.14,0,0,0-5.972-4.5,6.336,6.336,0,0,0-11.617-.44h0c-.5-.132-.716.072-1.228.165a3.775,3.775,0,0,0-2.979,3.054,4.71,4.71,0,0,0-3.6.3,3.4,3.4,0,0,0-1.787,3.033,2.678,2.678,0,0,0,2.3,2.507,4.545,4.545,0,0,0,7.614,4.95,4.886,4.886,0,0,0,4.7,2.917,4.945,4.945,0,0,0,4.314-3.482,3.4,3.4,0,0,0,6.465-1.862,3.541,3.541,0,0,0,5.047-4.282Z" transform="translate(-226.185 -73.541)" fill="#f5f5f5"/>
      <path id="Tracé_428" data-name="Tracé 428" d="M93.624,47.231a3.633,3.633,0,0,0-3.256-2.358,4.14,4.14,0,0,0-5.972-4.5,6.336,6.336,0,0,0-11.617-.44h0c-.5-.132-.716.072-1.228.165a3.775,3.775,0,0,0-2.979,3.054,4.71,4.71,0,0,0-3.6.3,3.4,3.4,0,0,0-1.788,3.033,2.677,2.677,0,0,0,2.3,2.507,4.545,4.545,0,0,0,7.614,4.95,4.886,4.886,0,0,0,4.7,2.917,4.945,4.945,0,0,0,4.314-3.482,3.4,3.4,0,0,0,6.465-1.862,3.541,3.541,0,0,0,5.048-4.281Z" transform="translate(-61.238 -36.338)" fill="#f5f5f5"/>
      <path id="Tracé_429" data-name="Tracé 429" d="M160.625,82.211a8.638,8.638,0,0,0-7.741-5.607,9.844,9.844,0,0,0-14.2-10.694,15.064,15.064,0,0,0-27.62-1.047h0c-1.194-.314-1.7.171-2.921.391a8.976,8.976,0,0,0-7.083,7.26,11.2,11.2,0,0,0-8.562.7,8.09,8.09,0,0,0-4.25,7.213,6.366,6.366,0,0,0,5.462,5.962,10.806,10.806,0,0,0,18.1,11.769A11.616,11.616,0,0,0,123,105.1a11.757,11.757,0,0,0,10.257-8.28,8.081,8.081,0,0,0,15.371-4.427,8.419,8.419,0,0,0,12-10.18Z" transform="translate(-73.599 -46.191)" fill="#ebebeb"/>
      <g id="Groupe_382" data-name="Groupe 382" transform="translate(0 153.045)">
        <g id="Groupe_367" data-name="Groupe 367">
          <path id="Tracé_430" data-name="Tracé 430" d="M67.789,338.377s-3.406.1-2.329,7.654a88.309,88.309,0,0,0,2.26,11.519s.07,1.692-1.266,1.493-3.952-1.588-5.039-.242c-1.127,1.4-.484,3.3,1.412,5.423s5.881,6.933,6.24,7.369.561,1.276-.37,1.287-7.379-1.473-7.9,1.629,5.736,8.153,6.41,8.718.746.958.537,1.362-2.329-.3-4.18-.645-4.058-.424-4.209,1.39,2.881,6.774,12.818,11.3l4.742,1.8,4-3.157c8.143-7.277,9.566-12.913,8.883-14.6s-2.767-.959-4.432-.078-3.48,2.182-3.8,1.857-.367-.721.108-1.46,4.95-7.421,3.532-10.228-7.134.524-8.027.791-.945-.606-.735-1.119,2.591-6.3,3.771-8.89,1.229-4.6-.261-5.6c-1.438-.963-3.523,1.141-4.74,1.728s-1.652-1.051-1.652-1.051a88.287,88.287,0,0,0-1.262-11.67c-1.214-7.535-4.575-6.577-4.575-6.577" transform="translate(-59.35 -338.344)" fill="#ebebeb"/>
        </g>
        <g id="Groupe_369" data-name="Groupe 369" transform="translate(9.393 6.8)">
          <g id="Groupe_368" data-name="Groupe 368">
            <path id="Tracé_431" data-name="Tracé 431" d="M85.918,406.266c-.87-5.537-2.252-15.4-3.481-23.87s-2.35-16.123-3.192-21.664l-1-6.561c-.117-.77-.209-1.37-.272-1.784-.028-.2-.051-.354-.067-.465s-.017-.159-.017-.159.014.053.033.157.047.264.082.462l.3,1.78c.259,1.546.619,3.785,1.054,6.554.87,5.537,2.008,13.2,3.238,21.659s2.594,18.335,3.436,23.876" transform="translate(-77.885 -351.763)" fill="#e0e0e0"/>
          </g>
        </g>
        <g id="Groupe_371" data-name="Groupe 371" transform="translate(5.646 22.547)">
          <g id="Groupe_370" data-name="Groupe 370">
            <path id="Tracé_432" data-name="Tracé 432" d="M70.491,382.836a1.624,1.624,0,0,1,.3.208c.189.141.456.353.784.618.654.531,1.539,1.287,2.5,2.14l2.453,2.191.747.659a1.654,1.654,0,0,1,.266.253,1.637,1.637,0,0,1-.3-.205c-.189-.142-.456-.354-.781-.622-.649-.538-1.524-1.305-2.485-2.158l-2.468-2.172-.751-.656A1.608,1.608,0,0,1,70.491,382.836Z" transform="translate(-70.49 -382.836)" fill="#e0e0e0"/>
          </g>
        </g>
        <g id="Groupe_373" data-name="Groupe 373" transform="translate(13.131 20.063)">
          <g id="Groupe_372" data-name="Groupe 372">
            <path id="Tracé_433" data-name="Tracé 433" d="M85.262,386.293c-.034-.027,1.445-1.921,3.3-4.228s3.392-4.157,3.426-4.13-1.445,1.92-3.3,4.228S85.3,386.321,85.262,386.293Z" transform="translate(-85.262 -377.935)" fill="#e0e0e0"/>
          </g>
        </g>
        <g id="Groupe_375" data-name="Groupe 375" transform="translate(14.434 35.755)">
          <g id="Groupe_374" data-name="Groupe 374">
            <path id="Tracé_434" data-name="Tracé 434" d="M87.833,414.65a1.713,1.713,0,0,1,.3-.23l.835-.583c.7-.493,1.672-1.177,2.714-1.972s1.963-1.543,2.624-2.091l.784-.649a1.7,1.7,0,0,1,.3-.224,1.717,1.717,0,0,1-.259.271c-.174.166-.43.4-.752.688-.644.571-1.555,1.337-2.6,2.131s-2.026,1.469-2.747,1.939c-.361.234-.656.419-.863.542A1.766,1.766,0,0,1,87.833,414.65Z" transform="translate(-87.833 -408.901)" fill="#e0e0e0"/>
          </g>
        </g>
        <g id="Groupe_377" data-name="Groupe 377" transform="translate(6.494 37.68)">
          <g id="Groupe_376" data-name="Groupe 376">
            <path id="Tracé_435" data-name="Tracé 435" d="M72.164,412.7a1.441,1.441,0,0,1,.326.118l.863.375c.726.322,1.725.777,2.823,1.289s2.09.983,2.8,1.331l.842.42a1.486,1.486,0,0,1,.3.173,1.463,1.463,0,0,1-.325-.118l-.863-.375c-.726-.322-1.725-.778-2.823-1.29s-2.089-.983-2.8-1.331l-.842-.42A1.4,1.4,0,0,1,72.164,412.7Z" transform="translate(-72.164 -412.698)" fill="#e0e0e0"/>
          </g>
        </g>
        <g id="Groupe_379" data-name="Groupe 379" transform="translate(6.176 49.376)">
          <g id="Groupe_378" data-name="Groupe 378">
            <path id="Tracé_436" data-name="Tracé 436" d="M71.537,435.78a2.344,2.344,0,0,1,.415.155l1.108.476c.933.408,2.217.982,3.631,1.624s2.691,1.232,3.613,1.666l1.088.521a2.331,2.331,0,0,1,.39.211,2.34,2.34,0,0,1-.415-.155l-1.108-.476c-.933-.408-2.217-.982-3.631-1.624s-2.691-1.232-3.612-1.666l-1.088-.521A2.332,2.332,0,0,1,71.537,435.78Z" transform="translate(-71.537 -435.779)" fill="#e0e0e0"/>
          </g>
        </g>
        <g id="Groupe_381" data-name="Groupe 381" transform="translate(16.206 46.297)">
          <g id="Groupe_380" data-name="Groupe 380">
            <path id="Tracé_437" data-name="Tracé 437" d="M91.33,437.255a2.758,2.758,0,0,1,.368-.3l1.031-.777c.87-.657,2.068-1.568,3.362-2.612s2.444-2.016,3.27-2.727l.979-.841a2.723,2.723,0,0,1,.371-.3,2.776,2.776,0,0,1-.33.341c-.219.212-.542.513-.947.879-.808.733-1.947,1.722-3.245,2.766s-2.507,1.945-3.395,2.579c-.445.316-.807.568-1.062.737A2.793,2.793,0,0,1,91.33,437.255Z" transform="translate(-91.33 -429.702)" fill="#e0e0e0"/>
          </g>
        </g>
      </g>
      <g id="Groupe_392" data-name="Groupe 392" transform="translate(182.517 185.563)">
        <g id="Groupe_383" data-name="Groupe 383" transform="translate(8.059)">
          <path id="Tracé_438" data-name="Tracé 438" d="M439.477,402.557a5.523,5.523,0,0,1,2.653,3.418,9.768,9.768,0,0,1,.1,4.411,17.236,17.236,0,0,1-4.186,7.766c-2.264-2.243-2.585-5.928-2.631-7.807-.072-2.971,1.6-8.385,4.06-7.788" transform="translate(-435.415 -402.511)" fill="#ebebeb"/>
        </g>
        <g id="Groupe_384" data-name="Groupe 384" transform="translate(13.123 14.917)">
          <path id="Tracé_439" data-name="Tracé 439" d="M445.464,437.545a4.72,4.72,0,0,1,1.8-4.38,6.26,6.26,0,0,1,4.7-1.151,2.633,2.633,0,0,1,1.965,1.036,2.018,2.018,0,0,1-.1,2.042,4.09,4.09,0,0,1-1.6,1.393c-2.158,1.173-4.462,1.913-6.766,1.06" transform="translate(-445.407 -431.947)" fill="#ebebeb"/>
        </g>
        <g id="Groupe_386" data-name="Groupe 386" transform="translate(9.923 17.673)">
          <g id="Groupe_385" data-name="Groupe 385">
            <path id="Tracé_440" data-name="Tracé 440" d="M439.1,446.636a9.3,9.3,0,0,1,.441-1.846,8.821,8.821,0,0,1,.844-1.9,19.4,19.4,0,0,1,1.374-2.126,9.441,9.441,0,0,1,3.557-2.9,6.833,6.833,0,0,1,1.332-.428,1.513,1.513,0,0,1,.511-.049c.013.057-.71.171-1.746.682a10.128,10.128,0,0,0-3.4,2.889,22.7,22.7,0,0,0-1.373,2.079,9.731,9.731,0,0,0-.885,1.819A13.668,13.668,0,0,1,439.1,446.636Z" transform="translate(-439.092 -437.386)" fill="#e0e0e0"/>
          </g>
        </g>
        <g id="Groupe_388" data-name="Groupe 388" transform="translate(9.742 4.28)">
          <g id="Groupe_387" data-name="Groupe 387">
            <path id="Tracé_441" data-name="Tracé 441" d="M440.2,410.958a5.483,5.483,0,0,1,.035.96c0,.618-.008,1.511-.03,2.614-.044,2.207-.138,5.256-.325,8.62s-.443,6.406-.674,8.6c-.116,1.1-.219,1.986-.3,2.6a5.409,5.409,0,0,1-.161.947,5.449,5.449,0,0,1,.036-.96c.052-.673.12-1.549.2-2.605.173-2.2.392-5.238.579-8.6.162-3.333.309-6.35.419-8.609.053-1.058.1-1.936.132-2.61A5.52,5.52,0,0,1,440.2,410.958Z" transform="translate(-438.736 -410.958)" fill="#e0e0e0"/>
          </g>
        </g>
        <g id="Groupe_389" data-name="Groupe 389" transform="translate(0 13.488)">
          <path id="Tracé_442" data-name="Tracé 442" d="M429.006,437.022a11.024,11.024,0,0,0-6.609-7.607,2.324,2.324,0,0,0-2.505.151,2.285,2.285,0,0,0,0,2.509,9.416,9.416,0,0,0,9.077,5.185" transform="translate(-419.512 -429.128)" fill="#ebebeb"/>
        </g>
        <g id="Groupe_391" data-name="Groupe 391" transform="translate(3.641 16.267)">
          <g id="Groupe_390" data-name="Groupe 390">
            <path id="Tracé_443" data-name="Tracé 443" d="M426.7,434.615a1.545,1.545,0,0,1,.465.2c.292.142.7.374,1.195.675a12.44,12.44,0,0,1,3.4,3,7.8,7.8,0,0,1,1.153,2.241,7.608,7.608,0,0,1,.246,3.406,1.552,1.552,0,0,1-.112.493c-.064-.007.046-.72-.027-1.858a8.142,8.142,0,0,0-.388-1.95,8.031,8.031,0,0,0-1.13-2.142,13.99,13.99,0,0,0-3.269-3A15.9,15.9,0,0,1,426.7,434.615Z" transform="translate(-426.696 -434.612)" fill="#e0e0e0"/>
          </g>
        </g>
      </g>
    </g>
    <g id="Rain" transform="translate(47.079 87.329)">
      <g id="Groupe_410" data-name="Groupe 410">
        <g id="Groupe_393" data-name="Groupe 393" transform="translate(45.434 3.392)">
          <path id="Tracé_444" data-name="Tracé 444" d="M147.565,169.764a54.269,54.269,0,0,1,3.924-6.461,27.189,27.189,0,0,1-1.849,3.3A27.345,27.345,0,0,1,147.565,169.764Z" transform="translate(-147.561 -163.303)" fill="#263238"/>
        </g>
        <g id="Groupe_394" data-name="Groupe 394" transform="translate(61.229 17.054)">
          <path id="Tracé_445" data-name="Tracé 445" d="M178.734,196.724a54.231,54.231,0,0,1,3.924-6.461,54.225,54.225,0,0,1-3.924,6.461Z" transform="translate(-178.73 -190.262)" fill="#263238"/>
        </g>
        <g id="Groupe_395" data-name="Groupe 395" transform="translate(44.678 27.481)">
          <path id="Tracé_446" data-name="Tracé 446" d="M146.074,217.3A54.269,54.269,0,0,1,150,210.838a54.171,54.171,0,0,1-3.924,6.461Z" transform="translate(-146.07 -210.838)" fill="#263238"/>
        </g>
        <g id="Groupe_396" data-name="Groupe 396" transform="translate(22.483 70.213)">
          <path id="Tracé_447" data-name="Tracé 447" d="M102.275,301.624a54.273,54.273,0,0,1,3.924-6.461,27.189,27.189,0,0,1-1.849,3.3A27.207,27.207,0,0,1,102.275,301.624Z" transform="translate(-102.271 -295.163)" fill="#263238"/>
        </g>
        <g id="Groupe_397" data-name="Groupe 397" transform="translate(95.38 139.868)">
          <path id="Tracé_448" data-name="Tracé 448" d="M246.125,439.075a54.274,54.274,0,0,1,3.924-6.461,54.163,54.163,0,0,1-3.924,6.461Z" transform="translate(-246.121 -432.614)" fill="#263238"/>
        </g>
        <g id="Groupe_398" data-name="Groupe 398" transform="translate(137.458)">
          <path id="Tracé_449" data-name="Tracé 449" d="M329.158,163.071a54.275,54.275,0,0,1,3.924-6.461,27.186,27.186,0,0,1-1.849,3.3A27.234,27.234,0,0,1,329.158,163.071Z" transform="translate(-329.155 -156.61)" fill="#263238"/>
        </g>
        <g id="Groupe_399" data-name="Groupe 399" transform="translate(163.142 1.155)">
          <path id="Tracé_450" data-name="Tracé 450" d="M379.841,165.351a54.217,54.217,0,0,1,3.924-6.461,27.189,27.189,0,0,1-1.849,3.3A27.134,27.134,0,0,1,379.841,165.351Z" transform="translate(-379.837 -158.889)" fill="#263238"/>
        </g>
        <g id="Groupe_400" data-name="Groupe 400" transform="translate(141.281 25.132)">
          <path id="Tracé_451" data-name="Tracé 451" d="M336.7,212.665a54.231,54.231,0,0,1,3.924-6.461,54.22,54.22,0,0,1-3.924,6.461Z" transform="translate(-336.697 -206.203)" fill="#263238"/>
        </g>
        <g id="Groupe_401" data-name="Groupe 401" transform="translate(151.567 54.601)">
          <path id="Tracé_452" data-name="Tracé 452" d="M357,270.815a54.279,54.279,0,0,1,3.924-6.461A54.18,54.18,0,0,1,357,270.815Z" transform="translate(-356.996 -264.354)" fill="#263238"/>
        </g>
        <g id="Groupe_402" data-name="Groupe 402" transform="translate(153.156 88.634)">
          <path id="Tracé_453" data-name="Tracé 453" d="M360.135,337.973a54.231,54.231,0,0,1,3.924-6.461,54.231,54.231,0,0,1-3.924,6.461Z" transform="translate(-360.132 -331.512)" fill="#263238"/>
        </g>
        <g id="Groupe_403" data-name="Groupe 403" transform="translate(0 134.023)">
          <path id="Tracé_454" data-name="Tracé 454" d="M57.91,427.541a27.163,27.163,0,0,1,1.849-3.3,27.271,27.271,0,0,1,2.075-3.162,27.187,27.187,0,0,1-1.849,3.3A27.156,27.156,0,0,1,57.91,427.541Z" transform="translate(-57.906 -421.08)" fill="#263238"/>
        </g>
        <g id="Groupe_404" data-name="Groupe 404" transform="translate(20.162 46.043)">
          <path id="Tracé_455" data-name="Tracé 455" d="M97.7,253.93a54.225,54.225,0,0,1,3.924-6.461,27.184,27.184,0,0,1-1.849,3.3A27.2,27.2,0,0,1,97.7,253.93Z" transform="translate(-97.692 -247.468)" fill="#263238"/>
        </g>
        <g id="Groupe_405" data-name="Groupe 405" transform="translate(47.865 52.726)">
          <path id="Tracé_456" data-name="Tracé 456" d="M152.362,267.116a54.274,54.274,0,0,1,3.924-6.461,54.169,54.169,0,0,1-3.924,6.461Z" transform="translate(-152.358 -260.655)" fill="#263238"/>
        </g>
        <g id="Groupe_406" data-name="Groupe 406" transform="translate(18.638 100.827)">
          <path id="Tracé_457" data-name="Tracé 457" d="M94.689,362.034a54.278,54.278,0,0,1,3.924-6.461,27.183,27.183,0,0,1-1.849,3.3A27.168,27.168,0,0,1,94.689,362.034Z" transform="translate(-94.685 -355.572)" fill="#263238"/>
        </g>
        <g id="Groupe_407" data-name="Groupe 407" transform="translate(99.858 113.586)">
          <path id="Tracé_458" data-name="Tracé 458" d="M254.961,387.211a54.231,54.231,0,0,1,3.924-6.461,54.224,54.224,0,0,1-3.924,6.461Z" transform="translate(-254.957 -380.75)" fill="#263238"/>
        </g>
        <g id="Groupe_408" data-name="Groupe 408" transform="translate(117.085 128.688)">
          <path id="Tracé_459" data-name="Tracé 459" d="M288.955,417.013a54.273,54.273,0,0,1,3.924-6.461,54.169,54.169,0,0,1-3.924,6.461Z" transform="translate(-288.952 -410.552)" fill="#263238"/>
        </g>
        <g id="Groupe_409" data-name="Groupe 409" transform="translate(113.312 43.22)">
          <path id="Tracé_460" data-name="Tracé 460" d="M281.51,248.358a54.231,54.231,0,0,1,3.924-6.461,54.231,54.231,0,0,1-3.924,6.461Z" transform="translate(-281.507 -241.897)" fill="#263238"/>
        </g>
      </g>
    </g>
    <g id="Cloud" transform="translate(101.272 16.149)">
      <path id="Tracé_461" data-name="Tracé 461" d="M272.652,54.719a12.865,12.865,0,0,0-11.529-8.351,14.661,14.661,0,0,0-21.148-15.927,22.435,22.435,0,0,0-41.135-1.559h0c-1.778-.467-2.536.255-4.35.583a13.369,13.369,0,0,0-10.549,10.813,16.681,16.681,0,0,0-12.751,1.047,12.05,12.05,0,0,0-6.33,10.742c.229,4.374,3.771,8.508,8.136,8.879-4.157,7.057-1.772,17.2,5.094,21.661s17.1,2.529,21.865-4.133a17.3,17.3,0,0,0,16.656,10.331,17.512,17.512,0,0,0,15.276-12.332,12.035,12.035,0,0,0,22.892-6.592,12.537,12.537,0,0,0,17.872-15.164Z" transform="translate(-164.847 -16.149)" fill="#455a64"/>
      <g id="Groupe_411" data-name="Groupe 411" transform="translate(20.551 20.39)">
        <path id="Tracé_462" data-name="Tracé 462" d="M239.12,60.965c-.03.024-.4-.532-1.269-1.349a11.6,11.6,0,0,0-4.336-2.479,11.754,11.754,0,0,0-3.415-.532,10.163,10.163,0,0,0-3.881.719,11.276,11.276,0,0,0-6.194,6.321,10.822,10.822,0,0,0-.765,4.453l.008.2-.183-.07a10.247,10.247,0,0,0-7.3.043,9.855,9.855,0,0,0-4.587,3.683,10.438,10.438,0,0,0-1.562,3.627,9.578,9.578,0,0,0-.179,1.056A2.218,2.218,0,0,1,205.4,77a2.236,2.236,0,0,1,.008-.373,7.724,7.724,0,0,1,.136-1.07,10.165,10.165,0,0,1,1.512-3.7,10.49,10.49,0,0,1,1.854-2.115,9.756,9.756,0,0,1,2.791-1.685,10.429,10.429,0,0,1,7.474-.074l-.176.128a11.019,11.019,0,0,1,.778-4.564,11.467,11.467,0,0,1,6.351-6.451,10.321,10.321,0,0,1,3.971-.711,11.82,11.82,0,0,1,3.469.573,11.38,11.38,0,0,1,4.35,2.581,9.234,9.234,0,0,1,.918,1.033l.215.288A.445.445,0,0,1,239.12,60.965Z" transform="translate(-205.399 -56.385)" fill="#263238"/>
      </g>
    </g>
    <g id="Character" transform="translate(76.487 90.338)">
      <g id="Groupe_595" data-name="Groupe 595">
        <g id="Groupe_533" data-name="Groupe 533" transform="translate(115.207 122.712)">
          <g id="Groupe_475" data-name="Groupe 475" transform="translate(2.477)">
            <g id="Groupe_474" data-name="Groupe 474">
              <g id="Groupe_473" data-name="Groupe 473">
                <g id="Groupe_418" data-name="Groupe 418">
                  <g id="Groupe_417" data-name="Groupe 417">
                    <g id="Groupe_416" data-name="Groupe 416">
                      <g id="Groupe_415" data-name="Groupe 415">
                        <g id="Groupe_414" data-name="Groupe 414">
                          <g id="Groupe_413" data-name="Groupe 413">
                            <g id="Groupe_412" data-name="Groupe 412">
                              <path id="Tracé_463" data-name="Tracé 463" d="M358.8,404.7l10.237,11.32s14.944-6.6,17.039-4.7l-21.236,20.637-16.674-16.984Z" transform="translate(-348.164 -404.696)" fill="#efa83d"/>
                            </g>
                          </g>
                        </g>
                      </g>
                    </g>
                  </g>
                </g>
                <g id="Groupe_425" data-name="Groupe 425" opacity="0.3">
                  <g id="Groupe_424" data-name="Groupe 424">
                    <g id="Groupe_423" data-name="Groupe 423">
                      <g id="Groupe_422" data-name="Groupe 422">
                        <g id="Groupe_421" data-name="Groupe 421">
                          <g id="Groupe_420" data-name="Groupe 420">
                            <g id="Groupe_419" data-name="Groupe 419">
                              <path id="Tracé_464" data-name="Tracé 464" d="M358.8,404.7l10.237,11.32s14.944-6.6,17.039-4.7l-21.236,20.637-16.674-16.984Z" transform="translate(-348.164 -404.696)"/>
                            </g>
                          </g>
                        </g>
                      </g>
                    </g>
                  </g>
                </g>
                <g id="Groupe_433" data-name="Groupe 433" transform="translate(13.259 16.237)">
                  <g id="Groupe_432" data-name="Groupe 432">
                    <g id="Groupe_431" data-name="Groupe 431">
                      <g id="Groupe_430" data-name="Groupe 430">
                        <g id="Groupe_429" data-name="Groupe 429">
                          <g id="Groupe_428" data-name="Groupe 428">
                            <g id="Groupe_427" data-name="Groupe 427">
                              <g id="Groupe_426" data-name="Groupe 426">
                                <path id="Tracé_465" data-name="Tracé 465" d="M374.479,437.281a1.209,1.209,0,0,0,.362,1.572,1.163,1.163,0,0,0,1.562-.345,1.275,1.275,0,0,0-.392-1.663,1.206,1.206,0,0,0-1.585.539" transform="translate(-374.327 -436.737)" fill="#e0e0e0"/>
                              </g>
                            </g>
                          </g>
                        </g>
                      </g>
                    </g>
                  </g>
                </g>
                <g id="Groupe_440" data-name="Groupe 440" transform="translate(15.061 6.198)">
                  <g id="Groupe_439" data-name="Groupe 439">
                    <g id="Groupe_438" data-name="Groupe 438">
                      <g id="Groupe_437" data-name="Groupe 437">
                        <g id="Groupe_436" data-name="Groupe 436">
                          <g id="Groupe_435" data-name="Groupe 435">
                            <g id="Groupe_434" data-name="Groupe 434">
                              <path id="Tracé_466" data-name="Tracé 466" d="M379.5,437.99l-1.614-1.778,20.964-19.121s1.345-.507,1.886.263Z" transform="translate(-377.884 -416.927)" fill="#263238"/>
                            </g>
                          </g>
                        </g>
                      </g>
                    </g>
                  </g>
                </g>
                <g id="Groupe_448" data-name="Groupe 448" transform="translate(19.987 10.861)">
                  <g id="Groupe_447" data-name="Groupe 447">
                    <g id="Groupe_446" data-name="Groupe 446">
                      <g id="Groupe_445" data-name="Groupe 445">
                        <g id="Groupe_444" data-name="Groupe 444">
                          <g id="Groupe_443" data-name="Groupe 443">
                            <g id="Groupe_442" data-name="Groupe 442">
                              <g id="Groupe_441" data-name="Groupe 441">
                                <path id="Tracé_467" data-name="Tracé 467" d="M388.728,426.144c.1.107-.376.658-.562,1.487-.208.825-.034,1.529-.17,1.581-.115.072-.563-.7-.32-1.7S388.658,426.027,388.728,426.144Z" transform="translate(-387.605 -426.127)" fill="#263238"/>
                              </g>
                            </g>
                          </g>
                        </g>
                      </g>
                    </g>
                  </g>
                </g>
                <g id="Groupe_456" data-name="Groupe 456" transform="translate(23.64 9.625)">
                  <g id="Groupe_455" data-name="Groupe 455">
                    <g id="Groupe_454" data-name="Groupe 454">
                      <g id="Groupe_453" data-name="Groupe 453">
                        <g id="Groupe_452" data-name="Groupe 452">
                          <g id="Groupe_451" data-name="Groupe 451">
                            <g id="Groupe_450" data-name="Groupe 450">
                              <g id="Groupe_449" data-name="Groupe 449">
                                <path id="Tracé_468" data-name="Tracé 468" d="M395.406,423.7c.121.078-.157.69-.083,1.471.051.783.423,1.343.315,1.439-.082.111-.743-.427-.817-1.4S395.307,423.6,395.406,423.7Z" transform="translate(-394.813 -423.689)" fill="#263238"/>
                              </g>
                            </g>
                          </g>
                        </g>
                      </g>
                    </g>
                  </g>
                </g>
                <g id="Groupe_464" data-name="Groupe 464" transform="translate(26.952 8.497)">
                  <g id="Groupe_463" data-name="Groupe 463">
                    <g id="Groupe_462" data-name="Groupe 462">
                      <g id="Groupe_461" data-name="Groupe 461">
                        <g id="Groupe_460" data-name="Groupe 460">
                          <g id="Groupe_459" data-name="Groupe 459">
                            <g id="Groupe_458" data-name="Groupe 458">
                              <g id="Groupe_457" data-name="Groupe 457">
                                <path id="Tracé_469" data-name="Tracé 469" d="M402.484,424.037c-.073.114-.721-.265-1.006-1.091s-.02-1.524.107-1.48c.141.028.123.639.367,1.314C402.182,423.461,402.578,423.927,402.484,424.037Z" transform="translate(-401.348 -421.464)" fill="#263238"/>
                              </g>
                            </g>
                          </g>
                        </g>
                      </g>
                    </g>
                  </g>
                </g>
                <g id="Groupe_472" data-name="Groupe 472" transform="translate(16.356 8.513)">
                  <g id="Groupe_471" data-name="Groupe 471">
                    <g id="Groupe_470" data-name="Groupe 470">
                      <g id="Groupe_469" data-name="Groupe 469">
                        <g id="Groupe_468" data-name="Groupe 468">
                          <g id="Groupe_467" data-name="Groupe 467">
                            <g id="Groupe_466" data-name="Groupe 466">
                              <g id="Groupe_465" data-name="Groupe 465">
                                <path id="Tracé_470" data-name="Tracé 470" d="M382.574,421.538c.048.137-.567.456-1.114,1.065s-.825,1.238-.965,1.2c-.133-.017-.06-.833.594-1.542S382.546,421.407,382.574,421.538Z" transform="translate(-380.44 -421.495)" fill="#263238"/>
                              </g>
                            </g>
                          </g>
                        </g>
                      </g>
                    </g>
                  </g>
                </g>
              </g>
            </g>
          </g>
          <g id="Groupe_532" data-name="Groupe 532" transform="translate(0 2.54)">
            <g id="Groupe_531" data-name="Groupe 531">
              <g id="Groupe_530" data-name="Groupe 530">
                <g id="Groupe_482" data-name="Groupe 482">
                  <g id="Groupe_481" data-name="Groupe 481">
                    <g id="Groupe_480" data-name="Groupe 480">
                      <g id="Groupe_479" data-name="Groupe 479">
                        <g id="Groupe_478" data-name="Groupe 478">
                          <g id="Groupe_477" data-name="Groupe 477">
                            <g id="Groupe_476" data-name="Groupe 476">
                              <path id="Tracé_471" data-name="Tracé 471" d="M353.91,409.709l10.237,11.32s14.944-6.6,17.039-4.7L359.951,436.97l-16.673-16.984Z" transform="translate(-343.277 -409.709)" fill="#efa83d"/>
                            </g>
                          </g>
                        </g>
                      </g>
                    </g>
                  </g>
                </g>
                <g id="Groupe_490" data-name="Groupe 490" transform="translate(13.258 16.237)">
                  <g id="Groupe_489" data-name="Groupe 489">
                    <g id="Groupe_488" data-name="Groupe 488">
                      <g id="Groupe_487" data-name="Groupe 487">
                        <g id="Groupe_486" data-name="Groupe 486">
                          <g id="Groupe_485" data-name="Groupe 485">
                            <g id="Groupe_484" data-name="Groupe 484">
                              <g id="Groupe_483" data-name="Groupe 483">
                                <path id="Tracé_472" data-name="Tracé 472" d="M369.591,442.294a1.209,1.209,0,0,0,.362,1.572,1.163,1.163,0,0,0,1.562-.345,1.275,1.275,0,0,0-.392-1.663,1.206,1.206,0,0,0-1.585.539" transform="translate(-369.439 -441.75)" fill="#e0e0e0"/>
                              </g>
                            </g>
                          </g>
                        </g>
                      </g>
                    </g>
                  </g>
                </g>
                <g id="Groupe_497" data-name="Groupe 497" transform="translate(15.06 6.198)">
                  <g id="Groupe_496" data-name="Groupe 496">
                    <g id="Groupe_495" data-name="Groupe 495">
                      <g id="Groupe_494" data-name="Groupe 494">
                        <g id="Groupe_493" data-name="Groupe 493">
                          <g id="Groupe_492" data-name="Groupe 492">
                            <g id="Groupe_491" data-name="Groupe 491">
                              <path id="Tracé_473" data-name="Tracé 473" d="M374.61,443,373,441.224,393.96,422.1s1.345-.507,1.886.262Z" transform="translate(-372.996 -421.939)" fill="#263238"/>
                            </g>
                          </g>
                        </g>
                      </g>
                    </g>
                  </g>
                </g>
                <g id="Groupe_505" data-name="Groupe 505" transform="translate(19.987 10.86)">
                  <g id="Groupe_504" data-name="Groupe 504">
                    <g id="Groupe_503" data-name="Groupe 503">
                      <g id="Groupe_502" data-name="Groupe 502">
                        <g id="Groupe_501" data-name="Groupe 501">
                          <g id="Groupe_500" data-name="Groupe 500">
                            <g id="Groupe_499" data-name="Groupe 499">
                              <g id="Groupe_498" data-name="Groupe 498">
                                <path id="Tracé_474" data-name="Tracé 474" d="M383.84,431.156c.1.107-.375.658-.562,1.487-.208.825-.034,1.529-.17,1.581-.115.073-.563-.7-.32-1.7S383.77,431.039,383.84,431.156Z" transform="translate(-382.717 -431.139)" fill="#263238"/>
                              </g>
                            </g>
                          </g>
                        </g>
                      </g>
                    </g>
                  </g>
                </g>
                <g id="Groupe_513" data-name="Groupe 513" transform="translate(23.64 9.624)">
                  <g id="Groupe_512" data-name="Groupe 512">
                    <g id="Groupe_511" data-name="Groupe 511">
                      <g id="Groupe_510" data-name="Groupe 510">
                        <g id="Groupe_509" data-name="Groupe 509">
                          <g id="Groupe_508" data-name="Groupe 508">
                            <g id="Groupe_507" data-name="Groupe 507">
                              <g id="Groupe_506" data-name="Groupe 506">
                                <path id="Tracé_475" data-name="Tracé 475" d="M390.518,428.711c.121.078-.157.69-.083,1.471.051.783.423,1.343.316,1.439-.082.111-.743-.427-.817-1.4S390.419,428.614,390.518,428.711Z" transform="translate(-389.926 -428.701)" fill="#263238"/>
                              </g>
                            </g>
                          </g>
                        </g>
                      </g>
                    </g>
                  </g>
                </g>
                <g id="Groupe_521" data-name="Groupe 521" transform="translate(26.951 8.497)">
                  <g id="Groupe_520" data-name="Groupe 520">
                    <g id="Groupe_519" data-name="Groupe 519">
                      <g id="Groupe_518" data-name="Groupe 518">
                        <g id="Groupe_517" data-name="Groupe 517">
                          <g id="Groupe_516" data-name="Groupe 516">
                            <g id="Groupe_515" data-name="Groupe 515">
                              <g id="Groupe_514" data-name="Groupe 514">
                                <path id="Tracé_476" data-name="Tracé 476" d="M397.6,429.05c-.073.114-.721-.264-1.006-1.091s-.02-1.524.107-1.48c.141.028.123.639.367,1.314C397.294,428.474,397.69,428.94,397.6,429.05Z" transform="translate(-396.46 -426.477)" fill="#263238"/>
                              </g>
                            </g>
                          </g>
                        </g>
                      </g>
                    </g>
                  </g>
                </g>
                <g id="Groupe_529" data-name="Groupe 529" transform="translate(16.356 8.513)">
                  <g id="Groupe_528" data-name="Groupe 528">
                    <g id="Groupe_527" data-name="Groupe 527">
                      <g id="Groupe_526" data-name="Groupe 526">
                        <g id="Groupe_525" data-name="Groupe 525">
                          <g id="Groupe_524" data-name="Groupe 524">
                            <g id="Groupe_523" data-name="Groupe 523">
                              <g id="Groupe_522" data-name="Groupe 522">
                                <path id="Tracé_477" data-name="Tracé 477" d="M377.686,426.551c.048.137-.567.456-1.114,1.065s-.825,1.238-.965,1.2c-.133-.017-.06-.833.594-1.542S377.658,426.42,377.686,426.551Z" transform="translate(-375.552 -426.507)" fill="#263238"/>
                              </g>
                            </g>
                          </g>
                        </g>
                      </g>
                    </g>
                  </g>
                </g>
              </g>
            </g>
          </g>
        </g>
        <g id="Groupe_568" data-name="Groupe 568" transform="translate(42.579)">
          <g id="Groupe_562" data-name="Groupe 562">
            <g id="Groupe_534" data-name="Groupe 534" transform="translate(4.001)">
              <path id="Tracé_478" data-name="Tracé 478" d="M208.289,182.523a1.366,1.366,0,0,1,.481-2.281c-.462-.643.188-1.546.926-1.831a12.442,12.442,0,0,0,2.26-.69,1.623,1.623,0,0,1-1.145-2.1,1.324,1.324,0,0,1,.29-2.553c-.642-.377-.056-1.454.68-1.559a15.278,15.278,0,0,1,2.2.279,8.752,8.752,0,0,1,5.368-.456l-1.762-3.345a1.753,1.753,0,0,1-.273-.845c.021-.657.734-1.054,1.369-1.224a7.1,7.1,0,0,1,4.11.139c.423.145.906.451.85.893a6.363,6.363,0,0,1,2.919,1.016,2.454,2.454,0,0,1,1.264,1.154,4.842,4.842,0,0,0-.391-1.689,2.079,2.079,0,0,1,.029-1.691c.3-.5,1.148-.647,1.442-.145-.377-.461.06-1.211.638-1.356a2.7,2.7,0,0,1,1.715.349c.379.17.826.461.756.87a1.164,1.164,0,0,1,1.98.756,1.436,1.436,0,0,1,1.8,1.039,1.847,1.847,0,0,1,1.939,2q-.144-1.567-.288-3.134c-.054-.592.311-1.477.817-1.167a1.287,1.287,0,0,1-.012-2.108,2.206,2.206,0,0,1,2.394.128l.205,1.28a1.678,1.678,0,0,1,1.509,2.793c.465-.182.978.283,1.04.779a2.5,2.5,0,0,1-.407,1.417,1.435,1.435,0,0,1,1.5,2.029,4.679,4.679,0,0,1,2.415.6,1.65,1.65,0,0,1,2.949-1.188,1.627,1.627,0,0,1,2.466-.287c.662-.775,2.141-.876,2.569.049.443.956-.513,1.941-1.362,2.565l-2.763,2.027,5.974-.277a.92.92,0,0,1,.543.087c.216.138.277.424.434.626.218.281.6.376.864.617.717.658.09,1.933-.8,2.321a24.2,24.2,0,0,1-2.855.563l1.923,1.409a2.394,2.394,0,0,1,3.486-.129c.66-.643,1.753-.242,2.567.19a3.383,3.383,0,0,1,1.794,1.619,2.3,2.3,0,0,1-1.273,2.61,6.714,6.714,0,0,1-3.09.53c-.16.7.568,1.287,1.254,1.5a4.316,4.316,0,0,1,1.971.8c.676.7.515,1.936,1.2,2.632a3.9,3.9,0,0,1,.635.612,1.659,1.659,0,0,1,.039,1.226q-.173.76-.347,1.521a1.842,1.842,0,0,1-.273.716c-.507.674-1.625.338-2.192-.287s-.9-1.469-1.6-1.94a6.381,6.381,0,0,1,1.638,3.242c.1,1.225-.845,2.608-2.068,2.483s-1.841-1.538-2.22-2.722-1.067-2.584-2.311-2.605" transform="translate(-207.856 -162.548)" fill="#263238"/>
            </g>
            <g id="Groupe_535" data-name="Groupe 535" transform="translate(0 10.239)">
              <path id="Tracé_479" data-name="Tracé 479" d="M206.235,192.564a1.5,1.5,0,0,0-2.61.205,3.137,3.137,0,0,0-3.4,4.382c.372.825,1.6,1.437,2.12.694a2.442,2.442,0,0,0,.914,2.1,2.366,2.366,0,0,0-.585,3.436,2.521,2.521,0,0,0-1.408,3.957,1.931,1.931,0,1,0,2.5,2.941,4.1,4.1,0,0,0,.328,2.294,1.417,1.417,0,0,0,1.988.563,2.652,2.652,0,0,0,2.72,3.064,1.715,1.715,0,0,0,2.787,1.99l3.839,2.209a15.8,15.8,0,0,0,2.63,1.3,7.936,7.936,0,0,0,3.7.365,2.692,2.692,0,0,1,1.2-.018,2.758,2.758,0,0,1,1.061.867,7.169,7.169,0,0,0,6.684,2.065,3.6,3.6,0,0,1,1.137-.162,3.224,3.224,0,0,1,1.218.507,12.931,12.931,0,0,0,3.01,1.233,3.425,3.425,0,0,0,2.713-.133c.786-.5,1.008-1.859.2-2.32a2,2,0,0,1,1.279-1.2,1.206,1.206,0,0,1,1.444.771c.144.588-.5,1.253-1.061,1.017a1.788,1.788,0,0,0,2.985.021,2.4,2.4,0,0,0-.936-3.144,5.509,5.509,0,0,0,1.418-2.274,1.97,1.97,0,0,0,2.158,1.623,3.4,3.4,0,0,0,1.093,2.476,2.034,2.034,0,0,0,2.557.082,1.465,1.465,0,0,0-.243-2.331,1.75,1.75,0,0,0-.057-2.971,2.723,2.723,0,0,0,.033-3.334,1.433,1.433,0,0,0,2.156.355c.035,1.053,1.329,1.561,2.382,1.563a1.913,1.913,0,0,0,2.078-1.192,2.167,2.167,0,0,0-.038-1.486,5.366,5.366,0,0,0-2.45-2.4,14.143,14.143,0,0,1,1.065-4.5,2.725,2.725,0,0,0,3.51-.5l-4.056-6.345s-12.372-8.448-12.851-8.677-35.27.8-35.27.8a1.764,1.764,0,0,1-2.174-1.573,2.87,2.87,0,0,1,1.492-2.544,8.447,8.447,0,0,1,2.948-.921,4.19,4.19,0,0,1-2.129-1.993,1.577,1.577,0,0,1,.356-1.727c.69-.616,1.555-.137,2.335-.3a3.57,3.57,0,0,0,1.221-.667" transform="translate(-199.96 -182.753)" fill="#263238"/>
            </g>
            <g id="Groupe_536" data-name="Groupe 536" transform="translate(6.325 17.418)">
              <path id="Tracé_480" data-name="Tracé 480" d="M231.019,197.091l16.662,3.231c5.007,1.736,5.42,9.1,3.473,14.028-2.163,5.476-5.019,12.076-7.513,15.748-5.015,7.384-11.607,5.527-11.607,5.527.011-.028-.547,1.161-1.943,4.045l-.947,1.575-16.7-7.63,14.73-34.857A3.1,3.1,0,0,1,231.019,197.091Z" transform="translate(-212.442 -196.919)" fill="#aa7d6d"/>
            </g>
            <g id="Groupe_537" data-name="Groupe 537" transform="translate(38.166 38.342)">
              <path id="Tracé_481" data-name="Tracé 481" d="M277.45,239.713a1.131,1.131,0,0,1-1.472.569,1.081,1.081,0,0,1-.622-1.418,1.131,1.131,0,0,1,1.471-.57A1.082,1.082,0,0,1,277.45,239.713Z" transform="translate(-275.273 -238.207)" fill="#263238"/>
            </g>
            <g id="Groupe_538" data-name="Groupe 538" transform="translate(38.013 35.254)">
              <path id="Tracé_482" data-name="Tracé 482" d="M279,234.431c-.19.074-.7-.864-1.8-1.378-1.094-.53-2.168-.343-2.224-.534-.031-.087.212-.268.684-.358a3.106,3.106,0,0,1,1.858.262,2.978,2.978,0,0,1,1.353,1.264C279.084,234.105,279.086,234.4,279,234.431Z" transform="translate(-274.971 -232.115)" fill="#263238"/>
            </g>
            <g id="Groupe_539" data-name="Groupe 539" transform="translate(27.839 33.709)">
              <path id="Tracé_483" data-name="Tracé 483" d="M257.071,230.571a1.131,1.131,0,0,1-1.472.569,1.081,1.081,0,0,1-.621-1.418,1.131,1.131,0,0,1,1.471-.57A1.082,1.082,0,0,1,257.071,230.571Z" transform="translate(-254.895 -229.065)" fill="#263238"/>
            </g>
            <g id="Groupe_540" data-name="Groupe 540" transform="translate(27.091 30.375)">
              <path id="Tracé_484" data-name="Tracé 484" d="M257.444,224.8c-.19.073-.7-.865-1.8-1.378-1.094-.53-2.168-.343-2.224-.534-.03-.087.21-.268.684-.358a3.1,3.1,0,0,1,1.858.261,2.981,2.981,0,0,1,1.353,1.264C257.532,224.478,257.534,224.773,257.444,224.8Z" transform="translate(-253.419 -222.487)" fill="#263238"/>
            </g>
            <g id="Groupe_541" data-name="Groupe 541" transform="translate(31.276 33.323)">
              <path id="Tracé_485" data-name="Tracé 485" d="M261.678,237.717a8.071,8.071,0,0,1,1.94.517c.295.1.587.172.725,0a1.582,1.582,0,0,0,.2-.922q.083-1.207.174-2.532a40.775,40.775,0,0,1,.763-6.478,40.731,40.731,0,0,1-.24,6.524q-.113,1.323-.215,2.528a1.8,1.8,0,0,1-.372,1.172.781.781,0,0,1-.656.194,2.1,2.1,0,0,1-.509-.158A7.885,7.885,0,0,1,261.678,237.717Z" transform="translate(-261.678 -228.305)" fill="#263238"/>
            </g>
            <g id="Groupe_542" data-name="Groupe 542" transform="translate(16.57 48.254)">
              <path id="Tracé_486" data-name="Tracé 486" d="M242,265.638a22.427,22.427,0,0,1-9.348-7.87s.089,6.793,8.426,9.8Z" transform="translate(-232.657 -257.768)" fill="#896255"/>
            </g>
            <path id="Tracé_487" data-name="Tracé 487" d="M253.806,246.474a1.863,1.863,0,0,0-2.668,1.957,1.908,1.908,0,0,0,1.509,1.528,2.79,2.79,0,0,0,1.691.007l.075-.077a2.113,2.113,0,0,0-.58-3.4Z" transform="translate(-225.193 -203.855)" fill="#896255"/>
            <g id="Groupe_543" data-name="Groupe 543" transform="translate(25.6 42.839)">
              <path id="Tracé_488" data-name="Tracé 488" d="M254.06,250.828c-.2-.006-.086-1.322-1.131-2.353s-2.458-1.009-2.452-1.194c-.011-.084.334-.229.928-.193a3.287,3.287,0,0,1,2.053.922,2.865,2.865,0,0,1,.864,1.966C254.324,250.53,254.149,250.843,254.06,250.828Z" transform="translate(-250.476 -247.082)" fill="#263238"/>
            </g>
            <g id="Groupe_544" data-name="Groupe 544" transform="translate(27.337 28.289)">
              <path id="Tracé_489" data-name="Tracé 489" d="M253.927,218.461c.2-.287,1.333.188,2.754.4,1.417.243,2.638.147,2.742.483.044.159-.233.406-.767.59a4.839,4.839,0,0,1-4.187-.675C254.02,218.919,253.835,218.6,253.927,218.461Z" transform="translate(-253.904 -218.371)" fill="#263238"/>
            </g>
            <g id="Groupe_545" data-name="Groupe 545" transform="translate(39.455 31.861)">
              <path id="Tracé_490" data-name="Tracé 490" d="M281.491,227.752c-.311.159-.948-.457-1.854-.9-.891-.472-1.764-.623-1.819-.968-.018-.164.221-.357.67-.435a2.982,2.982,0,0,1,2.959,1.5C281.649,227.362,281.634,227.67,281.491,227.752Z" transform="translate(-277.817 -225.42)" fill="#263238"/>
            </g>
            <g id="Groupe_546" data-name="Groupe 546" transform="translate(12.638 11.508)">
              <path id="Tracé_491" data-name="Tracé 491" d="M229.836,201.361a1.474,1.474,0,0,0-.349,1.7,1.017,1.017,0,0,0,1.476.262c.123.633,1.148.54,1.33-.121.315.447,1.155.14,1.276-.467.407.432,1.091-.233,1.612-.647a9.519,9.519,0,0,1,.906-.575,6.194,6.194,0,0,0,2.261-2.6,6.062,6.062,0,0,0,2.355-2.483l1.195-1.862.589-.282a1.193,1.193,0,0,0,.218,1.37,2.543,2.543,0,0,0,1.208.559l1.292.34.633.57a3.319,3.319,0,0,0-.711,2.031,2.059,2.059,0,0,0,.165,1.4.62.62,0,0,0,1.067-.222.687.687,0,0,0,1.031.312,2.259,2.259,0,0,0,.854-1.089,5.777,5.777,0,0,0,.436-3.323l1.122,2.914a1.068,1.068,0,0,0,.354.551.6.6,0,0,0,.288.878,1.566,1.566,0,0,0,1.008-.147c.754-.284,1.714-.921,1.555-1.728.255.068.565-.269.512-.555l1.473,2.9c-.167-.247-.6-.01-.693.316a1.374,1.374,0,0,0,.152.925,2.023,2.023,0,0,0-.8.975c-.237-.579-1.2-.185-1.36.482a1.464,1.464,0,0,0,.767,1.556,1.018,1.018,0,0,0,1.366-.177c.459.355,1.292-.11,1.388-.775.25.426.9-.082,1.159-.574a8.029,8.029,0,0,0,.9-2.9c-.077.122.015.3.141.274a.221.221,0,0,0,.112-.326q-.116,1.919-.232,3.838a8.3,8.3,0,0,1-.568,3.012c-.177.386-.387.931-.083,1.12a.528.528,0,0,0,.284.056,5.317,5.317,0,0,0,3.28-1.428,4.015,4.015,0,0,0,.865-.97,17.223,17.223,0,0,0,.847-2.592,8.924,8.924,0,0,0,.453-1.119,3.626,3.626,0,0,0-.159-1.823c-.554-2.058-1.155-4.2-2.554-5.6-.855-.853-1.958-1.372-2.821-2.216A20.385,20.385,0,0,1,256,191.357a17.414,17.414,0,0,0-7.534-5,14.345,14.345,0,0,0-4.978-1.1,17.391,17.391,0,0,0-5.753,1.2,26.5,26.5,0,0,0-8.13,4.265,12.966,12.966,0,0,0-4.336,5.994c-.747,2.408-.368,5.185,1.29,6.555l1.149-.494" transform="translate(-224.9 -185.255)" fill="#263238"/>
            </g>
            <g id="Groupe_547" data-name="Groupe 547" transform="translate(12.222 28.6)">
              <path id="Tracé_492" data-name="Tracé 492" d="M230.424,220.345c-.085-.1-3.749-3.538-5.831.92s2.823,5.63,2.89,5.506S230.424,220.345,230.424,220.345Z" transform="translate(-224.078 -218.985)" fill="#aa7d6d"/>
            </g>
            <g id="Groupe_548" data-name="Groupe 548" transform="translate(13.56 30.064)">
              <path id="Tracé_493" data-name="Tracé 493" d="M228.212,225.87c-.013-.023-.1.018-.262.017a.858.858,0,0,1-.586-.259,2.121,2.121,0,0,1-.084-2.14,2.839,2.839,0,0,1,.737-1.01.991.991,0,0,1,.863-.323.436.436,0,0,1,.359.427c0,.153-.068.229-.048.247s.131-.03.181-.231a.55.55,0,0,0-.045-.361.647.647,0,0,0-.377-.314,1.2,1.2,0,0,0-1.134.312,2.913,2.913,0,0,0-.85,1.117,2.226,2.226,0,0,0,.233,2.455.919.919,0,0,0,.766.214C228.153,225.974,228.223,225.885,228.212,225.87Z" transform="translate(-226.717 -221.873)" fill="#896255"/>
            </g>
            <g id="Groupe_549" data-name="Groupe 549" transform="translate(48.686 21.929)">
              <path id="Tracé_494" data-name="Tracé 494" d="M302.522,216.76a.827.827,0,0,0,0-.669,1.061,1.061,0,0,0-.547-.555,3.153,3.153,0,0,0-1.057-.23l-.13-.012.071-.11a.953.953,0,0,0-.3-1.172,2.764,2.764,0,0,0-1.521-.448l-.731-.066.721-.141a.783.783,0,0,0,.432-1.041,1.775,1.775,0,0,0-1.1-.887l-.062-.023-.409-.151.432-.064a.84.84,0,0,0,.489-1.239,1.272,1.272,0,0,0-1.336-.487l-.563.127.485-.313a1.9,1.9,0,0,0,.831-1.749,1.775,1.775,0,0,0-.818-1.314,2.011,2.011,0,0,0-1-.328c-.248-.011-.383.019-.385,0s.031-.017.1-.033a1.324,1.324,0,0,1,.29-.036,1.959,1.959,0,0,1,1.061.289,1.894,1.894,0,0,1,.922,1.4,2.073,2.073,0,0,1-.891,1.939l-.078-.186a1.473,1.473,0,0,1,1.567.572,1.069,1.069,0,0,1,.083.933.941.941,0,0,1-.727.641l.022-.215.066.024a1.973,1.973,0,0,1,1.227,1.019,1.135,1.135,0,0,1-.014.8.819.819,0,0,1-.581.522l-.011-.207a2.9,2.9,0,0,1,1.622.514,1.118,1.118,0,0,1,.31,1.4l-.058-.123a3.159,3.159,0,0,1,1.1.275,1.139,1.139,0,0,1,.573.636.793.793,0,0,1,.013.54C302.575,216.717,302.526,216.763,302.522,216.76Z" transform="translate(-296.033 -205.82)" fill="#455a64"/>
            </g>
            <g id="Groupe_550" data-name="Groupe 550" transform="translate(44.806 17.126)">
              <path id="Tracé_495" data-name="Tracé 495" d="M298.01,199.229a.663.663,0,0,1-.309-.031,3.78,3.78,0,0,1-.8-.331,2.558,2.558,0,0,0-1.2-.367.788.788,0,0,0-.623.3.57.57,0,0,0-.076.683l-.183.031c.082-.276-.159-.591-.364-.9a3.7,3.7,0,0,0-.743-.85,1.337,1.337,0,0,0-1.021-.309.888.888,0,0,0-.764.541l-.086.26-.108-.253a2.463,2.463,0,0,0-1.048-1.162,2.772,2.772,0,0,0-1.2-.374,3.521,3.521,0,0,0-1.119.138.871.871,0,0,1,.275-.137,2.358,2.358,0,0,1,.851-.128,2.792,2.792,0,0,1,1.276.349,2.6,2.6,0,0,1,1.154,1.234l-.195.007a1.1,1.1,0,0,1,.933-.693,1.554,1.554,0,0,1,1.186.35,3.826,3.826,0,0,1,.789.9,4.7,4.7,0,0,1,.3.487.81.81,0,0,1,.082.594l-.063.2-.121-.17a.766.766,0,0,1,.093-.929.969.969,0,0,1,.768-.352,2.576,2.576,0,0,1,1.263.43,4.816,4.816,0,0,0,.756.379A2.93,2.93,0,0,1,298.01,199.229Z" transform="translate(-288.376 -196.342)" fill="#455a64"/>
            </g>
            <g id="Groupe_551" data-name="Groupe 551" transform="translate(40.044 11.116)">
              <path id="Tracé_496" data-name="Tracé 496" d="M285.295,184.8a2.308,2.308,0,0,0-.559-.178,1.407,1.407,0,0,0-.652.078,1.213,1.213,0,0,0-.642.52l-.061.1-.086-.084a.732.732,0,0,0-.928.061,2.226,2.226,0,0,0-.567,1.085l-.127.421-.09-.438c0-.022-.009-.045-.014-.068a.942.942,0,0,0-.551-.613,1.05,1.05,0,0,0-.791-.028,1.675,1.675,0,0,0-.967.989,3.107,3.107,0,0,0-.19.972,1.678,1.678,0,0,1-.027.372.968.968,0,0,1-.06-.372,2.738,2.738,0,0,1,.129-1.026,1.806,1.806,0,0,1,1.046-1.129,1.237,1.237,0,0,1,1.627.783c.006.03.012.061.018.089l-.217-.017a2.361,2.361,0,0,1,.645-1.185.92.92,0,0,1,1.193-.03l-.146.02a1.347,1.347,0,0,1,.755-.57,1.442,1.442,0,0,1,.719-.04,1.173,1.173,0,0,1,.425.174C285.262,184.748,285.3,184.79,285.295,184.8Z" transform="translate(-278.979 -184.483)" fill="#455a64"/>
            </g>
            <g id="Groupe_552" data-name="Groupe 552" transform="translate(10.759 14.839)">
              <path id="Tracé_497" data-name="Tracé 497" d="M221.273,195.843a.545.545,0,0,1-.04-.175,3.438,3.438,0,0,1-.043-.515,1.58,1.58,0,0,1,.192-.81,1.163,1.163,0,0,1,.371-.387.832.832,0,0,1,.6-.127l-.093.088a1.037,1.037,0,0,1,1.686-.957l-.161.1a.834.834,0,0,1,.457-.877,1.237,1.237,0,0,1,1.045.01,4.818,4.818,0,0,0,.448.213.427.427,0,0,0,.393-.107,1.811,1.811,0,0,1,.466-.309.962.962,0,0,1,.6-.034,5.513,5.513,0,0,1,1.081.485,1.281,1.281,0,0,0,.985.163,4.93,4.93,0,0,0,.459-.252,1.113,1.113,0,0,1,.554-.119,1.169,1.169,0,0,1,.914.5l-.177.068a.881.881,0,0,1,.55-.871,1.243,1.243,0,0,1,.928-.013,3.958,3.958,0,0,1,1.233.79,4.887,4.887,0,0,1,.635.69,1.127,1.127,0,0,1,.178.28,11.079,11.079,0,0,0-.888-.883,4.026,4.026,0,0,0-1.207-.725,1.084,1.084,0,0,0-.8.022.7.7,0,0,0-.434.682l.062.416-.24-.348a.975.975,0,0,0-.761-.4.9.9,0,0,0-.449.1,4.542,4.542,0,0,1-.479.265,1.157,1.157,0,0,1-.6.036,2.574,2.574,0,0,1-.554-.2,5.523,5.523,0,0,0-1.033-.466.739.739,0,0,0-.466.024,1.647,1.647,0,0,0-.417.28.648.648,0,0,1-.582.14,4.255,4.255,0,0,1-.476-.226,1.032,1.032,0,0,0-.864-.024.636.636,0,0,0-.359.651l.06.281-.22-.184a.88.88,0,0,0-1.022-.059.9.9,0,0,0-.383.84l.015.11-.108-.022a.846.846,0,0,0-.835.425,1.546,1.546,0,0,0-.21.747C221.261,195.6,221.294,195.842,221.273,195.843Z" transform="translate(-221.191 -191.83)" fill="#455a64"/>
            </g>
            <g id="Groupe_553" data-name="Groupe 553" transform="translate(4.843 23.233)">
              <path id="Tracé_498" data-name="Tracé 498" d="M210.019,216.38c-.006.006-.07-.041-.165-.157a1.533,1.533,0,0,1-.285-.58,1.587,1.587,0,0,1,.068-1.01,1.69,1.69,0,0,1,.947-.922l-.06.1a3.064,3.064,0,0,1-.045-1.247,1.252,1.252,0,0,1,.353-.619.914.914,0,0,1,.713-.269l-.1.167a1.291,1.291,0,0,1,0-1.286,1.441,1.441,0,0,1,.519-.555,1.212,1.212,0,0,1,.717-.166.419.419,0,0,0,.461-.231,1.766,1.766,0,0,1,.416-.523,2.245,2.245,0,0,1,1.13-.443c.363-.066.7-.131,1.013-.179a3.712,3.712,0,0,1,1.5.011,1.756,1.756,0,0,1,.384.146c.081.047.121.076.118.082s-.18-.082-.52-.143a4,4,0,0,0-1.454.06l-1,.205a2.092,2.092,0,0,0-1.032.418,1.562,1.562,0,0,0-.366.475.635.635,0,0,1-.269.277.856.856,0,0,1-.375.064,1.15,1.15,0,0,0-1.051,1.672l.12.189-.224-.021a.883.883,0,0,0-.842.72,2.963,2.963,0,0,0,.028,1.166l.012.077-.071.026a1.546,1.546,0,0,0-.872.808,1.51,1.51,0,0,0-.1.926A2.2,2.2,0,0,0,210.019,216.38Z" transform="translate(-209.517 -208.394)" fill="#455a64"/>
            </g>
            <g id="Groupe_554" data-name="Groupe 554" transform="translate(12.985 22.46)">
              <path id="Tracé_499" data-name="Tracé 499" d="M226.711,213.411a.877.877,0,0,1-.247-.19,2.785,2.785,0,0,1-.529-.7,2.962,2.962,0,0,1-.352-1.319,1.188,1.188,0,0,1,.234-.837.586.586,0,0,1,.471-.2.469.469,0,0,1,.449.316l-.194.019a1.506,1.506,0,0,1,.232-.837.714.714,0,0,1,.421-.263.6.6,0,0,1,.491.155c.12.095.238.206.323.212s.143-.073.207-.227a1.357,1.357,0,0,1,.745-.686,1.463,1.463,0,0,1,1.548.262l-.184.057a1.259,1.259,0,0,1,.737-1.006.766.766,0,0,1,.625.089.57.57,0,0,1,.29.54l-.187-.046a3.011,3.011,0,0,1,1.041-1.3,3.138,3.138,0,0,1,1.17-.523,2.735,2.735,0,0,1,.822-.055.922.922,0,0,1,.286.057,4.455,4.455,0,0,0-1.08.109,3.142,3.142,0,0,0-1.1.54,2.892,2.892,0,0,0-.955,1.242l-.3.751.113-.8c.039-.275-.362-.512-.658-.409a1.062,1.062,0,0,0-.587.849l-.038.2-.147-.145a1.25,1.25,0,0,0-1.312-.21,1.139,1.139,0,0,0-.626.571.939.939,0,0,1-.131.229.351.351,0,0,1-.3.124.957.957,0,0,1-.437-.26.377.377,0,0,0-.32-.115.508.508,0,0,0-.295.183,1.34,1.34,0,0,0-.2.722l-.048.577-.147-.558c-.058-.22-.454-.237-.594-.051a1.038,1.038,0,0,0-.2.711,2.94,2.94,0,0,0,.293,1.267A4.265,4.265,0,0,0,226.711,213.411Z" transform="translate(-225.583 -206.867)" fill="#455a64"/>
            </g>
            <g id="Groupe_555" data-name="Groupe 555" transform="translate(29.257 17.591)">
              <path id="Tracé_500" data-name="Tracé 500" d="M258.508,201.109c-.02.015-.222-.161-.48-.521a1.865,1.865,0,0,1-.315-.725,1.226,1.226,0,0,1,.221-.964.928.928,0,0,1,.182-.17l-.024.159a1.063,1.063,0,0,1-.176-.9.969.969,0,0,1,.44-.589c.372-.215.647-.123.635-.1a1.828,1.828,0,0,0-.551.229.856.856,0,0,0-.33.511.891.891,0,0,0,.158.717l.067.087-.091.071a.748.748,0,0,0-.137.13,1.066,1.066,0,0,0-.191.793,1.944,1.944,0,0,0,.246.672A3.375,3.375,0,0,1,258.508,201.109Z" transform="translate(-257.694 -197.259)" fill="#455a64"/>
            </g>
            <g id="Groupe_556" data-name="Groupe 556" transform="translate(31.917 16.15)">
              <path id="Tracé_501" data-name="Tracé 501" d="M266.793,199.779a1.3,1.3,0,0,0,.492-.665.921.921,0,0,0-.171-.854,1,1,0,0,0-1.029-.309l-.182.058.048-.186a1.83,1.83,0,0,0,.055-.7.841.841,0,0,0-.329-.6c-.3-.2-.8-.071-.84.236l-.208-.052a1.7,1.7,0,0,0-.071-1.262,1.651,1.651,0,0,0-.7-.74,2.568,2.568,0,0,0-.912-.251c0-.011.089-.037.26-.038a1.683,1.683,0,0,1,.715.168,1.744,1.744,0,0,1,.805.78,1.854,1.854,0,0,1,.109,1.414l-.208-.053a.624.624,0,0,1,.477-.486.886.886,0,0,1,.694.1,1.043,1.043,0,0,1,.428.757,2,2,0,0,1-.069.785l-.134-.128a1.173,1.173,0,0,1,1.231.4,1.05,1.05,0,0,1,.158,1.006,1.073,1.073,0,0,1-.4.533C266.881,199.771,266.8,199.787,266.793,199.779Z" transform="translate(-262.943 -194.417)" fill="#455a64"/>
            </g>
            <g id="Groupe_557" data-name="Groupe 557" transform="translate(11.521 8.798)">
              <path id="Tracé_502" data-name="Tracé 502" d="M260.16,204.626a13.231,13.231,0,0,0-.389-11.311,17.6,17.6,0,0,0-8.394-7.845,26.47,26.47,0,0,0-11.395-2.237,15.359,15.359,0,0,0-7.461,1.62,17.774,17.774,0,0,0-5.389,5.48,17.227,17.227,0,0,0-2.544,4.584,6.59,6.59,0,0,0,.259,5.114c-1.189-.2-1.769-1.558-1.989-2.743-.848-4.56,1.681-8.975,4.847-12.365a16.986,16.986,0,0,1,8.528-4.66c3.654-.836,7.655-.079,11.186,1.178,3.93,1.4,7.667,2.919,10.274,6.175s6.292,10.293,2.465,17.011" transform="translate(-222.694 -179.91)" fill="#efa83d"/>
            </g>
            <g id="Groupe_559" data-name="Groupe 559" transform="translate(44.813 32.74)">
              <g id="Groupe_558" data-name="Groupe 558">
                <path id="Tracé_503" data-name="Tracé 503" d="M288.39,229.092c-.008.007.035.079.143.185a1.732,1.732,0,0,0,.535.349,2.358,2.358,0,0,0,2.053-.173,3.755,3.755,0,0,0,1.434-1.505,2.682,2.682,0,0,0,.333-.793c-.026-.012-.164.285-.441.729a4.012,4.012,0,0,1-1.411,1.413,2.346,2.346,0,0,1-1.922.212A3.193,3.193,0,0,1,288.39,229.092Z" transform="translate(-288.389 -227.154)" fill="#455a64"/>
              </g>
            </g>
            <g id="Groupe_561" data-name="Groupe 561" transform="translate(38.948 14.774)">
              <g id="Groupe_560" data-name="Groupe 560">
                <path id="Tracé_504" data-name="Tracé 504" d="M276.816,192.01c.007.012.13-.061.381-.136a2.248,2.248,0,0,1,1.1-.033,2.023,2.023,0,0,1,1.333.956,2.152,2.152,0,0,1,.044,2.053L279.6,195l.17-.031a1.858,1.858,0,0,1,1.371.31,1.723,1.723,0,0,1,.754,1.283,1.866,1.866,0,0,1-.463,1.417l-.13.142.192,0a1.159,1.159,0,0,1,1.086.94,1.174,1.174,0,0,1-.59,1.187l-.231.12.259.019a1.906,1.906,0,0,1,1.308.7,2.142,2.142,0,0,1,.427,2.082,1,1,0,0,0,.109-.254,1.866,1.866,0,0,0,.051-.784,2.279,2.279,0,0,0-.5-1.12,2.02,2.02,0,0,0-1.391-.77l.029.139a1.288,1.288,0,0,0-.56-2.433l.062.146a2.033,2.033,0,0,0,.512-1.552,1.893,1.893,0,0,0-.832-1.41,2.019,2.019,0,0,0-1.5-.328l.088.121a2.286,2.286,0,0,0-.069-2.2,2.115,2.115,0,0,0-1.433-.985,2.187,2.187,0,0,0-1.141.082A1.332,1.332,0,0,0,276.816,192.01Z" transform="translate(-276.816 -191.701)" fill="#455a64"/>
              </g>
            </g>
          </g>
          <g id="Groupe_563" data-name="Groupe 563" transform="translate(26.518 36.858)">
            <path id="Tracé_505" data-name="Tracé 505" d="M255.582,235.289a3.317,3.317,0,0,1-3.293.426c.019-.077.762.09,1.67-.033S255.545,235.219,255.582,235.289Z" transform="translate(-252.289 -235.28)" fill="#896255"/>
          </g>
          <g id="Groupe_564" data-name="Groupe 564" transform="translate(36.418 39.664)">
            <path id="Tracé_506" data-name="Tracé 506" d="M272.917,243.611a3.674,3.674,0,0,1-1.054-2.793,21.015,21.015,0,0,0,1.054,2.793Z" transform="translate(-271.824 -240.818)" fill="#896255"/>
          </g>
          <path id="Tracé_507" data-name="Tracé 507" d="M246.814,232.808a1.6,1.6,0,0,0-.5.339.841.841,0,0,0-.188.554.7.7,0,0,0,.391.606c.414.251.829-.053,1.212-.436a3,3,0,0,0,.739-1.573A5.7,5.7,0,0,0,246.814,232.808Z" transform="translate(-222.731 -196.951)" fill="#f5f5f5"/>
          <path id="Tracé_508" data-name="Tracé 508" d="M278.74,245.476a1.145,1.145,0,0,0-.041.426.6.6,0,0,0,.218.354.493.493,0,0,0,.507.06c.324-.112.346-.477.31-.859a2.129,2.129,0,0,0-.525-1.116A4.061,4.061,0,0,0,278.74,245.476Z" transform="translate(-238.793 -202.891)" fill="#f5f5f5"/>
          <path id="Tracé_509" data-name="Tracé 509" d="M248.845,230.11l-1.078.072a.45.45,0,0,0-.365.143.286.286,0,0,0,.1.373.554.554,0,0,0,.416.053,2.152,2.152,0,0,0,.924-.559" transform="translate(-223.342 -195.872)" fill="#f5f5f5"/>
          <g id="Groupe_565" data-name="Groupe 565" transform="translate(25.777 37.921)">
            <path id="Tracé_510" data-name="Tracé 510" d="M253.5,237.4a3,3,0,0,1-2.676.015,11.564,11.564,0,0,1,1.338.043A11.389,11.389,0,0,1,253.5,237.4Z" transform="translate(-250.826 -237.378)" fill="#896255"/>
          </g>
          <g id="Groupe_566" data-name="Groupe 566" transform="translate(36.13 41.026)">
            <path id="Tracé_511" data-name="Tracé 511" d="M272.331,245.936a4.054,4.054,0,0,1-1.053-2.431,21.2,21.2,0,0,1,1.053,2.431Z" transform="translate(-271.256 -243.505)" fill="#896255"/>
          </g>
          <g id="Groupe_567" data-name="Groupe 567" transform="translate(24.144 41.981)">
            <path id="Tracé_512" data-name="Tracé 512" d="M247.714,247.026c-.068.017-.2-.412-.027-.914s.524-.771.568-.717-.177.362-.318.8S247.79,247.016,247.714,247.026Z" transform="translate(-247.604 -245.388)" fill="#896255"/>
          </g>
        </g>
        <g id="Groupe_575" data-name="Groupe 575" transform="translate(69.601 20.162)">
          <g id="Groupe_570" data-name="Groupe 570" transform="translate(0 21.418)">
            <path id="Tracé_513" data-name="Tracé 513" d="M257.633,266.465s17.516,8.882,17.85,8.29-.68-11.87-1.126-14.548-2.864-12.909-2.864-12.909l5.915-2.7s5.884,15.954,8.673,25.548,2.092,18.844,1.158,19.853-33.958-11.821-33.958-11.821Z" transform="translate(-253.282 -244.598)" fill="#aa7d6d"/>
            <g id="Groupe_569" data-name="Groupe 569" transform="translate(22.016 29.917)">
              <path id="Tracé_514" data-name="Tracé 514" d="M298.876,310.562a2.315,2.315,0,0,1-.88-.691,5.068,5.068,0,0,1-1.117-2.453,9.853,9.853,0,0,1-.109-2.689,3.824,3.824,0,0,1,.19-1.1,5.949,5.949,0,0,1,0,1.107,12.744,12.744,0,0,0,.182,2.629,5.517,5.517,0,0,0,1,2.384C298.551,310.281,298.906,310.522,298.876,310.562Z" transform="translate(-296.727 -303.633)" fill="#896255"/>
            </g>
          </g>
          <g id="Groupe_574" data-name="Groupe 574" transform="translate(16.972)">
            <g id="Groupe_573" data-name="Groupe 573">
              <path id="Tracé_515" data-name="Tracé 515" d="M294.026,224.558l.956-10.015-4.359-12.209s-1,.1-.778,1.912l-1.855-1.368a3.153,3.153,0,0,0-.187,1.968,20.577,20.577,0,0,0,2.029,2.676l-2.9-.872s-.7,1.124.825,1.767l2.014,1.781.794,3.926s-2.037,5.983-2.618,7.913a9.678,9.678,0,0,0,.064,4.416Z" transform="translate(-286.773 -202.334)" fill="#aa7d6d"/>
              <g id="Groupe_571" data-name="Groupe 571" transform="translate(2.691 4.976)">
                <path id="Tracé_516" data-name="Tracé 516" d="M295.156,218.011a4.374,4.374,0,0,1-.222-1,11.519,11.519,0,0,0-.627-2.35,4.987,4.987,0,0,0-1.389-1.937c-.478-.392-.852-.523-.835-.566a1.88,1.88,0,0,1,.948.418,4.573,4.573,0,0,1,1.519,1.984,8.8,8.8,0,0,1,.568,2.425A3.622,3.622,0,0,1,295.156,218.011Z" transform="translate(-292.083 -212.152)" fill="#896255"/>
              </g>
              <g id="Groupe_572" data-name="Groupe 572" transform="translate(2.768 1.585)">
                <path id="Tracé_517" data-name="Tracé 517" d="M295.062,209.33a77.887,77.887,0,0,1-2.823-3.867,12.721,12.721,0,0,1,2.823,3.867Z" transform="translate(-292.235 -205.461)" fill="#896255"/>
              </g>
            </g>
          </g>
        </g>
        <g id="Groupe_580" data-name="Groupe 580" transform="translate(1.257 70.917)">
          <g id="Groupe_578" data-name="Groupe 578">
            <path id="Tracé_518" data-name="Tracé 518" d="M261.617,305.983s7.576-4.578,11.386-3.255,50.163,58.465,50.163,58.465l-9.013,8.61-41-34.51L262.64,324.467Z" transform="translate(-189.05 -302.488)" fill="#263238"/>
            <path id="Tracé_519" data-name="Tracé 519" d="M118.419,362.72s2.048,8.088,6.331,13.825c3.15,4.219,7.886,7.9,14.836,7.974,16.4.173,25.9-13.467,29.523-17.956s23.136-30.041,24.517-30.214,2.244,4.662,8.288,11.913,36.924,29.323,36.924,29.323l10.186-9.5-34.779-40.278S199.152,310.52,193.8,309.536s-11.81,4.26-15.077,7.225S118.419,362.72,118.419,362.72Z" transform="translate(-118.419 -305.905)" fill="#263238"/>
            <g id="Groupe_576" data-name="Groupe 576" transform="translate(6.868 11.753)">
              <path id="Tracé_520" data-name="Tracé 520" d="M252.717,378.9s-.1-.095-.29-.289l-.833-.868-3.185-3.354-11.677-12.37-8.054-8.551c-2.948-3.017-6.179-6.171-9.563-9.5s-6.968-6.792-10.733-10.329c-1.885-1.765-3.813-3.552-5.83-5.293-.5-.434-1.017-.864-1.542-1.279-.264-.2-.526-.414-.8-.6a4.162,4.162,0,0,0-.414-.273l-.211-.126c-.069-.033-.137-.052-.2-.08a4.463,4.463,0,0,0-1.942.2,15.112,15.112,0,0,0-1.91.683,31.088,31.088,0,0,0-3.5,1.786l.021-.016-21.687,20.037-9.417,8.7a79.328,79.328,0,0,1-8.361,7.362,27.919,27.919,0,0,1-8.107,4.244,19.8,19.8,0,0,1-6.826.942,14.891,14.891,0,0,1-4.275-.806,9.826,9.826,0,0,1-1.052-.419c-.233-.1-.35-.162-.35-.162s.124.043.36.137.581.251,1.058.394a15.254,15.254,0,0,0,4.262.755,19.849,19.849,0,0,0,6.778-.979,27.913,27.913,0,0,0,8.042-4.254,79.857,79.857,0,0,0,8.321-7.37l9.4-8.717,21.672-20.056.01-.01.011-.007a31.294,31.294,0,0,1,3.538-1.8,15.349,15.349,0,0,1,1.944-.694,4.662,4.662,0,0,1,2.069-.2c.089.033.185.063.267.1l.224.134a4.325,4.325,0,0,1,.43.284c.282.193.546.4.813.611.529.419,1.043.85,1.55,1.286,2.022,1.747,3.951,3.536,5.836,5.3,3.764,3.542,7.337,7.018,10.726,10.344s6.6,6.492,9.55,9.522l8.032,8.574,11.617,12.428,3.149,3.388.814.886C252.629,378.794,252.717,378.9,252.717,378.9Z" transform="translate(-131.971 -325.68)" fill="#455a64"/>
            </g>
            <g id="Groupe_577" data-name="Groupe 577" transform="translate(6.257 65.771)">
              <path id="Tracé_521" data-name="Tracé 521" d="M151.278,444.625a1.235,1.235,0,0,1,.047-.278c.047-.206.106-.468.18-.792l.718-2.945.027.087-5.664-4.84.111.027a14.237,14.237,0,0,1-4.975.162,29.767,29.767,0,0,1-6.132-1.509,39.184,39.184,0,0,1-4.771-2.023l.138-.084c-.018,1.54-.032,2.8-.043,3.7-.011.415-.019.749-.025,1.007a1.676,1.676,0,0,1-.027.351,1.719,1.719,0,0,1-.027-.351c-.007-.258-.015-.592-.025-1.007-.011-.907-.025-2.164-.043-3.7l0-.153.14.068a41.773,41.773,0,0,0,4.764,1.961,30.42,30.42,0,0,0,6.084,1.477,14.171,14.171,0,0,0,4.885-.144l.064-.015.048.042,5.613,4.9.041.036-.014.051c-.332,1.224-.6,2.212-.795,2.926-.092.32-.166.578-.224.781A1.23,1.23,0,0,1,151.278,444.625Z" transform="translate(-130.766 -432.276)" fill="#455a64"/>
            </g>
          </g>
          <g id="Groupe_579" data-name="Groupe 579" transform="translate(99.73 26.428)">
            <path id="Tracé_522" data-name="Tracé 522" d="M346.093,390.4c-.055.048-7.012-7.919-15.537-17.791s-15.393-17.918-15.339-17.966,7.011,7.917,15.538,17.793S346.148,390.348,346.093,390.4Z" transform="translate(-315.217 -354.639)" fill="#455a64"/>
          </g>
        </g>
        <g id="Groupe_585" data-name="Groupe 585" transform="translate(0 50.623)">
          <path id="Tracé_523" data-name="Tracé 523" d="M241.8,278.668l-1.724-1.056-8.561,6.6,12.557,6.827,8.689-5.653Z" transform="translate(-172.947 -269.924)" fill="#efa83d"/>
          <path id="Tracé_524" data-name="Tracé 524" d="M166.3,262.487s-9.986-1.193-18.134,8.7c-5.707,6.927-11.377,22.758-17.075,30.878-2.41,3.434-15.428,17.173-15.146,33.321l.688,4.233,12.546-4.711a32.087,32.087,0,0,0,7.889-5.086l14.8-12.966L178.2,292.96c.689.377,7.823-9.671,6.544-16.46a43.7,43.7,0,0,0-1.448-6.168C179.215,271.369,174.86,269.006,166.3,262.487Z" transform="translate(-115.938 -262.442)" fill="#efa83d"/>
          <g id="Groupe_581" data-name="Groupe 581" transform="translate(41.493 20.825)" opacity="0.3">
            <path id="Tracé_525" data-name="Tracé 525" d="M200.337,303.773l-2.52-.236c2.266,3.6,4.615,7.3,8.061,9.793,1.344.975,2.871,1.783,3.839,3.132.678.945,1.309,2.273,2.471,2.219.48-.022,1.191-.686,1.531-1.026,1.765-1.765,4.719-4.345,4.719-4.345A112.23,112.23,0,0,0,200.337,303.773Z" transform="translate(-197.817 -303.537)"/>
          </g>
          <g id="Groupe_582" data-name="Groupe 582" transform="translate(3.941 63.184)">
            <path id="Tracé_526" data-name="Tracé 526" d="M146.133,387.125c.006.007-.057.062-.182.16l-.553.417c-.24.182-.539.4-.9.625s-.761.509-1.232.77a30.431,30.431,0,0,1-3.371,1.715,31.177,31.177,0,0,1-8.933,2.372,30.339,30.339,0,0,1-3.778.183c-.539.007-1.025-.035-1.452-.057s-.794-.057-1.092-.1l-.687-.088a.122.122,0,1,1,.006-.053l.69.038c.3.023.665.046,1.091.051s.909.037,1.445.018a33.575,33.575,0,0,0,3.75-.239,32.919,32.919,0,0,0,8.865-2.354,33.633,33.633,0,0,0,3.374-1.653c.474-.249.88-.515,1.246-.733s.673-.417.922-.585l.58-.375A.867.867,0,0,1,146.133,387.125Z" transform="translate(-123.714 -387.124)" fill="#263238"/>
          </g>
          <g id="Groupe_583" data-name="Groupe 583" transform="translate(7.146 63.356)" opacity="0.3">
            <path id="Tracé_527" data-name="Tracé 527" d="M136.992,390.026c-2.361.059-5.085.018-6.609,1.822a.986.986,0,0,0-.261,1.081c.19.313.619.356.985.358a31.234,31.234,0,0,0,17.543-5.316l.352-.508A33.455,33.455,0,0,1,136.992,390.026Z" transform="translate(-130.039 -387.464)"/>
          </g>
          <g id="Groupe_584" data-name="Groupe 584" transform="translate(67.586 8.342)">
            <path id="Tracé_528" data-name="Tracé 528" d="M250.915,288.053a9.626,9.626,0,0,1-.169-1.353c-.092-.834-.262-1.98-.512-3.237s-.514-2.389-.688-3.213a6.993,6.993,0,0,1-.231-1.346,7.062,7.062,0,0,1,.413,1.3c.221.813.513,1.941.766,3.206a24.154,24.154,0,0,1,.439,3.272A5.524,5.524,0,0,1,250.915,288.053Z" transform="translate(-249.307 -278.904)" fill="#263238"/>
          </g>
        </g>
        <g id="Groupe_588" data-name="Groupe 588" transform="translate(36.099 52.474)">
          <path id="Tracé_529" data-name="Tracé 529" d="M205.306,269.079s-9.8.567-11.986,6.965c-.883,2.583-1.369,5.621.276,8.425,1.384,2.361,7.6,7.684,7.6,7.684l18.766-11.227S209.193,269.484,205.306,269.079Z" transform="translate(-189.804 -267.567)" fill="#efa83d"/>
          <g id="Groupe_586" data-name="Groupe 586" transform="translate(4.453)">
            <path id="Tracé_530" data-name="Tracé 530" d="M195.961,284.153a.733.733,0,0,1,.133.1l.37.329,1.4,1.283,5.1,4.738-.121-.012,15.089-9.092,2.021-1.226.986-.6.484-.3.238-.151.117-.076.056-.038.025-.018.008-.006,0,0-.011.014-.008.014a.128.128,0,0,0,.113.186l-.09-.038-6.2-6.4c-.949-.964-1.816-1.916-2.669-2.729a14.694,14.694,0,0,0-2.656-1.919,17.657,17.657,0,0,0-4.365-1.744c-.536-.139-.956-.226-1.24-.279l-.323-.065a.417.417,0,0,1-.109-.03.387.387,0,0,1,.113.007l.328.042c.288.039.713.111,1.254.237a16.973,16.973,0,0,1,4.427,1.685,14.677,14.677,0,0,1,2.708,1.918c.88.825,1.745,1.763,2.7,2.723l6.218,6.373-.089-.038a.13.13,0,0,1,.106.059.132.132,0,0,1,.009.131l-.01.017-.017.02-.017.016-.019.015-.032.023-.061.041-.12.078-.24.152-.485.3-.987.605-2.022,1.227-8.223,4.935-3.653,2.176-1.678,1-.8.473-.388.23-.192.114-.095.056-.047.028-.024.014-.012.007-.006,0,0,0c-.009-.013.017.031-.021-.028l-.1.018-5.042-4.8-1.366-1.322-.351-.35A.79.79,0,0,1,195.961,284.153Z" transform="translate(-195.961 -266.095)" fill="#263238"/>
          </g>
          <g id="Groupe_587" data-name="Groupe 587" transform="translate(0 2.221)">
            <path id="Tracé_531" data-name="Tracé 531" d="M188.459,283.15a1.96,1.96,0,0,1-.284-.472,8.819,8.819,0,0,1-.557-1.4,10.093,10.093,0,0,1,1.857-9.393,8.77,8.77,0,0,1,1.046-1.08,1.974,1.974,0,0,1,.443-.329c.034.037-.58.53-1.343,1.524a10.515,10.515,0,0,0-1.824,9.225C188.124,282.439,188.5,283.129,188.459,283.15Z" transform="translate(-187.173 -270.478)" fill="#263238"/>
          </g>
        </g>
        <g id="Groupe_589" data-name="Groupe 589" transform="translate(102.813 84.311)">
          <path id="Tracé_532" data-name="Tracé 532" d="M322.9,329.279c-.019.039-.237-.051-.6-.1a4.84,4.84,0,0,0-1.44.073c-1.122.214-2.006.56-2.036.481A4.875,4.875,0,0,1,320.81,329a3.675,3.675,0,0,1,1.521,0C322.717,329.1,322.916,329.254,322.9,329.279Z" transform="translate(-318.821 -328.92)" fill="#896255"/>
        </g>
        <g id="Groupe_594" data-name="Groupe 594" transform="translate(48.904 66.145)">
          <path id="Tracé_533" data-name="Tracé 533" d="M212.441,303.163c.243.243,35.659,18.731,44.325,21.323s14.173-4.94,14.173-4.94l-2.511-6.884s-2.149-.776-6.749-2.144c-4.58-1.362-7.235-.5-7.235-.5l-25.156-16.942Z" transform="translate(-212.441 -293.072)" fill="#aa7d6d"/>
          <g id="Groupe_590" data-name="Groupe 590" transform="translate(45.154 27.33)">
            <path id="Tracé_534" data-name="Tracé 534" d="M305.324,347a1.489,1.489,0,0,1-.257.692,4.439,4.439,0,0,1-2.787,2.109,1.492,1.492,0,0,1-.736.059,5.959,5.959,0,0,0,3.78-2.861Z" transform="translate(-301.544 -347.002)" fill="#896255"/>
          </g>
          <path id="Tracé_535" data-name="Tracé 535" d="M319.811,329.619s3.071-1.044,3.821,0,2.653,4.735,2.768,5.946-1.038,1.326-1.557,2.307a21.278,21.278,0,0,0-1.1,2.977l-2.3-2.793-.979-2.869Z" transform="translate(-265.4 -310.869)" fill="#aa7d6d"/>
          <g id="Groupe_591" data-name="Groupe 591" transform="translate(16.848)">
            <path id="Tracé_536" data-name="Tracé 536" d="M245.688,293.072a2.088,2.088,0,0,1,.329.19l.915.587,3.339,2.2,10.96,7.341,6.017,4.068,2.621,1.782c.406.286.811.541,1.195.8a12.738,12.738,0,0,1,1.057.813,13.4,13.4,0,0,1,2.633,3.019c.252.4.429.724.541.947a2.023,2.023,0,0,1,.155.347,2.061,2.061,0,0,1-.2-.321c-.127-.213-.316-.526-.58-.916A14.1,14.1,0,0,0,272,311a12.926,12.926,0,0,0-1.053-.788c-.381-.252-.79-.5-1.2-.786l-2.635-1.762-6.029-4.052-10.919-7.407-3.292-2.27-.888-.628A2.146,2.146,0,0,1,245.688,293.072Z" transform="translate(-245.688 -293.072)" fill="#896255"/>
          </g>
          <g id="Groupe_592" data-name="Groupe 592" transform="translate(41.813 16.522)">
            <path id="Tracé_537" data-name="Tracé 537" d="M309.193,328.565a2.238,2.238,0,0,1-.576-.053c-.368-.055-.9-.162-1.541-.327-1.293-.318-3.02-.946-4.95-1.522a16.234,16.234,0,0,0-5.06-.773,18.071,18.071,0,0,0-2.115.262,2.084,2.084,0,0,1,.545-.2,7.942,7.942,0,0,1,1.56-.253,14.879,14.879,0,0,1,5.143.706c1.946.581,3.654,1.234,4.925,1.6.633.187,1.151.321,1.511.406A2.67,2.67,0,0,1,309.193,328.565Z" transform="translate(-294.952 -325.675)" fill="#896255"/>
          </g>
          <g id="Groupe_593" data-name="Groupe 593" transform="translate(56.511 25.74)">
            <path id="Tracé_538" data-name="Tracé 538" d="M326.406,343.866c.031.011,0,.227-.157.542a4.359,4.359,0,0,1-.8,1.093,5.036,5.036,0,0,1-1.493,1.162,10.514,10.514,0,0,1,1.3-1.345A14.2,14.2,0,0,0,326.406,343.866Z" transform="translate(-323.955 -343.865)" fill="#896255"/>
          </g>
        </g>
      </g>
    </g>
    <g id="Floor" transform="translate(35.954 240.597)">
      <g id="Groupe_596" data-name="Groupe 596">
        <path id="Tracé_539" data-name="Tracé 539" d="M252.895,459.187c0,.073-48.568.132-108.465.132-59.919,0-108.475-.059-108.475-.132s48.557-.132,108.475-.132C204.327,459.055,252.895,459.114,252.895,459.187Z" transform="translate(-35.954 -459.055)" fill="#263238"/>
      </g>
    </g>
  </g>
</svg>
