<svg xmlns="http://www.w3.org/2000/svg" width="207" height="101.929" viewBox="0 0 207 101.929">
  <g id="Groupe_604" data-name="Groupe 604" transform="translate(-108 -407.353)">
    <line id="Ligne_61" data-name="Ligne 61" x2="200" transform="translate(114.5 503.5)" fill="none" stroke="#cecece" stroke-linecap="round" stroke-width="1"/>
    <g id="sign-road-2-svgrepo-com" transform="translate(108 407.332)">
      <path id="Tracé_83" data-name="Tracé 83" d="M81.851,23.538l14.211-8.261L81.851,6.529,53.909,9.039V.021H42.027V9.465l-23.89,2.564V29.038l23.89-2.558V44.87l-27.75-2.624L0,50.178l14.277,8.88,27.75,2.462V95.585H53.909v-33.6l23.89,3.08v-16.8l-23.89-2.263V26.054Z" transform="translate(0 0)" fill="#cecece" fill-rule="evenodd"/>
    </g>
    <g id="stone-rock-svgrepo-com" transform="translate(291.975 472.891) rotate(42)">
      <path id="Tracé_84" data-name="Tracé 84" d="M54.21,120.363s-5.919-11.35,10.666-12.853,12.668,10.816,6.549,12.676-4.305,5.243-9.822,5.2A8.156,8.156,0,0,1,54.21,120.363Z" transform="translate(-50.551 -99.959)" fill="#d7d5d9"/>
      <path id="Tracé_85" data-name="Tracé 85" d="M112.242,137.365c2.343,3.406-.618,8.639-4.436,9.8-6.119,1.86-4.305,5.243-9.822,5.2a7.675,7.675,0,0,1-4.856-1.682,7.76,7.76,0,0,0,6.161,2.986c5.517.041,3.7-3.342,9.822-5.2C113.463,147.146,116.7,140.534,112.242,137.365Z" transform="matrix(0.999, 0.052, -0.052, 0.999, -80.562, -133.768)" fill="#acaab1" opacity="0.27"/>
      <g id="Groupe_589" data-name="Groupe 589" transform="translate(1.418 11.324)">
        <path id="Tracé_86" data-name="Tracé 86" d="M2.244,461.674c-.608-.172-1.677-.319-2.182,1.277s2.182,1.89,3.753.9S2.891,461.858,2.244,461.674Z" transform="translate(0 -438.356)" fill="#d7d5d9"/>
        <circle id="Ellipse_12" data-name="Ellipse 12" cx="0.886" cy="0.886" r="0.886" transform="translate(21.174)" fill="#d7d5d9"/>
        <circle id="Ellipse_13" data-name="Ellipse 13" cx="0.886" cy="0.886" r="0.886" transform="translate(7.355 18.237)" fill="#d7d5d9"/>
      </g>
      <g id="Groupe_590" data-name="Groupe 590" transform="translate(0.65 7.933)">
        <path id="Tracé_94" data-name="Tracé 94" d="M12.58,464.218a1.566,1.566,0,0,1,.709-2.149.44.44,0,0,0,.2-.241c-.17-.066-.317-.116-.418-.144a2.443,2.443,0,0,0-.618-.1,3.129,3.129,0,0,0-.54.573,2.182,2.182,0,0,0-.275,2.135,2.952,2.952,0,0,0,1,.143A.44.44,0,0,0,12.58,464.218Z" transform="translate(-10.058 -434.974)" fill="#acaab1"/>
      </g>
      <g id="Groupe_591" data-name="Groupe 591" transform="translate(24.76 0.075)">
        <path id="Tracé_95" data-name="Tracé 95" d="M463.366.3l.066-.011Z" transform="translate(-461.881 -0.278)" fill="#d7d5d9"/>
        <path id="Tracé_96" data-name="Tracé 96" d="M447.259,79.958l-.048-.025Z" transform="translate(-446.64 -75.41)" fill="#d7d5d9"/>
        <path id="Tracé_97" data-name="Tracé 97" d="M462.2.495,462.26.48Z" transform="translate(-460.776 -0.457)" fill="#d7d5d9"/>
        <path id="Tracé_98" data-name="Tracé 98" d="M464.7.159l.066-.007Z" transform="translate(-463.137 -0.148)" fill="#d7d5d9"/>
        <path id="Tracé_99" data-name="Tracé 99" d="M448.768,80.677l-.049-.021Z" transform="translate(-448.064 -76.092)" fill="#d7d5d9"/>
        <path id="Tracé_100" data-name="Tracé 100" d="M445.859,79.152l-.047-.029Z" transform="translate(-445.321 -74.646)" fill="#d7d5d9"/>
        <path id="Tracé_101" data-name="Tracé 101" d="M443.406,77.284c-.015-.012-.029-.025-.043-.038C443.377,77.259,443.391,77.272,443.406,77.284Z" transform="translate(-443.011 -72.875)" fill="#d7d5d9"/>
        <path id="Tracé_102" data-name="Tracé 102" d="M461.161,82.656l-.057.009Z" transform="translate(-459.747 -77.979)" fill="#d7d5d9"/>
        <path id="Tracé_103" data-name="Tracé 103" d="M442.338,76.219c-.014-.014-.027-.028-.04-.043C442.311,76.191,442.324,76.2,442.338,76.219Z" transform="translate(-442.006 -71.866)" fill="#d7d5d9"/>
        <path id="Tracé_104" data-name="Tracé 104" d="M460.978.785l.062-.019Z" transform="translate(-459.628 -0.727)" fill="#d7d5d9"/>
        <path id="Tracé_105" data-name="Tracé 105" d="M459.719,1.178l.062-.024Z" transform="translate(-458.441 -1.093)" fill="#d7d5d9"/>
        <path id="Tracé_106" data-name="Tracé 106" d="M444.577,78.262l-.045-.034Z" transform="translate(-444.114 -73.801)" fill="#d7d5d9"/>
        <path id="Tracé_107" data-name="Tracé 107" d="M457.442,2.18l.06-.034C457.482,2.156,457.462,2.168,457.442,2.18Z" transform="translate(-456.293 -2.029)" fill="#d7d5d9"/>
        <path id="Tracé_108" data-name="Tracé 108" d="M458.357,82.953h0Z" transform="translate(-457.101 -78.259)" fill="#d7d5d9"/>
        <path id="Tracé_109" data-name="Tracé 109" d="M472.682.367l.073.009Z" transform="translate(-470.669 -0.351)" fill="#d7d5d9"/>
        <path id="Tracé_110" data-name="Tracé 110" d="M474.135.542l.156.022Z" transform="translate(-472.04 -0.516)" fill="#d7d5d9"/>
        <path id="Tracé_111" data-name="Tracé 111" d="M456.816,82.826c-.023,0-.046,0-.069-.007C456.77,82.822,456.793,82.824,456.816,82.826Z" transform="translate(-455.637 -78.132)" fill="#d7d5d9"/>
        <path id="Tracé_112" data-name="Tracé 112" d="M459.625,82.857l-.07.006Z" transform="translate(-458.286 -78.168)" fill="#d7d5d9"/>
        <path id="Tracé_113" data-name="Tracé 113" d="M476.929.941l.082.013Z" transform="translate(-474.676 -0.892)" fill="#d7d5d9"/>
        <path id="Tracé_114" data-name="Tracé 114" d="M465.995.081c.046,0,.092,0,.139,0C466.087.077,466.041.078,465.995.081Z" transform="translate(-464.361 -0.077)" fill="#d7d5d9"/>
        <path id="Tracé_115" data-name="Tracé 115" d="M450.4,81.311l-.049-.017Z" transform="translate(-449.603 -76.694)" fill="#d7d5d9"/>
        <path id="Tracé_116" data-name="Tracé 116" d="M452.161,81.86l-.047-.013Z" transform="translate(-451.267 -77.216)" fill="#d7d5d9"/>
        <path id="Tracé_117" data-name="Tracé 117" d="M454.123,82.344l-.04-.009Z" transform="translate(-453.124 -77.676)" fill="#d7d5d9"/>
        <path id="Tracé_118" data-name="Tracé 118" d="M469.976.138c.048,0,.1.007.146.012Q470.048.142,469.976.138Z" transform="translate(-468.117 -0.135)" fill="#d7d5d9"/>
        <path id="Tracé_119" data-name="Tracé 119" d="M468.6.083l.069,0Z" transform="translate(-466.815 -0.083)" fill="#d7d5d9"/>
        <path id="Tracé_120" data-name="Tracé 120" d="M458.569,1.632l.061-.029Z" transform="translate(-457.356 -1.517)" fill="#d7d5d9"/>
        <path id="Tracé_121" data-name="Tracé 121" d="M437.165,60.47c0-.031,0-.063,0-.1C437.162,60.407,437.163,60.439,437.165,60.47Z" transform="translate(-437.16 -56.959)" fill="#d7d5d9"/>
        <path id="Tracé_122" data-name="Tracé 122" d="M440.384,34.7q.02-.082.042-.167Q440.4,34.614,440.384,34.7Z" transform="translate(-440.201 -32.578)" fill="#d7d5d9"/>
        <path id="Tracé_123" data-name="Tracé 123" d="M437.751,48.9q.008-.063.018-.129C437.763,48.817,437.757,48.86,437.751,48.9Z" transform="translate(-437.717 -46.015)" fill="#d7d5d9"/>
        <path id="Tracé_124" data-name="Tracé 124" d="M441.377,75.062c-.013-.015-.025-.031-.037-.047C441.352,75.031,441.364,75.047,441.377,75.062Z" transform="translate(-441.103 -70.77)" fill="#d7d5d9"/>
        <path id="Tracé_125" data-name="Tracé 125" d="M437.254,62.479c0-.029-.006-.059-.008-.09C437.248,62.42,437.251,62.45,437.254,62.479Z" transform="translate(-437.241 -58.86)" fill="#d7d5d9"/>
        <path id="Tracé_126" data-name="Tracé 126" d="M437.151,58.362c0-.033,0-.068,0-.1C437.151,58.295,437.151,58.329,437.151,58.362Z" transform="translate(-437.151 -54.964)" fill="#d7d5d9"/>
        <path id="Tracé_127" data-name="Tracé 127" d="M437.473,51.423q.006-.06.014-.122C437.482,51.342,437.477,51.383,437.473,51.423Z" transform="translate(-437.455 -48.4)" fill="#d7d5d9"/>
        <path id="Tracé_128" data-name="Tracé 128" d="M438.113,46.276q.011-.067.023-.136Q438.124,46.209,438.113,46.276Z" transform="translate(-438.059 -43.531)" fill="#d7d5d9"/>
        <path id="Tracé_129" data-name="Tracé 129" d="M439.086,40.7q.015-.074.033-.151Q439.1,40.627,439.086,40.7Z" transform="translate(-438.976 -38.258)" fill="#d7d5d9"/>
        <path id="Tracé_130" data-name="Tracé 130" d="M437.436,64.389c0-.027-.008-.055-.012-.084C437.427,64.334,437.431,64.362,437.436,64.389Z" transform="translate(-437.409 -60.667)" fill="#d7d5d9"/>
        <path id="Tracé_131" data-name="Tracé 131" d="M437.28,53.841q0-.056.01-.115C437.286,53.765,437.283,53.8,437.28,53.841Z" transform="translate(-437.273 -50.687)" fill="#d7d5d9"/>
        <path id="Tracé_132" data-name="Tracé 132" d="M438.558,43.544q.013-.071.028-.144Q438.571,43.473,438.558,43.544Z" transform="translate(-438.478 -40.946)" fill="#d7d5d9"/>
        <path id="Tracé_133" data-name="Tracé 133" d="M437.173,56.151c0-.035,0-.072.005-.109C437.176,56.079,437.174,56.115,437.173,56.151Z" transform="translate(-437.172 -52.872)" fill="#d7d5d9"/>
        <path id="Tracé_134" data-name="Tracé 134" d="M441.152,31.524q.023-.086.047-.175Q441.174,31.438,441.152,31.524Z" transform="translate(-440.925 -29.578)" fill="#d7d5d9"/>
        <path id="Tracé_135" data-name="Tracé 135" d="M437.71,66.2c-.006-.026-.011-.052-.016-.078C437.7,66.148,437.7,66.174,437.71,66.2Z" transform="translate(-437.663 -62.38)" fill="#d7d5d9"/>
        <path id="Tracé_136" data-name="Tracé 136" d="M454.088,4.517c.019-.019.038-.036.057-.053C454.126,4.48,454.107,4.5,454.088,4.517Z" transform="translate(-453.129 -4.216)" fill="#d7d5d9"/>
        <path id="Tracé_137" data-name="Tracé 137" d="M455.123,3.667c.019-.016.039-.032.058-.046Q455.152,3.643,455.123,3.667Z" transform="translate(-454.105 -3.42)" fill="#d7d5d9"/>
        <path id="Tracé_138" data-name="Tracé 138" d="M440.519,73.818c-.012-.017-.023-.034-.034-.052C440.5,73.784,440.507,73.8,440.519,73.818Z" transform="translate(-440.296 -69.592)" fill="#d7d5d9"/>
        <path id="Tracé_139" data-name="Tracé 139" d="M456.255,2.884c.019-.014.039-.027.058-.04C456.294,2.856,456.274,2.869,456.255,2.884Z" transform="translate(-455.173 -2.687)" fill="#d7d5d9"/>
        <path id="Tracé_140" data-name="Tracé 140" d="M439.1,71.052c-.01-.02-.019-.041-.027-.062C439.084,71.011,439.093,71.032,439.1,71.052Z" transform="translate(-438.966 -66.973)" fill="#d7d5d9"/>
        <path id="Tracé_141" data-name="Tracé 141" d="M439.763,72.483c-.011-.018-.021-.038-.031-.057C439.742,72.445,439.752,72.465,439.763,72.483Z" transform="translate(-439.586 -68.328)" fill="#d7d5d9"/>
        <path id="Tracé_142" data-name="Tracé 142" d="M449.88,9.49q.025-.042.051-.08C449.914,9.435,449.9,9.462,449.88,9.49Z" transform="translate(-449.159 -8.881)" fill="#d7d5d9"/>
        <path id="Tracé_143" data-name="Tracé 143" d="M438.078,67.911c-.007-.024-.014-.048-.02-.073C438.064,67.863,438.071,67.887,438.078,67.911Z" transform="translate(-438.007 -64)" fill="#d7d5d9"/>
        <path id="Tracé_144" data-name="Tracé 144" d="M452.976,5.6q.027-.031.055-.058Q453,5.568,452.976,5.6Z" transform="translate(-452.08 -5.231)" fill="#d7d5d9"/>
        <path id="Tracé_145" data-name="Tracé 145" d="M450.916,6.853a1.587,1.587,0,0,1,.11-.142A1.6,1.6,0,0,0,450.916,6.853Z" transform="translate(-450.136 -6.335)" fill="#d7d5d9"/>
        <path id="Tracé_146" data-name="Tracé 146" d="M438.543,69.53c-.009-.022-.016-.045-.024-.068C438.526,69.485,438.534,69.508,438.543,69.53Z" transform="translate(-438.442 -65.532)" fill="#d7d5d9"/>
        <path id="Tracé_147" data-name="Tracé 147" d="M439.7,37.756q.018-.078.037-.159Q439.713,37.678,439.7,37.756Z" transform="translate(-439.551 -35.472)" fill="#d7d5d9"/>
        <path id="Tracé_148" data-name="Tracé 148" d="M481.656,69.946l-.07.066Z" transform="translate(-479.069 -65.989)" fill="#d7d5d9"/>
        <path id="Tracé_149" data-name="Tracé 149" d="M480.2,71.221l-.077.069Z" transform="translate(-477.685 -67.191)" fill="#d7d5d9"/>
        <path id="Tracé_150" data-name="Tracé 150" d="M486.037,65.449l-.07.075Z" transform="translate(-483.202 -61.746)" fill="#d7d5d9"/>
        <path id="Tracé_151" data-name="Tracé 151" d="M487.365,63.861l-.076.085Z" transform="translate(-484.449 -60.248)" fill="#d7d5d9"/>
        <path id="Tracé_152" data-name="Tracé 152" d="M478.791,72.667l-.064.055Z" transform="translate(-476.372 -68.555)" fill="#d7d5d9"/>
        <path id="Tracé_153" data-name="Tracé 153" d="M475.819,75.1l-.067.051Z" transform="translate(-473.566 -70.846)" fill="#d7d5d9"/>
        <path id="Tracé_154" data-name="Tracé 154" d="M474.194,76.245l-.074.053Z" transform="translate(-472.026 -71.931)" fill="#d7d5d9"/>
        <path id="Tracé_155" data-name="Tracé 155" d="M509.51,30.706q-.017.042-.037.086Q509.493,30.748,509.51,30.706Z" transform="translate(-505.377 -28.971)" fill="#d7d5d9"/>
        <path id="Tracé_156" data-name="Tracé 156" d="M488.8,62.328l-.07.08Z" transform="translate(-485.813 -58.802)" fill="#d7d5d9"/>
        <path id="Tracé_157" data-name="Tracé 157" d="M477.18,73.869l-.076.062Z" transform="translate(-474.841 -69.689)" fill="#d7d5d9"/>
        <path id="Tracé_158" data-name="Tracé 158" d="M448.881,11.044c-.017.029-.035.059-.052.091h0C448.846,11.1,448.864,11.073,448.881,11.044Z" transform="translate(-448.168 -10.423)" fill="#d7d5d9"/>
        <path id="Tracé_159" data-name="Tracé 159" d="M499.122,47.13q-.062.1-.128.192Q499.061,47.226,499.122,47.13Z" transform="translate(-495.492 -44.465)" fill="#d7d5d9"/>
        <path id="Tracé_160" data-name="Tracé 160" d="M495.562,50.545c-.065.1-.134.191-.2.286C495.428,50.736,495.5,50.64,495.562,50.545Z" transform="translate(-492.06 -47.686)" fill="#d7d5d9"/>
        <path id="Tracé_161" data-name="Tracé 161" d="M508.615,32.52h0c.015-.032.03-.064.044-.095C508.645,32.456,508.63,32.488,508.615,32.52Z" transform="translate(-504.567 -30.593)" fill="#d7d5d9"/>
        <path id="Tracé_162" data-name="Tracé 162" d="M505.339,7.75a1.01,1.01,0,0,0-.1-.1A1.017,1.017,0,0,1,505.339,7.75Z" transform="translate(-501.382 -7.224)" fill="#d7d5d9"/>
        <path id="Tracé_163" data-name="Tracé 163" d="M492.944,55.646q-.07.093-.142.184Q492.875,55.739,492.944,55.646Z" transform="translate(-489.65 -52.499)" fill="#d7d5d9"/>
        <path id="Tracé_164" data-name="Tracé 164" d="M472.81,77.206l-.076.05Z" transform="translate(-470.719 -72.837)" fill="#d7d5d9"/>
        <path id="Tracé_165" data-name="Tracé 165" d="M483.083,67.15q.076-.074.151-.153Q483.159,67.076,483.083,67.15Z" transform="translate(-480.481 -63.207)" fill="#d7d5d9"/>
        <path id="Tracé_166" data-name="Tracé 166" d="M490.245,59.043q-.072.09-.146.177Q490.173,59.133,490.245,59.043Z" transform="translate(-487.1 -55.703)" fill="#d7d5d9"/>
        <path id="Tracé_167" data-name="Tracé 167" d="M442.05,28.057q-.027.093-.052.184.025-.09.052-.184Z" transform="translate(-441.723 -26.472)" fill="#d7d5d9"/>
        <path id="Tracé_168" data-name="Tracé 168" d="M500.653,4.823a1.106,1.106,0,0,1,.2.116A1.114,1.114,0,0,0,500.653,4.823Z" transform="translate(-497.056 -4.554)" fill="#d7d5d9"/>
        <path id="Tracé_169" data-name="Tracé 169" d="M487.465,2.432l.015,0Z" transform="translate(-484.615 -2.299)" fill="#d7d5d9"/>
        <path id="Tracé_170" data-name="Tracé 170" d="M510.26,29.029c-.01.026-.021.054-.032.081C510.239,29.083,510.25,29.055,510.26,29.029Z" transform="translate(-506.089 -27.389)" fill="#d7d5d9"/>
        <path id="Tracé_171" data-name="Tracé 171" d="M469.782,79.141l-.075.041Z" transform="translate(-467.863 -74.663)" fill="#d7d5d9"/>
        <path id="Tracé_172" data-name="Tracé 172" d="M489.138,2.58h0Z" transform="translate(-486.193 -2.438)" fill="#d7d5d9"/>
        <path id="Tracé_173" data-name="Tracé 173" d="M482.725,1.838l.018,0Z" transform="translate(-480.144 -1.738)" fill="#d7d5d9"/>
        <path id="Tracé_174" data-name="Tracé 174" d="M484.371,2.069l.013,0Z" transform="translate(-481.696 -1.956)" fill="#d7d5d9"/>
        <path id="Tracé_175" data-name="Tracé 175" d="M468.406,80.024l-.06.03Z" transform="translate(-466.579 -75.496)" fill="#d7d5d9"/>
        <path id="Tracé_176" data-name="Tracé 176" d="M478.388,1.167l.1.015Z" transform="translate(-476.052 -1.105)" fill="#d7d5d9"/>
        <path id="Tracé_177" data-name="Tracé 177" d="M466.764,80.718l-.074.032Z" transform="translate(-465.017 -76.15)" fill="#d7d5d9"/>
        <path id="Tracé_178" data-name="Tracé 178" d="M485.952,2.268h0Z" transform="translate(-483.188 -2.144)" fill="#d7d5d9"/>
        <path id="Tracé_179" data-name="Tracé 179" d="M465.446,81.34l-.067.025Z" transform="translate(-463.78 -76.737)" fill="#d7d5d9"/>
        <path id="Tracé_180" data-name="Tracé 180" d="M462.513,82.3l-.072.017Z" transform="translate(-461.009 -77.639)" fill="#d7d5d9"/>
        <path id="Tracé_181" data-name="Tracé 181" d="M510.9,27.42c-.009.026-.018.053-.028.08C510.877,27.473,510.887,27.446,510.9,27.42Z" transform="translate(-506.692 -25.871)" fill="#d7d5d9"/>
        <path id="Tracé_182" data-name="Tracé 182" d="M463.96,81.9l-.064.019Z" transform="translate(-462.381 -77.266)" fill="#d7d5d9"/>
        <path id="Tracé_183" data-name="Tracé 183" d="M471.359,78.309l-.062.038Z" transform="translate(-469.363 -73.878)" fill="#d7d5d9"/>
        <path id="Tracé_184" data-name="Tracé 184" d="M511.49,18.223a1.23,1.23,0,0,1,.025.166A1.231,1.231,0,0,0,511.49,18.223Z" transform="translate(-507.279 -17.195)" fill="#d7d5d9"/>
        <path id="Tracé_185" data-name="Tracé 185" d="M509.663,13.172a1.106,1.106,0,0,1,.052.114A1.106,1.106,0,0,0,509.663,13.172Z" transform="translate(-505.556 -12.43)" fill="#d7d5d9"/>
        <path id="Tracé_186" data-name="Tracé 186" d="M481.135,1.6l.017,0Z" transform="translate(-478.644 -1.512)" fill="#d7d5d9"/>
        <path id="Tracé_187" data-name="Tracé 187" d="M507.789,10.276a1.044,1.044,0,0,1,.106.164A1.051,1.051,0,0,0,507.789,10.276Z" transform="translate(-503.788 -9.698)" fill="#d7d5d9"/>
      </g>
      <g id="Groupe_592" data-name="Groupe 592" transform="translate(25.087 0.787)">
        <path id="Tracé_188" data-name="Tracé 188" d="M501.248,34.834a6.769,6.769,0,0,0,.417-.738h0A6.779,6.779,0,0,1,501.248,34.834Z" transform="translate(-497.944 -32.881)" fill="#acaab1"/>
        <path id="Tracé_189" data-name="Tracé 189" d="M442.947,26.432l-.027.092h0Z" transform="translate(-442.92 -25.651)" fill="#acaab1"/>
        <path id="Tracé_190" data-name="Tracé 190" d="M444.163,22.751l.024-.072Z" transform="translate(-444.093 -22.111)" fill="#acaab1"/>
        <path id="Tracé_191" data-name="Tracé 191" d="M445.405,18.856l.034-.09C445.428,18.8,445.416,18.825,445.405,18.856Z" transform="translate(-445.264 -18.419)" fill="#acaab1"/>
        <path id="Tracé_192" data-name="Tracé 192" d="M448.206,12.646h0l-.038.072Z" transform="translate(-447.871 -12.646)" fill="#acaab1"/>
        <path id="Tracé_193" data-name="Tracé 193" d="M443.392,24.635c.011-.037.022-.073.033-.108C443.414,24.562,443.4,24.6,443.392,24.635Z" transform="translate(-443.365 -23.854)" fill="#acaab1"/>
        <path id="Tracé_194" data-name="Tracé 194" d="M444.788,20.928l.025-.069Z" transform="translate(-444.682 -20.394)" fill="#acaab1"/>
        <path id="Tracé_195" data-name="Tracé 195" d="M446.022,17.271c.012-.03.024-.06.036-.088C446.046,17.212,446.034,17.241,446.022,17.271Z" transform="translate(-445.846 -16.926)" fill="#acaab1"/>
        <path id="Tracé_196" data-name="Tracé 196" d="M447.506,14.325l.028-.058Z" transform="translate(-447.246 -14.175)" fill="#acaab1"/>
        <path id="Tracé_197" data-name="Tracé 197" d="M446.822,15.774l.028-.063Z" transform="translate(-446.601 -15.537)" fill="#acaab1"/>
      </g>
      <g id="Groupe_593" data-name="Groupe 593" transform="translate(24.761 0.075)">
        <path id="Tracé_198" data-name="Tracé 198" d="M452.214,2q.023-.048.044-.095l.005-.011.037-.086.006-.014c.011-.028.022-.055.032-.081l0-.011c.01-.027.02-.054.028-.08a.937.937,0,0,0,.032-.355,1.229,1.229,0,0,0-.025-.166,1.178,1.178,0,0,0-.052-.172,1.125,1.125,0,0,0-.052-.114,1.044,1.044,0,0,0-.106-.164q-.021-.026-.044-.052a1.01,1.01,0,0,0-.1-.1c-.018-.015-.037-.03-.057-.045a1.107,1.107,0,0,0-.2-.116,1.541,1.541,0,0,0-.554-.121l-.084-.005h-.014L451.032.21l-.015,0L450.937.2h-.006l-.076-.01-.013,0-.076-.011-.018,0-.073-.011-.017,0L450.6.152l-.1-.015h0L450.42.124h0L450.261.1h-.009l-.073-.009h-.008c-.049-.005-.1-.01-.146-.012h-.009l-.069,0h-.009c-.047,0-.093,0-.139,0h-.008l-.066.007h-.009L449.651.1h0l-.065.015-.007,0-.062.019-.009,0-.062.024,0,0L449.38.19l0,0-.06.034-.009.006c-.02.012-.039.025-.058.04l-.006,0c-.02.015-.039.03-.058.046h0c-.019.016-.038.034-.057.053l-.008.008c-.018.018-.037.038-.055.058l-.007.008a1.587,1.587,0,0,0-.11.142L448.939.6q-.026.038-.051.08L448.88.7c-.017.029-.035.059-.052.091A3.641,3.641,0,0,1,452.214,2Z" transform="translate(-448.167 -0.075)" fill="#d7d5d9"/>
        <path id="Tracé_199" data-name="Tracé 199" d="M440.521,28.566a2.9,2.9,0,0,0-2.758-.876.442.442,0,0,1-.282-.032q-.027.093-.052.184v0q-.025.089-.047.175v0q-.022.085-.042.167l0,.007q-.02.081-.037.159l0,.008q-.017.077-.033.151l0,.01q-.015.073-.028.144l0,.012q-.013.069-.023.136l0,.013q-.01.066-.019.129l0,.014c-.005.041-.01.082-.014.122v.015c0,.039-.007.078-.01.115,0,.005,0,.011,0,.016q0,.055-.005.109c0,.006,0,.011,0,.017,0,.035,0,.069,0,.1,0,.006,0,.012,0,.018,0,.033,0,.065,0,.1,0,.006,0,.012,0,.018,0,.031,0,.061.008.09l0,.019c0,.029.007.057.012.084l0,.019c0,.027.01.053.016.078l0,.019c.006.025.013.049.02.073l.006.019c.007.023.015.046.024.068l.008.019c.009.021.018.042.027.062l.01.019c.01.019.02.039.031.057l.012.019c.011.018.022.035.034.052l.014.018c.012.016.024.032.037.047l.017.018c.013.015.026.029.04.043l.02.018c.014.013.028.026.043.038l.023.018.046.034.027.017.047.029.032.017.048.025.037.016.049.021.043.015.049.017L438,30.7l.047.013.064.014.04.009.111.019c.023,0,.046.005.069.007h.09l.07-.006.017,0,.057-.009.019,0,.072-.017.01,0,.064-.019.02-.007.067-.025.007,0,.074-.032.02-.009.06-.03.017-.009.075-.041.015-.009.062-.038.019-.012.076-.05,0,0,.074-.053.019-.014.067-.051.009-.007.076-.062.015-.013.064-.055.015-.013.077-.069.007-.006.07-.066.015-.014q.076-.074.151-.153l.012-.013.07-.075,0-.005.076-.085.006-.007.07-.08.008-.009q.074-.087.146-.177l.007-.008q.073-.091.142-.184l0,0c.071-.095.139-.19.2-.286v0q.066-.1.128-.192h0A.438.438,0,0,1,440.521,28.566Z" transform="translate(-437.155 -26.073)" fill="#d7d5d9"/>
      </g>
      <g id="Groupe_594" data-name="Groupe 594" transform="translate(25.087 0.75)">
        <path id="Tracé_200" data-name="Tracé 200" d="M446.662,16.837l.009-.021Z" transform="translate(-446.45 -16.543)" fill="#acaab1"/>
        <path id="Tracé_201" data-name="Tracé 201" d="M445.222,20.386l.01-.028Z" transform="translate(-445.092 -19.884)" fill="#acaab1"/>
        <path id="Tracé_202" data-name="Tracé 202" d="M448,13.942l.01-.02Z" transform="translate(-447.709 -13.812)" fill="#acaab1"/>
        <path id="Tracé_203" data-name="Tracé 203" d="M443.978,23.986l.01-.032Z" transform="translate(-443.918 -23.276)" fill="#acaab1"/>
        <path id="Tracé_204" data-name="Tracé 204" d="M444.585,22.116l.012-.034Z" transform="translate(-444.491 -21.51)" fill="#acaab1"/>
        <path id="Tracé_205" data-name="Tracé 205" d="M446.012,18.741h0Z" transform="translate(-445.837 -18.358)" fill="#acaab1"/>
        <path id="Tracé_206" data-name="Tracé 206" d="M447.312,15.314l.011-.024Z" transform="translate(-447.063 -15.103)" fill="#acaab1"/>
        <path id="Tracé_207" data-name="Tracé 207" d="M501.247,47.129Z" transform="translate(-497.943 -45.139)" fill="#acaab1"/>
        <path id="Tracé_208" data-name="Tracé 208" d="M443.254,12.025l-.037.072-.01.02-.028.058-.011.024-.028.063-.009.021c-.012.029-.024.058-.036.088h0c-.012.029-.023.059-.034.09l-.01.028-.025.069-.012.034-.024.072-.01.032c-.011.035-.022.071-.033.108l-.027.092a.44.44,0,0,0,.282.032,2.9,2.9,0,0,1,2.758.876.441.441,0,0,0,.264.172h0a6.759,6.759,0,0,0,.417-.738A3.641,3.641,0,0,0,443.254,12.025Z" transform="translate(-442.919 -11.988)" fill="#acaab1"/>
      </g>
    </g>
  </g>
</svg>
