<svg width="28" height="21" viewBox="0 0 28 21" fill="none" xmlns="http://www.w3.org/2000/svg">
<g id="transactions-svgrepo-com (1)">
<circle id="Ellipse 94" cx="2.625" cy="2.625" r="2.625" fill="#888888"/>
<path id="Trac&#195;&#169; 1587" fill-rule="evenodd" clip-rule="evenodd" d="M7 0.875C7 0.391755 7.39175 0 7.875 0H27.125C27.6082 0 28 0.391755 28 0.875C28 1.35825 27.6082 1.75 27.125 1.75H7.875C7.39175 1.75 7 1.35825 7 0.875Z" fill="#888888"/>
<path id="Trac&#195;&#169; 1588" fill-rule="evenodd" clip-rule="evenodd" d="M7 4.375C7 3.89175 7.39175 3.5 7.875 3.5H18.375C18.8582 3.5 19.25 3.89175 19.25 4.375C19.25 4.85825 18.8582 5.25 18.375 5.25H7.875C7.39175 5.25 7 4.85825 7 4.375Z" fill="#888888"/>
<circle id="Ellipse 95" cx="2.625" cy="10.5" r="2.625" fill="#888888"/>
<path id="Trac&#195;&#169; 1589" fill-rule="evenodd" clip-rule="evenodd" d="M7 8.75C7 8.26682 7.39175 7.875 7.875 7.875H21.875C22.3582 7.875 22.75 8.26682 22.75 8.75C22.75 9.23318 22.3582 9.625 21.875 9.625H7.875C7.39175 9.625 7 9.23318 7 8.75Z" fill="#888888"/>
<path id="Trac&#195;&#169; 1590" fill-rule="evenodd" clip-rule="evenodd" d="M7 12.25C7 11.7668 7.39175 11.375 7.875 11.375H20.125C20.6082 11.375 21 11.7668 21 12.25C21 12.7332 20.6082 13.125 20.125 13.125H7.875C7.39175 13.125 7 12.7332 7 12.25Z" fill="#888888"/>
<circle id="Ellipse 96" cx="2.625" cy="18.375" r="2.625" fill="#888888"/>
<path id="Trac&#195;&#169; 1591" fill-rule="evenodd" clip-rule="evenodd" d="M7 16.625C7 16.1418 7.39175 15.75 7.875 15.75H24.5C24.9832 15.75 25.375 16.1418 25.375 16.625C25.375 17.1082 24.9832 17.5 24.5 17.5H7.875C7.39175 17.5 7 17.1082 7 16.625Z" fill="#888888"/>
<path id="Trac&#195;&#169; 1592" fill-rule="evenodd" clip-rule="evenodd" d="M7 20.125C7 19.6418 7.39175 19.25 7.875 19.25H14.875C15.3582 19.25 15.75 19.6418 15.75 20.125C15.75 20.6082 15.3582 21 14.875 21H7.875C7.39175 21 7 20.6082 7 20.125Z" fill="#888888"/>
</g>
</svg>
