<svg width="24" height="24" viewBox="0 0 24 24" fill="none" xmlns="http://www.w3.org/2000/svg">
<circle cx="12" cy="12" r="12" fill="#888888"/>
<g clip-path="url(#clip0_213_4144)">
<path d="M17.925 18.5H19L16 11H14.825L11.825 18.5H12.9L13.7 16.5H17.125L17.925 18.5ZM14.1 15.5L15.41 12.22L16.725 15.5H14.1Z" fill="white"/>
<path d="M13 7.5V6.5H9.5V5H8.5V6.5H5V7.5H10.37C10.093 8.64268 9.54601 9.7023 8.775 10.59C8.2724 9.96675 7.88469 9.25906 7.63 8.5H6.58C6.89474 9.51831 7.40416 10.4658 8.08 11.29C7.33306 12.0145 6.45828 12.5943 5.5 13L5.875 13.93C6.95179 13.4754 7.93248 12.8204 8.765 12C9.58242 12.8316 10.5629 13.4853 11.645 13.92L12 13C11.0362 12.6275 10.1633 12.0529 9.44 11.315C10.3973 10.224 11.0705 8.91357 11.4 7.5H13Z" fill="white"/>
</g>
<defs>
<clipPath id="clip0_213_4144">
<rect width="16" height="16" fill="white" transform="translate(4 4)"/>
</clipPath>
</defs>
</svg>
