<svg width="16" height="16" viewBox="0 0 16 16" fill="none" xmlns="http://www.w3.org/2000/svg">
<path d="M8 4.88889V11.1111M4.88889 8H11.1111M4.73333 15H11.2667C12.5735 15 13.2268 15 13.726 14.7457C14.1651 14.522 14.522 14.1651 14.7457 13.726C15 13.2268 15 12.5735 15 11.2667V4.73333C15 3.42654 15 2.77315 14.7457 2.27402C14.522 1.83498 14.1651 1.47802 13.726 1.25432C13.2268 1 12.5735 1 11.2667 1H4.73333C3.42654 1 2.77315 1 2.27402 1.25432C1.83498 1.47802 1.47802 1.83498 1.25432 2.27402C1 2.77315 1 3.42654 1 4.73333V11.2667C1 12.5735 1 13.2268 1.25432 13.726C1.47802 14.1651 1.83498 14.522 2.27402 14.7457C2.77315 15 3.42654 15 4.73333 15Z" stroke="#888888" stroke-width="1.5" stroke-linecap="round" stroke-linejoin="round"/>
</svg>
