<svg width="14" height="16" viewBox="0 0 14 16" fill="none" xmlns="http://www.w3.org/2000/svg">
<path fill-rule="evenodd" clip-rule="evenodd" d="M8.88217 0V4.70588H13.588V16H0.411591V0H8.88217ZM7.00076 11.2941H3.23512V12.2362H7.00077L7.00076 11.2941ZM9.82335 9.41174H3.23512V10.3529H9.82336L9.82335 9.41174ZM8.88217 7.52938H3.23512V8.47055H8.88218L8.88217 7.52938ZM10.7645 5.64703H3.23511V6.5882H10.7645V5.64703ZM7.00077 3.76565H3.23512V4.70683H7.00077V3.76565Z" fill="#888888"/>
<path fill-rule="evenodd" clip-rule="evenodd" d="M12.9005 2.88039C13.1537 3.13263 13.3325 3.43568 13.4473 3.76509H9.82285V0.140625C10.1523 0.25545 10.4553 0.435208 10.7085 0.68745L12.9005 2.88039Z" fill="#888888"/>
</svg>
