<svg width="16" height="13" viewBox="0 0 16 13" fill="none" xmlns="http://www.w3.org/2000/svg">
<path d="M11.3465 0.156738C8.77119 0.156738 6.70585 2.24758 6.70585 4.82287C6.70585 7.38542 8.78394 9.46351 11.3465 9.46351C13.909 9.46351 15.9999 7.38542 15.9999 4.81013C15.9999 2.23483 13.9218 0.156738 11.3465 0.156738ZM11.6971 7.35355V8.08024H11.0533V7.37267C10.4987 7.37267 9.93773 7.22606 9.67 7.07307L9.90586 6.12965C10.2055 6.27626 10.6708 6.44837 11.168 6.44837C11.7035 6.44837 11.9648 6.21251 11.9648 5.89379C11.9648 5.57506 11.7098 5.4412 11.0979 5.19897C10.2437 4.89937 9.71462 4.47228 9.71462 3.70096C9.71462 2.99339 10.18 2.43881 11.0405 2.2667V1.50176H11.6843V2.22845C12.2198 2.22845 12.6023 2.33682 12.8891 2.48981L12.6278 3.40773C12.4174 3.31849 12.0732 3.17188 11.6015 3.17188C11.1298 3.17188 10.8748 3.40773 10.8748 3.63722C10.8748 3.95594 11.1744 4.08343 11.8182 4.34479C12.6979 4.66351 13.1059 5.10973 13.1059 5.84279C13.0804 6.58224 12.6341 7.13682 11.6971 7.35355ZM12.9847 12.0388C12.9847 12.485 12.6214 12.842 12.1816 12.842H6.71223C6.05566 12.8611 5.34809 12.6125 4.8445 12.1153L2.78554 10.0563C2.52418 9.79498 2.18633 9.66112 1.84848 9.66112H-0.00012207V6.47387H3.44211V6.46749C4.07956 6.46749 4.71701 6.7161 5.21422 7.20056L8.16562 10.152C8.47797 10.4643 8.47797 10.9679 8.16562 11.2802C7.85327 11.5926 7.34968 11.5926 7.03733 11.2802L4.65326 8.90893C4.55765 8.80056 4.39191 8.80056 4.28992 8.90893C4.18155 9.0173 4.18155 9.18303 4.28992 9.28502L6.66123 11.6563C6.90984 11.9177 7.24769 12.0516 7.59828 12.0516C7.94888 12.0516 8.29311 11.9049 8.53534 11.6563C8.65645 11.548 8.75207 11.395 8.82219 11.2484H12.1752C12.6214 11.2484 12.9847 11.6053 12.9847 12.0388Z" fill="#888888"/>
</svg>
