<svg width="16" height="17" viewBox="0 0 16 17" fill="none" xmlns="http://www.w3.org/2000/svg">
<mask id="mask0_21_4253" style="mask-type:alpha" maskUnits="userSpaceOnUse" x="0" y="0" width="16" height="17">
<rect y="0.5" width="16" height="16" fill="#FFF4E3"/>
</mask>
<g mask="url(#mask0_21_4253)">
<path d="M13 6.49984H11.6667V4.83317C11.6667 2.80813 10.025 1.1665 7.99999 1.1665L7.33332 1.1665C5.30828 1.1665 3.66666 2.80813 3.66666 4.83317V6.49984H2.33332C1.96513 6.49984 1.66666 6.79831 1.66666 7.1665V15.1665C1.66666 15.5347 1.96513 15.8332 2.33332 15.8332H13C13.3682 15.8332 13.6667 15.5347 13.6667 15.1665V7.1665C13.6667 6.79831 13.3682 6.49984 13 6.49984ZM4.99999 4.83317C4.99999 3.54451 6.04466 2.49984 7.33333 2.49984H7.99999C9.28865 2.49984 10.3333 3.54451 10.3333 4.83317L10.3333 6.49984H4.99999V4.83317ZM4.66666 12.1665C4.11437 12.1665 3.66666 11.7188 3.66666 11.1665C3.66666 10.6142 4.11437 10.1665 4.66666 10.1665C5.21894 10.1665 5.66666 10.6142 5.66666 11.1665C5.67607 11.4345 5.57374 11.6944 5.38412 11.884C5.19451 12.0736 4.93465 12.1759 4.66666 12.1665ZM7.66666 12.1665C7.11437 12.1665 6.66666 11.7188 6.66666 11.1665C6.66666 10.6142 7.11437 10.1665 7.66666 10.1665C8.21894 10.1665 8.66666 10.6142 8.66666 11.1665C8.67607 11.4345 8.57374 11.6944 8.38412 11.884C8.19451 12.0736 7.93465 12.1759 7.66666 12.1665ZM10.6667 12.1665C10.1144 12.1665 9.66666 11.7188 9.66666 11.1665C9.66666 10.6142 10.1144 10.1665 10.6667 10.1665C11.2189 10.1665 11.6667 10.6142 11.6667 11.1665C11.6761 11.4345 11.5737 11.6944 11.3841 11.884C11.1945 12.0736 10.9346 12.1759 10.6667 12.1665Z" fill="#888888"/>
</g>
</svg>
