<svg width="16" height="16" viewBox="0 0 16 16" fill="none" xmlns="http://www.w3.org/2000/svg">
<circle cx="8" cy="8" r="8" fill="#888888"/>
<path d="M10.1543 5.02182C10.2173 4.92339 10.1886 4.79243 10.0901 4.72942C9.46652 4.33019 8.74383 4.11914 8.00014 4.11914C5.86017 4.11914 4.11911 5.86016 4.11911 8.00018C4.11911 10.1402 5.86015 11.8812 8.00014 11.8812C10.1401 11.8812 11.8812 10.1402 11.8811 8.0002C11.8811 7.12531 11.597 6.2994 11.0593 5.61174C10.9874 5.51968 10.8544 5.50338 10.7622 5.57536C10.6701 5.64735 10.6538 5.78037 10.7258 5.8725C11.2047 6.48497 11.4578 7.2207 11.4578 8.00016C11.4578 9.90672 9.90668 11.4578 8.00012 11.4578C6.09357 11.4578 4.5425 9.90669 4.5425 8.00013C4.5425 6.09357 6.09359 4.54251 8.00014 4.54251C8.66277 4.54251 9.30652 4.73044 9.86185 5.08598C9.96021 5.14899 10.0912 5.12029 10.1543 5.02182Z" fill="#FFFCF8"/>
<path d="M13.0102 8.00001C13.0102 7.75665 13.069 7.48709 13.126 7.22643C13.226 6.7685 13.3294 6.29497 13.1515 5.86606C12.9661 5.41891 12.5497 5.15483 12.1469 4.89945C11.919 4.75491 11.7038 4.61842 11.5427 4.45735C11.3817 4.2963 11.2452 4.08105 11.1007 3.85312C10.8453 3.45044 10.5812 3.03402 10.1341 2.84859C9.70513 2.67077 9.23164 2.77416 8.77368 2.87416C8.51302 2.93109 8.24348 2.98994 8.00013 2.98994C7.75677 2.98994 7.48723 2.93109 7.22657 2.87416C6.76866 2.77416 6.2951 2.67075 5.86618 2.84859C5.41903 3.034 5.15498 3.45042 4.89959 3.85312C4.75509 4.08102 4.61855 4.2963 4.45753 4.45735C4.29648 4.61838 4.08118 4.75491 3.8533 4.89941C3.45058 5.1548 3.03416 5.41891 2.84873 5.86606C2.67089 6.29494 2.77427 6.76846 2.87427 7.22639C2.9312 7.48705 2.99008 7.75661 2.99008 7.99997C2.99008 8.24333 2.9312 8.51288 2.87427 8.77354C2.77427 9.23148 2.67087 9.70501 2.84873 10.1339C3.03418 10.5811 3.4506 10.8452 3.8533 11.1006L3.93471 11.1523C4.03327 11.2152 4.16415 11.1863 4.22702 11.0877C4.28994 10.9891 4.26101 10.8583 4.16245 10.7954L4.08006 10.743C3.71694 10.5127 3.37397 10.2952 3.23981 9.97176C3.11288 9.66557 3.19793 9.27617 3.28795 8.86391C3.34965 8.58129 3.41347 8.28904 3.41347 7.99997C3.41347 7.71092 3.34967 7.41866 3.28795 7.13603C3.19793 6.72377 3.1129 6.33437 3.23981 6.0282C3.37397 5.7047 3.71694 5.4872 4.08003 5.25694C4.31737 5.10647 4.56271 4.95083 4.75689 4.75669C4.95103 4.56255 5.10667 4.31717 5.25716 4.07984C5.4874 3.71674 5.7049 3.37381 6.02838 3.23968C6.33455 3.1127 6.72397 3.19773 7.13627 3.28777C7.41886 3.34947 7.71111 3.41329 8.00015 3.41329C8.28918 3.41329 8.58139 3.3495 8.86403 3.28777C9.27633 3.19773 9.66577 3.11268 9.97192 3.23968C10.2954 3.37381 10.5129 3.71674 10.7431 4.07984C10.8936 4.31717 11.0493 4.56255 11.2434 4.75669C11.4375 4.95083 11.683 5.10647 11.9203 5.25696C12.2834 5.48722 12.6263 5.70472 12.7605 6.0282C12.8874 6.33439 12.8024 6.72379 12.7124 7.13605C12.6507 7.41866 12.5868 7.71092 12.5868 7.99999C12.5868 8.28906 12.6506 8.58129 12.7124 8.86393C12.8024 9.27619 12.8874 9.66559 12.7605 9.97176C12.6263 10.2953 12.2834 10.5128 11.9203 10.743C11.6829 10.8935 11.4376 11.0491 11.2434 11.2433C11.0493 11.4374 10.8936 11.6828 10.7431 11.9201C10.5129 12.2832 10.2954 12.6261 9.97192 12.7603C9.66575 12.8872 9.27632 12.8022 8.86403 12.7122C8.58143 12.6505 8.28918 12.5867 8.00015 12.5867C7.71111 12.5867 7.4189 12.6505 7.13627 12.7122C6.72397 12.8022 6.33461 12.8873 6.02837 12.7603C5.7049 12.6262 5.48744 12.2832 5.25716 11.9202C5.19685 11.8251 5.13448 11.7268 5.07011 11.6325C5.00412 11.536 4.87237 11.5112 4.77589 11.5772C4.67936 11.6432 4.65457 11.7749 4.72054 11.8714C4.78086 11.9596 4.83856 12.0506 4.89961 12.1469C5.155 12.5496 5.41907 12.966 5.8662 13.1514C6.03575 13.2217 6.21218 13.2481 6.39193 13.2481C6.66696 13.2481 6.94965 13.1863 7.22659 13.1258C7.48725 13.0689 7.75679 13.01 8.00015 13.01C8.2435 13.01 8.51304 13.0689 8.7737 13.1258C9.23164 13.2258 9.70515 13.3292 10.1341 13.1514C10.5812 12.966 10.8453 12.5496 11.1007 12.1469C11.2452 11.919 11.3817 11.7037 11.5427 11.5426C11.7038 11.3816 11.9191 11.2451 12.147 11.1006C12.5497 10.8452 12.9661 10.5811 13.1515 10.1339C13.3294 9.70503 13.226 9.23152 13.126 8.77358C13.069 8.51292 13.0102 8.24337 13.0102 8.00001Z" fill="#FFFCF8"/>
<path d="M6.15691 9.84319C6.19827 9.88453 6.25246 9.9052 6.30662 9.9052C6.36079 9.9052 6.41499 9.8845 6.45629 9.84319L9.84338 6.45608C9.92605 6.37347 9.92605 6.2394 9.84338 6.15673C9.76072 6.07406 9.62669 6.07406 9.54401 6.15673L6.15691 9.54382C6.07424 9.62646 6.07424 9.76052 6.15691 9.84319Z" fill="#FFFCF8"/>
<path d="M6.87111 7.64713C7.29909 7.64713 7.64731 7.29893 7.64731 6.87093C7.64731 6.44293 7.29909 6.09473 6.87111 6.09473C6.44313 6.09473 6.09491 6.44293 6.09491 6.87093C6.09491 7.29893 6.44313 7.64713 6.87111 7.64713ZM6.87111 6.5181C7.06564 6.5181 7.22392 6.67636 7.22392 6.87093C7.22392 7.06549 7.06567 7.22374 6.87111 7.22374C6.67654 7.22374 6.51828 7.06549 6.51828 6.87093C6.5183 6.67636 6.67656 6.5181 6.87111 6.5181Z" fill="#FFFCF8"/>
<path d="M9.12918 9.90543C9.55713 9.90543 9.9054 9.55722 9.9054 9.12924C9.9054 8.70123 9.55713 8.35303 9.12918 8.35303C8.7012 8.35303 8.35297 8.70123 8.35297 9.12924C8.35297 9.55722 8.7012 9.90543 9.12918 9.90543ZM9.12918 8.7764C9.3237 8.7764 9.48199 8.93466 9.48199 9.12924C9.48199 9.32382 9.32373 9.48206 9.12918 9.48206C8.9346 9.48206 8.77634 9.32382 8.77634 9.12924C8.77634 8.93466 8.9346 8.7764 9.12918 8.7764Z" fill="#FFFCF8"/>
</svg>
