<svg width="16" height="17" viewBox="0 0 16 17" fill="none" xmlns="http://www.w3.org/2000/svg">
<path d="M7.99973 16.5C3.58133 16.5 -0.000274658 12.9184 -0.000274658 8.5C-0.000274658 4.0816 3.58133 0.5 7.99973 0.5C12.4181 0.5 15.9997 4.0816 15.9997 8.5C15.9997 12.9184 12.4181 16.5 7.99973 16.5ZM4.73573 6.2872V6.3688C4.73573 6.58971 4.91481 6.7688 5.13573 6.7688H5.93333C6.1538 6.7688 6.33252 6.59007 6.33252 6.3696C6.33252 5.3376 7.13093 4.7864 8.20452 4.7864C9.25093 4.7864 9.93892 5.3376 9.93892 6.1224C9.93892 6.8648 9.55333 7.2096 8.59013 7.6504L8.31493 7.7736C7.50293 8.132 7.19973 8.668 7.19973 9.6048V9.7C7.19973 9.92091 7.37881 10.1 7.59973 10.1H8.39733C8.6178 10.1 8.79653 9.92128 8.79653 9.7008C8.79653 9.288 8.90693 9.1224 9.23652 8.9712L9.51253 8.8472C10.6685 8.324 11.5357 7.636 11.5357 6.1352V6.0528C11.5357 4.4704 10.1597 3.3 8.20453 3.3C6.22213 3.3 4.73573 4.4424 4.73573 6.2872ZM6.79973 12.4928C6.79973 13.1864 7.32693 13.7 7.99253 13.7C8.67253 13.7 9.19973 13.1864 9.19973 12.4928C9.19973 11.7992 8.67253 11.3 7.99253 11.3C7.32693 11.3 6.79973 11.7992 6.79973 12.4928Z" fill="#888888"/>
</svg>
