<svg width="16" height="16" viewBox="0 0 16 16" fill="none" xmlns="http://www.w3.org/2000/svg">
<path d="M15.9999 8C15.9999 12.4183 12.4182 16 7.99991 16C3.58163 16 -9.15527e-05 12.4183 -9.15527e-05 8C-9.15527e-05 3.58172 3.58163 0 7.99991 0C12.4182 0 15.9999 3.58172 15.9999 8ZM13.4737 7.614C13.472 7.10684 13.0613 6.69612 12.5542 6.69445H12.1954C12.0239 6.1681 11.7362 5.68704 11.3537 5.28685C11.2794 4.6066 11.4092 3.91962 11.7266 3.31338C11.7573 3.2549 11.7573 3.18507 11.7266 3.12658C11.696 3.06808 11.6385 3.02837 11.573 3.02034C11.5295 3.01506 11.4854 3.02429 11.4477 3.04661L9.42873 4.2218C9.18338 4.17127 8.9335 4.14587 8.683 4.14601H7.13291C5.36921 4.14601 3.85109 5.39298 3.50839 7.1235C3.12039 7.13469 2.81165 7.45244 2.81163 7.8406C2.81163 8.22881 3.12035 8.54657 3.50835 8.55779C3.65024 9.27593 4.00229 9.93573 4.5198 10.4535C4.58245 10.5154 4.64679 10.575 4.71281 10.6323V12.2016C4.71336 12.4045 4.87771 12.5689 5.08062 12.5694H6.25581C6.45912 12.5694 6.62409 12.4049 6.62464 12.2016V11.5003C6.79304 11.5238 6.96288 11.5357 7.13292 11.5357H8.683C8.85233 11.5357 9.02216 11.5239 9.19057 11.5004L9.19127 12.2016C9.19183 12.4049 9.35679 12.5694 9.5601 12.5694H10.7353C10.9382 12.5689 11.1026 12.4045 11.1031 12.2016V10.6323C11.1691 10.575 11.2331 10.5154 11.2951 10.4535C11.7063 10.0423 12.0148 9.53998 12.1954 8.98724H12.5531C13.0603 8.98558 13.471 8.57486 13.4727 8.0677L13.4737 7.614ZM8.99726 4.70279C9.2004 4.70279 9.36507 4.86747 9.36507 5.07061C9.36507 5.27375 9.2004 5.43842 8.99726 5.43842H6.95305C6.74991 5.43842 6.58523 5.27375 6.58523 5.07061C6.58523 4.86747 6.74991 4.70279 6.95305 4.70279L8.99928 4.70279H8.99726ZM8.99423 8.4436C9.14719 8.61845 9.23156 8.84284 9.23169 9.07516C9.23046 9.40993 9.05104 9.71872 8.7608 9.88556C8.62155 9.97413 8.46858 10.039 8.30811 10.0776L8.30811 10.2726C8.30811 10.476 8.1432 10.6409 7.93979 10.6409C7.73637 10.6409 7.57146 10.476 7.57146 10.2726V10.0826C7.4729 10.0607 7.37651 10.0299 7.28348 9.99065C7.12451 9.92519 6.98375 9.82222 6.87322 9.69054C6.74012 9.53707 6.75663 9.30476 6.9101 9.17166C7.06357 9.03856 7.29589 9.05507 7.42899 9.20854C7.46291 9.25124 7.50657 9.2852 7.55631 9.30757C7.61356 9.3323 7.67314 9.35125 7.73415 9.36415C7.79753 9.37657 7.86167 9.38468 7.92615 9.3884C8.07914 9.38797 8.2292 9.34644 8.36065 9.26815C8.49606 9.18125 8.49606 9.10951 8.49606 9.07515C8.49553 9.02077 8.47544 8.96841 8.43947 8.92762C8.39907 8.88188 8.35124 8.84327 8.298 8.81344C8.24171 8.78465 8.18193 8.76326 8.12016 8.74978C8.06231 8.73794 8.00338 8.73218 7.94433 8.7326C7.84144 8.7331 7.73869 8.72499 7.63715 8.70835C7.49949 8.6854 7.366 8.64215 7.24104 8.58002C7.09501 8.50688 6.9662 8.40355 6.86312 8.27687C6.7202 8.1038 6.64102 7.88693 6.63879 7.6625C6.64517 7.31646 6.83174 6.99886 7.13089 6.82481C7.2669 6.74067 7.41571 6.67923 7.57146 6.64292V6.45699C7.57146 6.25357 7.73637 6.08867 7.93979 6.08867C8.1432 6.08867 8.30811 6.25357 8.30811 6.45699V6.65201C8.4094 6.67773 8.50816 6.71257 8.60317 6.75609C8.73615 6.8163 8.85729 6.8998 8.96088 7.00265C9.10486 7.14608 9.10532 7.37907 8.96189 7.52305C8.81846 7.66703 8.58547 7.66749 8.44149 7.52406C8.40043 7.48363 8.35254 7.45079 8.30002 7.42706C8.24164 7.39988 8.18072 7.37856 8.11813 7.3634L8.09793 7.35935C8.04919 7.34665 7.99952 7.33787 7.94938 7.33308C7.79994 7.33256 7.65307 7.37198 7.52397 7.44726C7.43948 7.48741 7.38257 7.56931 7.37442 7.6625C7.37781 7.71762 7.3991 7.77013 7.43505 7.81205C7.4721 7.85745 7.51822 7.89462 7.57045 7.92118C7.6298 7.95047 7.69313 7.9709 7.7584 7.98181C7.81987 7.99173 7.88207 7.99646 7.94433 7.99596C8.05547 7.99596 8.16658 8.00779 8.2755 8.03127C8.40245 8.05877 8.52521 8.10296 8.64056 8.16269C8.77428 8.23445 8.89406 8.32959 8.99423 8.4436Z" fill="#888888"/>
</svg>
