<svg width="16" height="16" viewBox="0 0 16 16" fill="none" xmlns="http://www.w3.org/2000/svg">
<mask id="mask0_21_4257" style="mask-type:alpha" maskUnits="userSpaceOnUse" x="0" y="0" width="16" height="16">
<rect width="16" height="16" fill="#FFF4E3"/>
</mask>
<g mask="url(#mask0_21_4257)">
<path d="M14.0781 4.85693H13.3857V9.14296H14.0781C14.5479 9.14296 14.9285 8.76218 14.9285 8.29256V5.70759C14.9285 5.23775 14.5479 4.85693 14.0781 4.85693Z" fill="#888888"/>
<path d="M13.7138 0H12.7857H2.28619C1.61525 0 1.0715 0.543969 1.0715 1.21469V14.7851C1.0715 15.4561 1.61522 16 2.28619 16H11.5708C12.2417 16 12.7857 15.4561 12.7857 14.7851V4.28581H14.078C14.5479 4.28581 14.9285 3.90522 14.9285 3.43559V1.21469C14.9285 0.543969 14.3845 0 13.7138 0ZM5.0591 6.4715C5.0591 5.35053 5.96756 4.44187 7.08872 4.44187C8.20944 4.44187 9.11791 5.35056 9.11791 6.4715V6.95762C9.11791 8.07834 8.20944 8.98681 7.08872 8.98681C5.96757 8.98681 5.0591 8.07834 5.0591 6.95762L5.0591 6.4715ZM9.57016 12.182C8.91369 12.182 7.08875 12.182 7.08875 12.182C7.08875 12.182 5.26338 12.182 4.60691 12.182C3.95047 12.182 3.65291 11.2274 4.0326 10.5528C4.31853 10.0442 4.78703 9.46803 5.55019 9.14038C5.98656 9.4455 6.51669 9.62519 7.08875 9.62519C7.66016 9.62519 8.1905 9.4455 8.62688 9.14038C9.38982 9.46803 9.85857 10.0441 10.1447 10.5528C10.5242 11.2274 10.2266 12.182 9.57016 12.182Z" fill="#888888"/>
</g>
</svg>
